<svg width="76" height="21" viewBox="0 0 76 21" fill="none" xmlns="http://www.w3.org/2000/svg">
<path fill-rule="evenodd" clip-rule="evenodd" d="M60.4201 0.657402H66.554L65.8295 4.22307C67.7036 1.29142 69.8491 0.446479 72.4777 0.265152C73.384 0.235973 74.5023 0.356025 75.4998 0.506922L74.3202 5.19057C73.3539 4.9488 72.3273 4.76747 71.4202 4.76747C67.7941 4.70745 65.1042 7.15348 64.168 10.6579L62.0521 18.6967H55.7073C57.2776 12.6837 59.3634 6.12763 60.4201 0.657402Z" fill="#888888"/>
<path fill-rule="evenodd" clip-rule="evenodd" d="M42.9803 8.66953C44.0378 8.15598 47.7244 8.21184 50.1112 7.90963C52.8615 7.57741 56.6977 6.06635 56.6064 3.76997C56.456 1.32227 54.2813 0.767447 52.2563 1.03965C47.4826 1.73452 44.37 4.86251 42.9803 8.66953ZM42.3892 10.2314C42.2687 11.2881 42.1345 12.4124 42.2245 13.2586C42.6168 16.2498 45.24 17.6492 48.0499 17.7396C50.3905 17.7951 53.2434 16.3953 54.7953 14.6516C55.0883 14.3219 55.4255 14.4295 55.624 14.6925C55.7753 14.8934 55.7161 15.3469 55.576 15.4853C53.1391 17.9051 50.6335 19.2703 47.1504 19.3003C43.192 19.3303 38.2354 17.8209 37.6318 13.7121C37.5409 13.2285 37.5409 12.6846 37.6013 12.1097C38.3871 4.49777 45.3375 0.385618 52.1662 0.0229646C55.4293 -0.158362 60.1442 0.68783 59.8712 4.22349C59.6002 7.94048 53.9791 9.23977 50.323 9.33023C47.2408 9.42068 43.4467 9.40693 42.3892 10.2314Z" fill="#888888"/>
<path fill-rule="evenodd" clip-rule="evenodd" d="M38.9803 14.5287L37.9536 18.4562C36.2312 18.8192 33.994 19.1523 31.939 19.091C25.8351 18.9706 21.3628 16.1594 21.635 10.3577C21.9668 3.68034 28.5855 0.26557 34.9615 0.174698C37.077 0.174698 39.0107 0.38562 41.1558 0.899587L39.2525 4.6766C37.8623 4.28393 35.9886 3.92128 34.1149 4.10261C31.1836 4.31394 28.4946 5.88544 27.7088 8.96758C26.6813 12.835 28.9173 15.5562 32.876 15.5562C34.9611 15.5562 36.9861 15.1335 38.9803 14.5287Z" fill="#888888"/>
<path fill-rule="evenodd" clip-rule="evenodd" d="M13.1739 0.234722C18.2807 0.234722 22.1269 1.40772 22.4937 5.64784C22.635 7.27895 22.0406 8.73373 21.5875 10.4565L19.4591 18.7284C15.3799 18.7284 12.056 18.8188 8.36941 19.1214C4.95464 19.1214 0.875 18.3961 0.875 14.0443C0.946697 6.93338 11.9651 7.57741 16.6487 7.57741C17.6462 4.73704 15.319 3.58864 12.0556 3.58864C9.0943 3.58864 6.65536 4.43483 4.2681 5.22058L5.10512 1.38271C7.43277 0.627387 10.424 0.234722 13.1739 0.234722ZM15.9539 10.4178C13.3807 10.4178 6.10929 9.81085 6.10929 13.7421C6.10929 15.7058 8.16433 15.9989 9.88672 15.9989C14.4128 15.9989 15.1189 14.4186 15.9539 10.4178ZM73.3664 15.0406C73.0407 15.0386 72.718 15.1019 72.4171 15.2266C72.1162 15.3513 71.8433 15.5349 71.6145 15.7667C71.1326 16.2802 70.8595 16.9139 70.8595 17.5783C70.8595 18.2444 71.1322 18.8484 71.5857 19.332C72.0676 19.8155 72.7028 20.0873 73.366 20.0873C74.0313 20.0873 74.6662 19.8155 75.1505 19.332C75.6349 18.8484 75.875 18.2444 75.875 17.5783C75.875 16.8847 75.6349 16.2511 75.1505 15.7971C74.667 15.3136 74.0317 15.0406 73.3664 15.0406ZM75.6357 17.5783C75.6357 18.1831 75.3931 18.7288 74.9696 19.1502C74.5416 19.5713 73.9668 19.8099 73.3664 19.8155C73.069 19.8152 72.7745 19.7563 72.4999 19.6422C72.2252 19.528 71.9758 19.3608 71.7658 19.1502C71.3431 18.7284 71.1021 18.1535 71.1021 17.5783C71.1021 16.976 71.3431 16.4011 71.7658 15.9468C72.1905 15.5225 72.7661 15.2839 73.3664 15.2832C73.9721 15.2832 74.5469 15.5249 74.9696 15.9785C75.3931 16.4011 75.6357 16.9443 75.6357 17.5783ZM73.4285 16.0681H72.4002V18.9706H72.7941V17.6704H73.5194L74.153 18.9706H74.6074L73.9421 17.6412C74.3648 17.5787 74.6374 17.2765 74.6374 16.8851C74.6374 16.3107 74.2443 16.0681 73.4285 16.0681ZM73.3664 16.3407C73.9421 16.3407 74.2439 16.4912 74.2439 16.8542C74.2439 17.3069 73.9721 17.4282 73.3664 17.4282H72.7941V16.3407H73.3664Z" fill="#888888"/>
</svg>
