<svg width="76" height="11" viewBox="0 0 76 11" fill="none" xmlns="http://www.w3.org/2000/svg">
<path d="M71.9971 4.27641L71.066 4.13519C69.2964 3.86538 68.5524 3.49466 68.5524 2.76334C68.5524 2.1102 69.4831 1.73445 71.0015 1.73445C72.7861 1.73445 74.5509 2.33968 75.233 2.87682V1.03843C74.3941 0.534074 72.8855 0.0625 71.0188 0.0625C67.6636 0.0625 66.5386 1.51001 66.5386 2.73812C66.5386 4.44284 67.9599 5.41877 70.4615 5.79959L71.3923 5.94081C73.1743 6.21062 73.8639 6.54603 73.8639 7.24206C73.8639 7.87754 73.2043 8.38945 71.1609 8.38945C69.1171 8.38945 67.5316 7.72623 66.7527 7.17648V9.05774C68.0667 9.74658 69.5296 10.0933 71.009 10.0665C74.0255 10.0665 75.875 8.98964 75.875 7.33787C75.875 5.63061 74.5809 4.66731 71.9971 4.27641Z" fill="#888888"/>
<path d="M6.14431 0.291983L0.875 9.92271H3.08776L4.33229 7.52447H10.0372L11.2817 9.92271H13.4945L8.2202 0.291983H6.14431ZM5.08648 6.05931L7.09764 2.19594H7.29425L9.2855 6.05931H5.08648Z" fill="#888888"/>
<path d="M30.6689 0.291983L25.3996 9.92271H27.6123L28.8569 7.52447H34.5643L35.8088 9.92271H38.0216L32.7348 0.291983H30.6689ZM29.6111 6.05931L31.6023 2.19594H31.7989L33.7902 6.05931H29.6111Z" fill="#888888"/>
<path d="M58.7304 0.291983L53.4612 9.92271H55.6738L56.9184 7.52447H62.6259L63.8705 9.92271H66.0882L60.8064 0.291983H58.7304ZM57.6725 6.05931L59.6638 2.19594H59.8655L61.8567 6.05931H57.6725Z" fill="#888888"/>
<path d="M22.9479 0.927475C22.0842 0.516423 20.6754 0.291983 19.2193 0.291983H14.6444V9.92271H19.2193C20.6754 9.92271 22.0842 9.69828 22.9529 9.28724C23.7448 8.92855 24.4139 8.33969 24.8751 7.59535C25.3364 6.85098 25.5692 5.98461 25.544 5.1061C25.5683 4.2274 25.3346 3.36119 24.8724 2.61727C24.4102 1.87335 23.7404 1.28523 22.9479 0.927475ZM21.9025 7.88005C21.2951 8.18519 20.1602 8.34659 19.0326 8.34659H16.556V1.87567H19.0451C20.1825 1.87567 21.3076 2.03706 21.9149 2.33968C23.0474 2.91213 23.5253 3.9511 23.5253 5.1061C23.5253 6.26106 23.0474 7.30255 21.9025 7.88005Z" fill="#888888"/>
<path d="M45.7775 6.61915L42.3151 0.291983H39.209V9.92271H41.1106V2.00932H41.3022L45.7775 10.1875L50.2527 2.00932H50.4444V9.92271H52.346V0.291983H49.2373L45.7775 6.61915Z" fill="#888888"/>
</svg>
