<svg width="42" height="42" viewBox="0 0 42 42" fill="none" xmlns="http://www.w3.org/2000/svg">
<path d="M16.5 15.0001L16.5 34.5001M33 22.5001H9M12 36.0001H30C31.6569 36.0001 33 34.6569 33 33.0001V18.0001C33 16.3432 31.6569 15.0001 30 15.0001H12C10.3431 15.0001 9 16.3432 9 18.0001V33.0001C9 34.6569 10.3431 36.0001 12 36.0001ZM15.3971 9.14817L18.5666 11.1857C20.0489 12.1387 21.9511 12.1387 23.4334 11.1857L26.6029 9.14817C28.7182 7.78838 31.5 9.30713 31.5 11.8217C31.5 13.5771 30.077 15.0001 28.3217 15.0001H13.6783C11.923 15.0001 10.5 13.5771 10.5 11.8217C10.5 9.30713 13.2818 7.78838 15.3971 9.14817Z" stroke="#2E2E2E" stroke-width="3" stroke-linecap="round" stroke-linejoin="round"/>
<g filter="url(#filter0_d_3866_27939)">
<circle cx="28" cy="28" r="10" fill="#3AA600"/>
</g>
<path d="M28 23.7144V32.2858M23.7143 28.0001H32.2857" stroke="white" stroke-width="2" stroke-linecap="round" stroke-linejoin="round"/>
<defs>
<filter id="filter0_d_3866_27939" x="16" y="17" width="24" height="24" filterUnits="userSpaceOnUse" color-interpolation-filters="sRGB">
<feFlood flood-opacity="0" result="BackgroundImageFix"/>
<feColorMatrix in="SourceAlpha" type="matrix" values="0 0 0 0 0 0 0 0 0 0 0 0 0 0 0 0 0 0 127 0" result="hardAlpha"/>
<feOffset dy="1"/>
<feGaussianBlur stdDeviation="1"/>
<feColorMatrix type="matrix" values="0 0 0 0 0 0 0 0 0 0 0 0 0 0 0 0 0 0 0.08 0"/>
<feBlend mode="normal" in2="BackgroundImageFix" result="effect1_dropShadow_3866_27939"/>
<feBlend mode="normal" in="SourceGraphic" in2="effect1_dropShadow_3866_27939" result="shape"/>
</filter>
</defs>
</svg>
