<svg width="76" height="23" viewBox="0 0 76 23" fill="none" xmlns="http://www.w3.org/2000/svg">
<path d="M8.06703 0.60083C9.57813 0.60083 10.0529 1.68401 10.4473 2.76718C10.6145 3.22854 14.5393 13.9734 14.6597 14.2943C14.6931 14.3813 14.6731 14.5284 14.5327 14.5818C14.3922 14.6353 12.3529 15.431 12.2393 15.4711C12.1256 15.5112 11.9986 15.4511 11.9584 15.3374C11.9183 15.2237 11.0692 12.8835 10.9756 12.6228H5.1585C5.06489 12.8835 4.20904 15.2304 4.16893 15.3374C4.12881 15.4444 4.00846 15.5179 3.8881 15.4711C3.76775 15.4243 1.72175 14.6286 1.60139 14.5818C1.48104 14.535 1.42755 14.4013 1.47436 14.2943C1.62145 13.8932 5.48612 3.31546 5.68003 2.76718C6.06114 1.70407 6.55593 0.60083 8.06703 0.60083ZM1.1601 19.8373C1.03975 19.8373 0.939453 19.9376 0.939453 20.0646V22.5719C0.939453 22.699 1.03975 22.7993 1.1601 22.7993H14.9673C15.0876 22.7993 15.1879 22.699 15.1879 22.5719V20.0646C15.1879 19.9376 15.0876 19.8373 14.9673 19.8373H1.1601ZM8.05366 4.11113L6.08789 10.0151H10.0529L8.0804 4.11113H8.05366ZM59.431 12.7765C59.431 13.4452 59.0633 13.8865 58.3813 13.8865C58.1138 13.8865 57.8932 13.8865 57.5388 13.7929V11.7736C57.6926 11.7469 58.0135 11.7001 58.3813 11.7134C59.0767 11.7402 59.431 12.0611 59.431 12.7832V12.7765ZM60.8285 12.6763C60.8285 11.4393 60.0997 10.5834 58.5752 10.5834C58.2008 10.5834 57.94 10.6169 57.5321 10.7172V8.93193C57.7795 8.8985 58.2141 8.86507 58.6822 8.86507C59.1301 8.86507 59.6985 8.89182 60.1999 8.95199L60.2334 7.91562C59.665 7.78858 58.8426 7.70835 58.2074 7.70835C57.5722 7.70835 56.6027 7.86882 56.1347 7.98917V14.5818C56.8568 14.8493 57.5656 14.9696 58.2944 14.9696C59.9592 14.9696 60.8218 14.0871 60.8218 12.6696L60.8285 12.6763ZM44.9686 12.3152C44.9686 13.2312 44.6009 13.8263 43.9991 13.8263C43.745 13.8263 43.6113 13.8129 43.3238 13.7193V10.9579C43.638 10.8108 43.8052 10.8108 44.0593 10.8108C44.661 10.8108 44.9686 11.3123 44.9686 12.3152ZM40.3751 12.3486C40.3751 11.3457 40.676 10.8175 41.2778 10.8175C41.5319 10.8175 41.699 10.8175 42.0133 10.9646V13.726C41.7258 13.8196 41.592 13.833 41.338 13.833C40.6493 13.833 40.3684 13.2713 40.3684 12.3486M43.3238 16.4874V14.6888C43.4909 14.7891 43.8253 14.9362 44.3802 14.9362C45.4901 14.9362 46.3125 14.0135 46.3125 12.3219C46.3125 10.5032 45.4968 9.72092 44.1596 9.72092C43.8186 9.72092 43.5979 9.75435 43.3238 9.88807V7.74178H42.0133V9.88807C41.7391 9.75435 41.5118 9.72092 41.1775 9.72092C39.8402 9.72092 39.0245 10.53 39.0245 12.3553C39.0245 14.0469 39.76 14.9429 40.9568 14.9429C41.5185 14.9429 41.8528 14.7958 42.02 14.6955V16.4941H43.3305M33.3813 14.8493V10.0285C32.6592 9.81452 32.1042 9.72092 31.3821 9.72092C30.66 9.72092 30.1184 9.81452 29.3963 10.0285V12.4957C29.3963 13.1644 29.3829 13.3649 29.3093 13.5856C29.2358 13.7728 29.1422 14.0001 28.8747 14.1807L29.2358 14.9496C30.2922 14.6487 30.6867 14.194 30.6867 12.7364V10.9244C31.0344 10.871 31.1013 10.8643 31.3821 10.8643C31.6629 10.8643 31.7231 10.8776 32.0708 10.9244V14.856H33.388L33.3813 14.8493ZM49.5688 13.7929C49.2813 13.8932 49.0874 13.9132 48.86 13.9132C48.392 13.9132 48.1245 13.726 48.1245 13.2446C48.1245 12.7632 48.4588 12.576 49.1141 12.576C49.2679 12.576 49.4284 12.6027 49.5019 12.6228V12.9838C49.5019 13.3716 49.522 13.6257 49.5688 13.7929ZM51.2403 14.3679C50.8927 13.8397 50.8057 13.5321 50.8057 12.8635V11.5195C50.8057 10.7907 50.7188 10.5233 50.5249 10.2558C50.2575 9.88139 49.8162 9.72092 48.9937 9.72092C48.4187 9.72092 47.8437 9.78109 47.3021 9.9215L47.496 10.8843C47.8638 10.8308 48.2516 10.7907 48.5257 10.7907C49.3949 10.7907 49.4952 10.9178 49.4952 11.5663V11.8137C49.3013 11.7602 49.0807 11.7268 48.8333 11.7268C47.5161 11.7268 46.8274 12.3687 46.8274 13.4251C46.8274 14.4214 47.5696 14.963 48.4722 14.963C48.8065 14.963 49.1609 14.9028 49.435 14.7891C49.6022 14.7156 49.6757 14.6754 49.8897 14.5284C50.0234 14.7223 50.2842 14.9162 50.3912 14.9496L51.2337 14.3679H51.2403ZM64.0646 13.7929C63.7771 13.8932 63.5832 13.9132 63.3559 13.9132C62.8878 13.9132 62.6204 13.726 62.6204 13.2446C62.6204 12.7632 62.9547 12.576 63.61 12.576C63.7704 12.576 63.9242 12.6027 63.9978 12.6228V12.9838C63.9978 13.3716 64.0178 13.6257 64.0646 13.7929ZM65.7362 14.3679C65.3885 13.8397 65.2949 13.5321 65.2949 12.8635V11.5195C65.2949 10.7907 65.2147 10.5233 65.0208 10.2558C64.7533 9.88139 64.312 9.72092 63.4896 9.72092C62.9079 9.72092 62.3462 9.78109 61.798 9.9215L61.9919 10.8843C62.3596 10.8308 62.7474 10.7907 63.0216 10.7907C63.8908 10.7907 63.9911 10.9178 63.9911 11.5663V11.8137C63.7972 11.7602 63.5832 11.7268 63.3291 11.7268C62.0186 11.7268 61.3232 12.3687 61.3232 13.4251C61.3232 14.4214 62.0654 14.963 62.9681 14.963C63.3024 14.963 63.6568 14.9028 63.9309 14.7891C64.0981 14.7156 64.1716 14.6754 64.3856 14.5284C64.5193 14.7223 64.7801 14.9162 64.887 14.9496L65.7295 14.3679H65.7362ZM37.1122 13.1175C37.1122 13.6123 36.9384 13.9466 36.3099 13.9466C36.0959 13.9466 36.009 13.9466 35.7349 13.8664V12.4222C36.0759 12.3553 36.1093 12.3419 36.3099 12.3419C36.9116 12.3419 37.1122 12.6361 37.1122 13.1109V13.1175ZM34.4177 9.80115V14.5818C35.0328 14.8426 35.7215 14.963 36.3299 14.963C37.7274 14.963 38.4762 14.2408 38.4762 13.0507C38.4762 11.9742 37.8143 11.3056 36.5773 11.3056C36.2631 11.3056 36.0759 11.3457 35.7349 11.4326V9.79446H34.4243L34.4177 9.80115ZM70.5436 14.8493V9.84795H69.2264V11.7402H67.7354V9.84795H66.4249V14.8493H67.7354V12.81H69.2264V14.8493H70.5436ZM75.9395 14.8493C75.9395 14.8493 75.224 13.3181 75.0435 12.9704C74.8496 12.576 74.6624 12.3085 74.2612 12.2082V12.1882C74.5353 12.1347 74.7493 11.9742 74.9833 11.4727C75.2106 10.9846 75.2775 10.8776 75.4046 10.764C75.5316 10.6503 75.7121 10.6904 75.7121 10.6904L75.779 9.78109C75.5918 9.75435 75.3845 9.75435 75.1638 9.76772C74.8095 9.78778 74.6223 9.88807 74.4484 10.0686C74.3147 10.2023 74.2211 10.4029 74.1007 10.6436C73.9737 10.8977 73.8801 11.0983 73.753 11.3591C73.626 11.6198 73.5658 11.7402 73.2248 11.7402H73.0042V9.84795H71.687V14.8493H73.0042V12.8033H73.1847C73.5591 12.8033 73.626 12.8902 73.8266 13.2914C74.0606 13.7661 74.5019 14.8493 74.5019 14.8493H75.9395ZM26.9491 14.8493H28.4602L26.1735 7.85544C25.9328 7.77521 25.6319 7.72172 25.3176 7.72172C24.9699 7.72172 24.8496 7.76852 24.5755 7.85544L22.1483 14.8493H23.5993C23.5993 14.8493 23.7932 14.2342 24.0339 13.4786H26.5412C26.7686 14.2408 26.9491 14.8493 26.9491 14.8493ZM24.4016 12.3018C24.4016 12.3018 24.8228 10.8977 24.883 10.6837C25.0502 10.1154 25.3043 9.21944 25.3043 9.21944H25.3444C25.3444 9.21944 25.5784 10.1488 25.7322 10.6771C25.7924 10.8843 26.1935 12.3085 26.1935 12.3085H24.4016V12.3018ZM53.4736 11.5062C53.0122 11.5062 52.6378 11.8806 52.6378 12.3419C52.6378 12.8033 53.0122 13.1844 53.4736 13.1844C53.9349 13.1844 54.3093 12.81 54.3093 12.3419C54.3093 11.8739 53.9349 11.5062 53.4736 11.5062Z" fill="#888888"/>
</svg>
