<svg width="75" height="25" viewBox="0 0 75 25" fill="none" xmlns="http://www.w3.org/2000/svg">
<path d="M4.3327 0.751472L0.625 9.47821H3.0389L3.72302 7.73071H7.70011L8.38069 9.47821H10.8478L7.1436 0.751472H4.3327ZM5.70448 2.78245L6.91675 5.8361H4.48866L5.70448 2.78245Z" fill="#888888"/>
<path d="M11.103 9.47674V0.75L14.5333 0.7629L16.5284 6.38935L18.4758 0.75H21.8787V9.47674H19.7235V3.04651L17.4391 9.47674H15.549L13.2581 3.04651V9.47674H11.103Z" fill="#888888"/>
<path d="M23.3533 9.47674V0.75H30.3858V2.70204H25.5311V4.19476H30.2724V6.03198H25.5311V7.58212H30.3858V9.47674H23.3533Z" fill="#888888"/>
<path d="M31.6336 0.751472V9.47821H33.7887V6.37792H34.6961L37.2802 9.47821H39.9139L37.0781 6.2631C38.2419 6.16368 39.4424 5.15252 39.4424 3.58265C39.4424 1.74623 38.0186 0.751472 36.4295 0.751472H31.6336ZM33.7887 2.7035H36.2522C36.8432 2.7035 37.2731 3.17147 37.2731 3.62211C37.2731 4.20187 36.7161 4.54071 36.2841 4.54071H33.7887V2.7035Z" fill="#888888"/>
<path d="M42.5227 9.47674H40.3222V0.75H42.5227V9.47674Z" fill="#888888"/>
<path d="M47.7404 9.47674H47.2654C44.9673 9.47674 43.5719 7.64384 43.5719 5.14925C43.5719 2.59303 44.9516 0.75 47.8539 0.75H50.2359V2.81686H47.7668C46.5886 2.81686 45.7554 3.7476 45.7554 5.17078C45.7554 6.86082 46.7082 7.57064 48.0807 7.57064H48.6479L47.7404 9.47674Z" fill="#888888"/>
<path d="M52.43 0.751472L48.7223 9.47821H51.1362L51.8203 7.73071H55.7974L56.478 9.47821H58.9451L55.2409 0.751472H52.43ZM53.8018 2.78245L55.014 5.8361H52.586L53.8018 2.78245Z" fill="#888888"/>
<path d="M59.1967 9.47674V0.75H61.9367L65.4353 6.23292V0.75H67.5904V9.47674H64.9391L61.3519 3.85029V9.47674H59.1967Z" fill="#888888"/>
<path d="M16.3207 24.7485V16.0218H23.3533V17.9738H18.4985V19.4666H23.2398V21.3038H18.4985V22.8539H23.3533V24.7485H16.3207Z" fill="#888888"/>
<path d="M50.7803 24.7485V16.0218H57.8129V17.9738H52.9581V19.4666H57.6768V21.3038H52.9581V22.8539H57.8129V24.7485H50.7803Z" fill="#888888"/>
<path d="M23.6262 24.7485L27.0503 20.439L23.5447 16.0218H26.2599L28.3477 18.7525L30.4426 16.0218H33.0514L29.5918 20.3852L33.0223 24.7485H30.3075L28.2803 22.0609L26.3024 24.7485H23.6262Z" fill="#888888"/>
<path d="M33.2783 16.0233V24.75H35.4901V21.9942H37.7587C39.6782 21.9942 41.1332 20.9633 41.1332 18.9585C41.1332 17.2977 39.9921 16.0233 38.0387 16.0233H33.2783ZM35.4901 17.9968H37.8792C38.4994 17.9968 38.9426 18.3816 38.9426 19.0015C38.9426 19.584 38.5016 20.0063 37.8721 20.0063H35.4901V17.9968Z" fill="#888888"/>
<path d="M42.069 16.0218V24.7485H44.2241V21.6482H45.1316L47.7156 24.7485H50.3493L47.5136 21.5334C48.6774 21.434 49.8778 20.4228 49.8778 18.853C49.8778 17.0166 48.454 16.0218 46.8649 16.0218H42.069ZM44.2241 17.9738H46.6877C47.2786 17.9738 47.7085 18.4418 47.7085 18.8924C47.7085 19.4722 47.1515 19.811 46.7196 19.811H44.2241V17.9738Z" fill="#888888"/>
<path d="M58.8111 24.7485V22.8539H63.1242C63.7624 22.8539 64.0387 22.5048 64.0387 22.1219C64.0387 21.755 63.7633 21.3841 63.1242 21.3841H61.1751C59.481 21.3841 58.5374 20.3392 58.5374 18.7704C58.5374 17.3712 59.4015 16.0218 61.919 16.0218H66.1159L65.2084 17.9853H61.5787C60.8849 17.9853 60.6713 18.3539 60.6713 18.7058C60.6713 19.0676 60.9352 19.4666 61.4653 19.4666H63.507C65.3956 19.4666 66.2151 20.551 66.2151 21.9712C66.2151 23.498 65.3019 24.7485 63.4042 24.7485H58.8111Z" fill="#888888"/>
<path d="M66.7209 24.7485V22.8539H71.0341C71.6723 22.8539 71.9486 22.5048 71.9486 22.1219C71.9486 21.755 71.6731 21.3841 71.0341 21.3841H69.085C67.3908 21.3841 66.4473 20.3392 66.4473 18.7704C66.4473 17.3712 67.3113 16.0218 69.8289 16.0218H74.0257L73.1183 17.9853H69.4886C68.7948 17.9853 68.5812 18.3539 68.5812 18.7058C68.5812 19.0676 68.8451 19.4666 69.3752 19.4666H71.4169C73.3055 19.4666 74.125 20.551 74.125 21.9712C74.125 23.498 73.2118 24.7485 71.3141 24.7485H66.7209Z" fill="#888888"/>
</svg>
