<svg width="153" height="36" viewBox="0 0 153 36" fill="none" xmlns="http://www.w3.org/2000/svg">
<path d="M76.7846 19.8021C75.6823 19.8073 74.6063 20.1389 73.6923 20.755C72.7783 21.3712 72.0673 22.2443 71.6491 23.2642C71.2309 24.284 71.1241 25.4049 71.3424 26.4854C71.5606 27.5658 72.094 28.5574 72.8752 29.335C73.6565 30.1126 74.6506 30.6414 75.7321 30.8545C76.8135 31.0676 77.9339 30.9556 78.9518 30.5326C79.9697 30.1096 80.8394 29.3946 81.4513 28.4777C82.0632 27.5608 82.3897 26.4833 82.3897 25.381C82.4004 24.6432 82.2626 23.9107 81.9843 23.2273C81.7061 22.5439 81.2932 21.9234 80.7702 21.4029C80.2472 20.8824 79.6248 20.4724 78.9401 20.1974C78.2554 19.9224 77.5223 19.7879 76.7846 19.8021ZM76.7846 28.7677C76.1067 28.8151 75.4302 28.6575 74.8431 28.3153C74.256 27.9732 73.7853 27.4623 73.4924 26.8491C73.1995 26.236 73.0978 25.5488 73.2005 24.8771C73.3033 24.2054 73.6058 23.5801 74.0686 23.0825C74.5314 22.585 75.1333 22.2382 75.7958 22.0872C76.4584 21.9362 77.151 21.988 77.7838 22.2359C78.4165 22.4838 78.96 22.9163 79.3437 23.4772C79.7273 24.0381 79.9333 24.7014 79.935 25.381C79.9562 25.8116 79.8909 26.242 79.743 26.6469C79.5951 27.0519 79.3677 27.4231 79.0741 27.7388C78.7804 28.0544 78.4266 28.3081 78.0334 28.4848C77.6402 28.6615 77.2156 28.7577 76.7846 28.7677ZM64.5635 19.8021C63.4607 19.8047 62.3834 20.1341 61.4677 20.7487C60.5519 21.3633 59.8389 22.2355 59.4187 23.2551C58.9985 24.2747 58.8898 25.3961 59.1066 26.4774C59.3233 27.5587 59.8557 28.5515 60.6364 29.3305C61.4172 30.1094 62.4113 30.6394 63.4931 30.8536C64.5749 31.0678 65.696 30.9566 66.7146 30.5339C67.7333 30.1113 68.6038 29.3962 69.2162 28.4791C69.8287 27.5619 70.1555 26.4838 70.1555 25.381C70.1662 24.6432 70.0284 23.9107 69.7502 23.2273C69.4719 22.5439 69.059 21.9234 68.536 21.4029C68.013 20.8824 67.3907 20.4724 66.7059 20.1974C66.0212 19.9224 65.2882 19.7879 64.5504 19.8021H64.5635ZM64.5635 28.7677C63.8853 28.8178 63.2077 28.6625 62.619 28.3221C62.0302 27.9817 61.5576 27.4719 61.2626 26.8592C60.9676 26.2464 60.864 25.559 60.9651 24.8865C61.0662 24.214 61.3675 23.5875 61.8296 23.0886C62.2918 22.5897 62.8935 22.2415 63.5563 22.0893C64.2191 21.9372 64.9124 21.988 65.5459 22.2354C66.1794 22.4827 66.7237 22.9151 67.1081 23.4761C67.4925 24.0371 67.699 24.7009 67.7008 25.381C67.722 25.8116 67.6567 26.242 67.5088 26.6469C67.361 27.0519 67.1335 27.4231 66.8399 27.7388C66.5463 28.0544 66.1924 28.3081 65.7992 28.4848C65.406 28.6615 64.9814 28.7577 64.5504 28.7677H64.5635ZM50.0059 21.5217V23.8845H55.6767C55.5878 24.9974 55.1252 26.0475 54.364 26.8643C53.7967 27.4422 53.1147 27.8949 52.3618 28.1933C51.609 28.4918 50.802 28.6293 49.9928 28.597C48.3217 28.597 46.7191 27.9332 45.5374 26.7516C44.3558 25.5699 43.6919 23.9673 43.6919 22.2962C43.6919 20.6251 44.3558 19.0224 45.5374 17.8408C46.7191 16.6592 48.3217 15.9953 49.9928 15.9953C51.5914 15.9693 53.135 16.5782 54.2853 17.6887L55.9524 16.0216C55.1759 15.2353 54.2495 14.6129 53.2281 14.1913C52.2066 13.7696 51.1109 13.5573 50.0059 13.5669C48.839 13.5215 47.6748 13.7121 46.5833 14.1273C45.4917 14.5426 44.4953 15.1739 43.6536 15.9835C42.8119 16.7931 42.1422 17.7643 41.6849 18.8388C41.2275 19.9134 40.9917 21.0692 40.9917 22.2371C40.9917 23.405 41.2275 24.5608 41.6849 25.6354C42.1422 26.7099 42.8119 27.6811 43.6536 28.4907C44.4953 29.3003 45.4917 29.9316 46.5833 30.3469C47.6748 30.7621 48.839 30.9528 50.0059 30.9073C51.1295 30.9581 52.251 30.7677 53.2948 30.3488C54.3386 29.9299 55.2806 29.2923 56.0574 28.4789C57.4326 26.9679 58.1669 24.9816 58.1052 22.9394C58.1094 22.4419 58.0654 21.9451 57.9739 21.4561L50.0059 21.5217ZM109.483 23.3594C109.141 22.3523 108.501 21.4728 107.648 20.8376C106.794 20.2023 105.768 19.8412 104.705 19.8021C103.987 19.8007 103.277 19.9466 102.617 20.2307C101.958 20.5149 101.364 20.9313 100.871 21.4541C100.379 21.977 99.9996 22.5953 99.7559 23.2707C99.5122 23.9461 99.4097 24.6643 99.4545 25.381C99.4386 26.1146 99.5707 26.844 99.8429 27.5255C100.115 28.207 100.522 28.8266 101.039 29.3473C101.556 29.8681 102.173 30.2793 102.852 30.5563C103.532 30.8334 104.26 30.9706 104.994 30.9599C105.912 30.9648 106.817 30.742 107.628 30.3113C108.439 29.8806 109.131 29.2555 109.641 28.492L107.738 27.1793C107.453 27.6529 107.051 28.0447 106.57 28.3162C106.089 28.5877 105.546 28.7297 104.994 28.7283C104.425 28.75 103.863 28.6001 103.381 28.2981C102.899 27.9961 102.519 27.5559 102.29 27.0349L109.759 23.9502L109.483 23.3594ZM101.87 25.2235C101.843 24.8174 101.898 24.4102 102.031 24.0256C102.163 23.6409 102.372 23.2867 102.643 22.9835C102.914 22.6803 103.244 22.4343 103.611 22.26C103.979 22.0856 104.378 21.9864 104.784 21.968C105.207 21.9401 105.63 22.0372 105.998 22.2472C106.367 22.4573 106.666 22.771 106.858 23.1494L101.87 25.2235ZM95.8053 30.6317H98.26V14.2232H95.8053V30.6317ZM91.7885 21.0491H91.6966C91.3266 20.6355 90.8734 20.3047 90.3667 20.0785C89.86 19.8523 89.3111 19.7357 88.7562 19.7365C87.3217 19.806 85.9689 20.4249 84.9783 21.4647C83.9876 22.5046 83.435 23.8857 83.435 25.3219C83.435 26.7581 83.9876 28.1392 84.9783 29.1791C85.9689 30.219 87.3217 30.8378 88.7562 30.9073C89.3125 30.9167 89.864 30.804 90.372 30.5772C90.8801 30.3504 91.3322 30.015 91.6966 29.5947H91.7754V30.3954C91.7754 32.5351 90.6333 33.6771 88.7956 33.6771C88.1835 33.6628 87.5895 33.4666 87.0893 33.1137C86.589 32.7607 86.2051 32.2668 85.9865 31.695L83.8468 32.5876C84.2496 33.5673 84.9358 34.4044 85.8176 34.9914C86.6993 35.5785 87.7363 35.8887 88.7956 35.8824C91.6703 35.8824 94.0463 34.189 94.0463 30.0672V20.1303H91.7885V21.0491ZM88.9794 28.7677C88.1326 28.6931 87.3445 28.304 86.7705 27.6771C86.1964 27.0502 85.878 26.231 85.878 25.381C85.878 24.5309 86.1964 23.7118 86.7705 23.0849C87.3445 22.458 88.1326 22.0689 88.9794 21.9943C89.3992 22.0158 89.8105 22.1212 90.1889 22.3041C90.5674 22.487 90.9055 22.7439 91.1831 23.0595C91.4608 23.3751 91.6725 23.7431 91.8058 24.1418C91.9391 24.5405 91.9912 24.9618 91.9591 25.381C91.9949 25.8019 91.945 26.2258 91.8123 26.6269C91.6797 27.028 91.467 27.3981 91.1872 27.7146C90.9075 28.0312 90.5664 28.2878 90.1846 28.4688C89.8029 28.6498 89.3884 28.7515 88.9662 28.7677H88.9794ZM120.982 14.2232H115.115V30.6317H117.569V24.4096H120.996C121.695 24.4598 122.398 24.3654 123.059 24.1323C123.721 23.8991 124.327 23.5321 124.84 23.0542C125.354 22.5764 125.763 21.9979 126.043 21.3548C126.323 20.7117 126.468 20.0178 126.468 19.3164C126.468 18.615 126.323 17.9211 126.043 17.278C125.763 16.6349 125.354 16.0564 124.84 15.5786C124.327 15.1007 123.721 14.7337 123.059 14.5005C122.398 14.2674 121.695 14.1729 120.996 14.2232H120.982ZM120.982 22.0993H117.556V16.5073H121.035C121.782 16.5073 122.498 16.8039 123.026 17.332C123.554 17.86 123.851 18.5762 123.851 19.323C123.851 20.0697 123.554 20.7859 123.026 21.314C122.498 21.842 121.782 22.1387 121.035 22.1387L120.982 22.0993ZM136.118 19.7365C135.224 19.683 134.334 19.8919 133.558 20.3373C132.781 20.7827 132.152 21.4453 131.746 22.2437L133.925 23.1494C134.14 22.7535 134.466 22.4285 134.862 22.2141C135.258 21.9997 135.708 21.905 136.157 21.9418C136.469 21.9054 136.784 21.9314 137.086 22.0183C137.387 22.1052 137.668 22.2513 137.913 22.4481C138.157 22.6448 138.36 22.8882 138.509 23.1642C138.659 23.4401 138.751 23.743 138.782 24.0552V24.2258C137.994 23.8084 137.115 23.592 136.223 23.5957C133.873 23.5957 131.497 24.9084 131.497 27.2844C131.52 27.791 131.645 28.2878 131.863 28.7454C132.082 29.2031 132.39 29.6123 132.769 29.9488C133.149 30.2854 133.592 30.5424 134.072 30.7048C134.552 30.8672 135.061 30.9316 135.566 30.8942C136.184 30.9386 136.803 30.8158 137.358 30.5386C137.912 30.2615 138.381 29.8402 138.717 29.319H138.796V30.6317H141.158V24.3177C141.158 21.4429 138.979 19.7758 136.183 19.7758L136.118 19.7365ZM135.816 28.7283C135.015 28.7283 133.899 28.3214 133.899 27.3369C133.899 26.0242 135.291 25.591 136.525 25.591C137.304 25.5718 138.075 25.7622 138.756 26.1423C138.674 26.853 138.338 27.5101 137.81 27.9925C137.281 28.475 136.597 28.7503 135.881 28.7677L135.816 28.7283ZM149.77 20.1303L146.96 27.245H146.882L143.967 20.1303H141.342L145.713 30.0804L143.219 35.6067H145.779L152.5 20.1303H149.77ZM127.703 30.6317H130.158V14.2232H127.703V30.6317Z" fill="#2E2E2E"/>
<path d="M42.6158 9.98348H41.6445V7.35812H42.4714C42.8485 6.95854 43.1333 6.48105 43.3057 5.95938C43.4781 5.4377 43.5338 4.88455 43.4691 4.33896V0.440308H48.7198V7.345H49.5993V9.97035H48.6279V8.31638H42.6158V9.98348ZM44.4405 4.37834C44.5017 5.4372 44.2408 6.48978 43.6922 7.3975H47.6303V1.41169H44.4405V4.37834ZM57.4491 7.29249C56.6817 8.05561 55.6435 8.48397 54.5612 8.48397C53.479 8.48397 52.4407 8.05561 51.6733 7.29249C50.9274 6.50294 50.5119 5.45794 50.5119 4.37178C50.5119 3.28562 50.9274 2.24062 51.6733 1.45107C52.0516 1.07006 52.5015 0.767657 52.9971 0.561298C53.4927 0.354939 54.0243 0.2487 54.5612 0.2487C55.0981 0.2487 55.6297 0.354939 56.1253 0.561298C56.6209 0.767657 57.0709 1.07006 57.4491 1.45107C58.198 2.23911 58.6155 3.28468 58.6155 4.37178C58.6155 5.45888 58.198 6.50445 57.4491 7.29249ZM52.4215 6.63615C52.9898 7.20208 53.7592 7.51981 54.5612 7.51981C55.3632 7.51981 56.1326 7.20208 56.7009 6.63615C57.2617 6.0179 57.5724 5.21306 57.5724 4.37834C57.5724 3.54362 57.2617 2.73878 56.7009 2.12054C56.1326 1.55461 55.3632 1.23688 54.5612 1.23688C53.7592 1.23688 52.9898 1.55461 52.4215 2.12054C51.8607 2.73878 51.5501 3.54362 51.5501 4.37834C51.5501 5.21306 51.8607 6.0179 52.4215 6.63615ZM63.7106 8.48703C63.1687 8.4978 62.6302 8.39879 62.1276 8.19595C61.6249 7.99312 61.1686 7.69065 60.7859 7.30678C60.4033 6.92291 60.1023 6.46556 59.901 5.96228C59.6998 5.45901 59.6025 4.92021 59.615 4.37834C59.6025 3.83647 59.6998 3.29768 59.901 2.7944C60.1023 2.29113 60.4033 1.83378 60.7859 1.44991C61.1686 1.06603 61.6249 0.76357 62.1276 0.560735C62.6302 0.3579 63.1687 0.258889 63.7106 0.269661C64.2598 0.25606 64.805 0.367108 65.3052 0.594463C65.8054 0.821818 66.2476 1.15957 66.5985 1.58234L65.8896 2.26493C65.6303 1.93577 65.2961 1.67345 64.9147 1.4999C64.5333 1.32634 64.1159 1.24658 63.6974 1.26729C63.2945 1.25682 62.8937 1.3282 62.5191 1.47712C62.1446 1.62603 61.8041 1.84939 61.5184 2.13366C60.9493 2.75561 60.6336 3.56811 60.6336 4.41116C60.6336 5.25421 60.9493 6.06671 61.5184 6.68866C61.8041 6.97293 62.1446 7.19629 62.5191 7.3452C62.8937 7.49412 63.2945 7.5655 63.6974 7.55503C64.1595 7.5509 64.6148 7.44391 65.0303 7.24183C65.4458 7.03975 65.8111 6.74764 66.0997 6.38674L66.8085 7.09559C66.4512 7.52893 66.0031 7.87847 65.4958 8.11948C64.9355 8.37326 64.3256 8.49882 63.7106 8.48703ZM70.9303 8.31638H69.9195V1.41169H67.7143V0.440308H73.1225V1.41169H70.9303V8.31638ZM80.0797 0.440308L77.0999 7.08246C76.9806 7.47537 76.7423 7.82155 76.4178 8.07316C76.0933 8.32476 75.6986 8.46938 75.2884 8.48703C75.0171 8.48358 74.7492 8.42555 74.5008 8.31638L74.7633 7.38438C74.9228 7.47727 75.1038 7.52704 75.2884 7.52877C75.4813 7.54331 75.674 7.49743 75.8397 7.3975C75.9979 7.26363 76.1198 7.09208 76.1942 6.89869L76.4829 6.2686L73.8576 0.453435H75.0521L76.9949 4.96905L78.8851 0.440308H80.0797ZM81.2217 8.31638V0.440308H86.9187V8.31638H85.908V1.41169H82.2325V8.31638H81.2217ZM88.7171 8.31638V0.440308H89.7279V3.81389H93.6659V0.440308H94.6767V8.31638H93.6659V4.75902H89.7279V8.31638H88.7171ZM102.933 7.29249C102.166 8.05561 101.128 8.48397 100.046 8.48397C98.9633 8.48397 97.925 8.05561 97.1576 7.29249C96.4117 6.50294 95.9962 5.45794 95.9962 4.37178C95.9962 3.28562 96.4117 2.24062 97.1576 1.45107C97.5359 1.07006 97.9858 0.767657 98.4814 0.561298C98.9771 0.354939 99.5086 0.2487 100.046 0.2487C100.582 0.2487 101.114 0.354939 101.61 0.561298C102.105 0.767657 102.555 1.07006 102.933 1.45107C103.682 2.23911 104.1 3.28468 104.1 4.37178C104.1 5.45888 103.682 6.50445 102.933 7.29249ZM97.9059 6.63615C98.4742 7.20208 99.2435 7.51981 100.046 7.51981C100.848 7.51981 101.617 7.20208 102.185 6.63615C102.746 6.0179 103.057 5.21306 103.057 4.37834C103.057 3.54362 102.746 2.73878 102.185 2.12054C101.617 1.55461 100.848 1.23688 100.046 1.23688C99.2435 1.23688 98.4742 1.55461 97.9059 2.12054C97.345 2.73878 97.0344 3.54362 97.0344 4.37834C97.0344 5.21306 97.345 6.0179 97.9059 6.63615ZM108.224 8.31638V0.440308H111.072C111.663 0.429138 112.237 0.645259 112.673 1.04414C112.893 1.2345 113.068 1.47073 113.186 1.73613C113.304 2.00153 113.362 2.2896 113.356 2.57997C113.362 2.92988 113.261 3.27334 113.067 3.56448C112.875 3.84727 112.606 4.07016 112.293 4.2077C112.674 4.33374 113.007 4.57161 113.251 4.89029C113.503 5.2119 113.638 5.6104 113.632 6.01919C113.638 6.32181 113.578 6.62218 113.456 6.89897C113.333 7.17575 113.151 7.42215 112.923 7.62066C112.466 8.04227 111.864 8.27249 111.243 8.26387L108.224 8.31638ZM109.234 3.81389H111.072C111.244 3.82106 111.415 3.79071 111.573 3.72496C111.732 3.65922 111.875 3.55966 111.991 3.43322C112.107 3.32783 112.201 3.20012 112.267 3.05769C112.333 2.91527 112.369 2.76106 112.374 2.60425C112.379 2.44744 112.352 2.29125 112.295 2.145C112.238 1.99874 112.153 1.86542 112.043 1.75299C111.934 1.6289 111.798 1.53048 111.646 1.46469C111.494 1.3989 111.329 1.36736 111.164 1.37231H109.287L109.234 3.81389ZM109.234 7.345H111.269C111.447 7.35096 111.624 7.31758 111.787 7.24723C111.95 7.17689 112.096 7.07132 112.214 6.93807C112.445 6.69801 112.577 6.37887 112.582 6.04545C112.582 5.6973 112.443 5.36342 112.197 5.11724C111.951 4.87107 111.617 4.73277 111.269 4.73277H109.274L109.234 7.345Z" fill="#2E2E2E"/>
<path fill-rule="evenodd" clip-rule="evenodd" d="M54.5612 0.379967C54.0416 0.379967 53.5272 0.48278 53.0476 0.682482C52.5684 0.881976 52.1334 1.17422 51.7676 1.5424C51.0454 2.30744 50.6431 3.31968 50.6431 4.37178C50.6431 5.42373 51.0453 6.43585 51.7673 7.20085C52.51 7.93861 53.5143 8.3527 54.5612 8.3527C55.6081 8.3527 56.6125 7.93857 57.3552 7.20073C58.0801 6.43725 58.4842 5.42461 58.4842 4.37178C58.4842 3.31881 58.08 2.30605 57.3549 1.54253C56.9891 1.17429 56.5541 0.882001 56.0749 0.682482C55.5952 0.48278 55.0808 0.379967 54.5612 0.379967ZM52.9467 0.440114C53.4583 0.227099 54.007 0.117432 54.5612 0.117432C55.1154 0.117432 55.6641 0.227099 56.1758 0.440114C56.6874 0.65313 57.1518 0.965285 57.5423 1.35859L57.5443 1.36062C58.3163 2.17306 58.7468 3.25102 58.7468 4.37178C58.7468 5.49254 58.3163 6.57048 57.5443 7.38291L57.5417 7.38561C56.7497 8.17319 55.6781 8.61524 54.5612 8.61524C53.4443 8.61524 52.3727 8.17315 51.5808 7.38557L51.5778 7.38268C50.8089 6.56876 50.3806 5.49147 50.3806 4.37178C50.3806 3.2521 50.809 2.17484 51.5779 1.36093L51.5801 1.35856C51.9706 0.965257 52.435 0.65313 52.9467 0.440114ZM100.046 0.379967C99.526 0.379967 99.0115 0.48278 98.5319 0.682482C98.0527 0.881964 97.6178 1.17418 97.252 1.54233C96.5298 2.30738 96.1274 3.31966 96.1274 4.37178C96.1274 5.42374 96.5297 6.43586 97.2517 7.20086C97.9943 7.93861 98.9987 8.3527 100.046 8.3527C101.092 8.3527 102.097 7.93854 102.84 7.20065C103.564 6.43717 103.969 5.42457 103.969 4.37178C103.969 3.31883 103.564 2.30609 102.839 1.54257C102.473 1.17431 102.038 0.882007 101.559 0.682482C101.08 0.48278 100.565 0.379967 100.046 0.379967ZM98.431 0.440114C98.9426 0.227099 99.4913 0.117432 100.046 0.117432C100.6 0.117432 101.148 0.227099 101.66 0.440114C102.172 0.65313 102.636 0.965285 103.027 1.35859L103.029 1.36062C103.801 2.17308 104.231 3.25102 104.231 4.37178C104.231 5.49254 103.801 6.57048 103.029 7.38291L103.026 7.38561C102.234 8.17319 101.162 8.61524 100.046 8.61524C98.9286 8.61524 97.8571 8.17315 97.0651 7.38557L97.0622 7.38268C96.2932 6.56876 95.8649 5.49147 95.8649 4.37178C95.8649 3.2521 96.2933 2.17484 97.0622 1.36093L97.0644 1.35856C97.4549 0.965257 97.9193 0.653131 98.431 0.440114ZM65.2509 0.713965C64.7688 0.494817 64.2433 0.387779 63.7138 0.400888L63.708 0.401034C63.1838 0.390614 62.6629 0.486258 62.1767 0.682465C61.6905 0.878671 61.249 1.17125 60.8789 1.54258C60.5087 1.91391 60.2176 2.35631 60.0229 2.84314C59.8283 3.32997 59.7342 3.85115 59.7463 4.37531L59.7464 4.38138C59.7343 4.90554 59.8283 5.42672 60.0229 5.91355C60.2176 6.40038 60.5087 6.84278 60.8789 7.21411C61.249 7.58544 61.6905 7.87802 62.1767 8.07422C62.6629 8.27043 63.1838 8.3662 63.708 8.35578L63.7106 8.48703L63.7131 8.35578C64.3082 8.3672 64.8983 8.24579 65.4405 8.00041C65.8941 7.78473 66.2987 7.47919 66.63 7.10273L66.1082 6.58095C65.8237 6.90564 65.4769 7.17063 65.0877 7.35988C64.655 7.57032 64.1809 7.68182 63.6997 7.68628C63.2794 7.69705 62.8613 7.62252 62.4706 7.46718C62.0796 7.31171 61.7241 7.07852 61.4258 6.78172L61.4215 6.77737C60.8302 6.13123 60.5023 5.28702 60.5023 4.41116C60.5023 3.5353 60.8303 2.69119 61.4216 2.04505L61.4257 2.0405C61.724 1.7437 62.0796 1.51061 62.4706 1.35514C62.8601 1.20027 63.2769 1.12572 63.6959 1.13595C64.1337 1.11507 64.5701 1.19887 64.9691 1.38042C65.3255 1.54265 65.6428 1.77874 65.9003 2.07244L66.4181 1.57383C66.0935 1.20934 65.696 0.916297 65.2509 0.713965ZM63.7106 8.61832C63.1519 8.62908 62.5967 8.52683 62.0784 8.31768C61.5594 8.10822 61.0881 7.79587 60.6929 7.39945C60.2978 7.00303 59.9869 6.53074 59.7791 6.01102C59.5717 5.49223 59.4712 4.9369 59.4837 4.37834C59.4712 3.81979 59.5717 3.26445 59.7791 2.74567C59.9869 2.22595 60.2978 1.75365 60.6929 1.35723C61.0881 0.960816 61.5594 0.64847 62.0784 0.439005C62.5966 0.229907 63.1516 0.127652 63.7103 0.138362C64.2784 0.124737 64.8422 0.239802 65.3595 0.474961C65.8778 0.710524 66.3359 1.06047 66.6995 1.4985L66.7773 1.59232L65.8762 2.46006L65.7865 2.34616C65.5402 2.03346 65.2226 1.78425 64.8603 1.61937C64.498 1.45449 64.1015 1.37872 63.7039 1.3984L63.694 1.39889C63.3089 1.38888 62.9257 1.45674 62.5676 1.5991C62.2105 1.74107 61.8859 1.95383 61.6132 2.22455C61.0675 2.822 60.7649 3.60194 60.7649 4.41116C60.7649 5.22038 61.0675 6.00032 61.6132 6.59777C61.8859 6.86849 62.2105 7.08125 62.5676 7.22322C62.9257 7.36558 63.3089 7.43381 63.694 7.4238L63.6963 7.42376C64.1388 7.41981 64.5749 7.31734 64.9729 7.12378C65.3709 6.93022 65.7208 6.65045 65.9971 6.30477L66.0887 6.19018L66.9856 7.08708L66.9098 7.17909C66.5403 7.62727 66.0768 7.98879 65.5522 8.23805L65.55 8.23907C64.9726 8.50056 64.3443 8.63009 63.7106 8.61832ZM112.585 1.14107C112.173 0.764859 111.632 0.561017 111.075 0.571552L111.072 0.571576H108.355V8.18281L111.24 8.13262L111.244 8.13262C111.833 8.14077 112.402 7.923 112.834 7.52417L112.837 7.52152C113.051 7.33566 113.221 7.10499 113.336 6.84584C113.451 6.58668 113.507 6.30544 113.501 6.0221L113.5 6.01723C113.506 5.6385 113.382 5.26929 113.148 4.97133L113.147 4.97C112.919 4.67229 112.607 4.45007 112.252 4.33231L111.927 4.22488L112.24 4.0875C112.531 3.95996 112.78 3.75334 112.958 3.49119C113.138 3.22237 113.231 2.9053 113.225 2.58228V2.5774C113.23 2.30626 113.176 2.03726 113.066 1.78944C112.956 1.54162 112.792 1.32103 112.587 1.14328L112.585 1.14107ZM112.761 0.946139C112.3 0.525558 111.695 0.297575 111.071 0.30904H108.092V8.44995L111.241 8.39513L111.243 8.39515C111.897 8.40369 112.529 8.16156 113.01 7.71846C113.253 7.50754 113.446 7.24591 113.576 6.9521C113.706 6.65843 113.77 6.33981 113.763 6.01875L113.763 6.02115L113.632 6.01919L113.763 6.01628L113.763 6.01875C113.769 5.58102 113.625 5.15439 113.355 4.80988C113.154 4.54743 112.896 4.33645 112.601 4.19222C112.828 4.04959 113.024 3.86137 113.176 3.63841L113.176 3.63732C113.385 3.32463 113.493 2.95586 113.487 2.58007L113.487 2.58254L113.356 2.57997L113.487 2.57766L113.487 2.58007C113.493 2.2713 113.431 1.96504 113.306 1.68282C113.18 1.40037 112.994 1.14891 112.761 0.946139ZM43.3378 0.30904H48.8511V7.21373H49.7306V10.1016H48.4966V8.44765H42.7471V10.1147H41.5132V7.22686H42.4142C42.7592 6.84978 43.0206 6.40383 43.181 5.91819C43.3474 5.41476 43.4012 4.88095 43.3387 4.35443L43.3378 4.34673V0.30904ZM43.6003 0.571576V4.33127C43.6659 4.89341 43.6079 5.46313 43.4303 6.00056C43.2519 6.54048 42.9572 7.03466 42.5669 7.44822L42.5281 7.48939H41.7757V9.85221H42.4846V8.18511H48.7592V9.83909H49.468V7.47626H48.5885V0.571576H43.6003ZM67.583 0.30904H73.2537V1.54296H71.0616V8.44765H69.7883V1.54296H67.583V0.30904ZM67.8455 0.571576V1.28042H70.0508V8.18511H70.799V1.28042H72.9912V0.571576H67.8455ZM78.7977 0.30904H80.2824L77.223 7.1287C77.095 7.54429 76.842 7.91036 76.4982 8.17689C76.1522 8.44516 75.7314 8.59936 75.294 8.61817L75.2867 8.61849C74.9978 8.61482 74.7125 8.55281 74.448 8.43656L74.3435 8.39064L74.6829 7.18566L74.8294 7.27094C74.9692 7.35237 75.1278 7.39599 75.2896 7.39751L75.2983 7.39759C75.4606 7.40982 75.6227 7.37257 75.763 7.29041C75.9004 7.17181 76.0064 7.02107 76.0716 6.85156L76.0746 6.84389L76.3387 6.26819L73.6543 0.322167H75.1385L76.9931 4.63265L78.7977 0.30904ZM78.9726 0.571576L76.9967 5.30545L74.9657 0.584703H74.0609L76.6272 6.26901L76.3151 6.94975C76.2327 7.16211 76.0984 7.35049 75.9245 7.49769L75.9165 7.50448L75.9075 7.50991C75.7197 7.62316 75.5015 7.67556 75.2829 7.65999C75.1328 7.65803 74.985 7.62785 74.847 7.57151L74.659 8.23879C74.8598 8.31295 75.0719 8.35258 75.2864 8.35572C75.6682 8.33854 76.0353 8.20361 76.3373 7.96942C76.6404 7.73448 76.8629 7.41123 76.9743 7.04433L76.9767 7.03635L79.8769 0.571576H78.9726ZM81.0904 0.30904H87.05V8.44765H85.7767V1.54296H82.3637V8.44765H81.0904V0.30904ZM81.353 0.571576V8.18511H82.1012V1.28042H86.0392V8.18511H86.7875V0.571576H81.353ZM88.5858 0.30904H89.8591V3.68262H93.5346V0.30904H94.8079V8.44765H93.5346V4.89029H89.8591V8.44765H88.5858V0.30904ZM88.8484 0.571576V8.18511H89.5966V4.62775H93.7972V8.18511H94.5454V0.571576H93.7972V3.94516H89.5966V0.571576H88.8484ZM52.3289 2.02752C52.9218 1.4371 53.7245 1.10561 54.5612 1.10561C55.3979 1.10561 56.2006 1.4371 56.7935 2.02752L56.7982 2.03223C57.381 2.67462 57.7036 3.51102 57.7036 4.37834C57.7036 5.24567 57.3808 6.08195 56.7981 6.72435L56.7936 6.72928C56.2007 7.31971 55.3979 7.65108 54.5612 7.65108C53.7245 7.65108 52.9218 7.31959 52.3289 6.72916L52.4215 6.63615L52.3243 6.72435C51.7416 6.08195 51.4188 5.24567 51.4188 4.37834C51.4188 3.51102 51.7416 2.67474 52.3243 2.03234L52.3289 2.02752ZM52.5165 6.54548C53.06 7.08544 53.795 7.38854 54.5612 7.38854C55.3274 7.38854 56.0624 7.08544 56.6059 6.54548C57.1434 5.95171 57.4411 5.17934 57.4411 4.37834C57.4411 3.57734 57.1434 2.80497 56.6059 2.21121C56.0624 1.67125 55.3274 1.36814 54.5612 1.36814C53.795 1.36814 53.06 1.67125 52.5165 2.21121C51.979 2.80497 51.6813 3.57734 51.6813 4.37834C51.6813 5.17934 51.979 5.95171 52.5165 6.54548ZM97.8132 2.02752C98.4061 1.4371 99.2088 1.10561 100.046 1.10561C100.882 1.10561 101.685 1.4371 102.278 2.02752L102.283 2.03223C102.865 2.67462 103.188 3.51102 103.188 4.37834C103.188 5.24567 102.865 6.08195 102.282 6.72435L102.278 6.72928C101.685 7.31971 100.882 7.65108 100.046 7.65108C99.2088 7.65108 98.4061 7.31959 97.8132 6.72916L97.9059 6.63615L97.8086 6.72435C97.2259 6.08195 96.9031 5.24567 96.9031 4.37834C96.9031 3.51102 97.2259 2.67474 97.8086 2.03234L97.8132 2.02752ZM98.0009 6.5455C98.5443 7.08545 99.2793 7.38854 100.046 7.38854C100.812 7.38854 101.547 7.08545 102.09 6.5455C102.628 5.95173 102.925 5.17935 102.925 4.37834C102.925 3.57734 102.628 2.80496 102.09 2.21119C101.547 1.67124 100.812 1.36814 100.046 1.36814C99.2793 1.36814 98.5443 1.67124 98.0009 2.21119C97.4633 2.80496 97.1656 3.57734 97.1656 4.37834C97.1656 5.17935 97.4633 5.95173 98.0009 6.5455ZM111.162 1.24104C111.346 1.23583 111.529 1.27105 111.698 1.34422C111.867 1.41726 112.018 1.52632 112.14 1.66376C112.26 1.78834 112.355 1.93582 112.418 2.0975C112.481 2.26018 112.51 2.43392 112.505 2.60835C112.5 2.78277 112.459 2.95431 112.386 3.11274C112.314 3.26937 112.211 3.41001 112.083 3.52645C111.955 3.66486 111.798 3.77395 111.624 3.84624C111.448 3.91893 111.259 3.95267 111.069 3.94516H109.1L109.158 1.24104H111.162ZM111.594 1.58516C111.46 1.52702 111.314 1.49915 111.168 1.50352L111.164 1.50358H109.415L109.368 3.68262H111.077C111.23 3.68899 111.382 3.66213 111.523 3.60369C111.664 3.54525 111.791 3.45675 111.894 3.34436L111.898 3.33997L111.903 3.33597C112.006 3.24243 112.089 3.12906 112.148 3.00264C112.206 2.87623 112.238 2.73934 112.243 2.60015C112.247 2.46096 112.223 2.32232 112.173 2.1925C112.122 2.06268 112.046 1.94433 111.949 1.84453L111.945 1.84003C111.848 1.73037 111.728 1.64329 111.594 1.58516ZM44.3092 1.28042H47.7615V7.52877H43.4595L43.5799 7.3296C44.1148 6.44458 44.3691 5.41831 44.3094 4.38592L44.309 4.37834L44.3092 1.28042ZM44.5717 1.54296V4.37457C44.6293 5.38202 44.4024 6.38378 43.9192 7.26624H47.499V1.54296H44.5717ZM109.144 4.6015H111.269C111.652 4.6015 112.019 4.75363 112.29 5.02442C112.561 5.29521 112.713 5.66249 112.713 6.04545L112.713 6.04729C112.708 6.41316 112.564 6.76339 112.31 7.02723C112.18 7.17392 112.019 7.29019 111.839 7.3678C111.658 7.44549 111.463 7.48252 111.267 7.47626H109.101L109.144 4.6015ZM109.403 4.86404L109.368 7.21373H111.273C111.432 7.21905 111.589 7.18936 111.735 7.12666C111.881 7.06397 112.011 6.96987 112.116 6.8511L112.119 6.84687C112.328 6.63104 112.446 6.34425 112.45 6.04449C112.45 5.73151 112.326 5.4314 112.104 5.21006C111.883 4.9885 111.582 4.86404 111.269 4.86404H109.403Z" fill="#2E2E2E"/>
<path d="M1.18127 34.174L17.2623 17.4948L1.19474 0.845459C0.76558 1.10467 0.5 1.70484 0.5 2.49046V32.545C0.505756 33.3306 0.761731 33.8869 1.18127 34.174Z" fill="#2E2E2E"/>
<path d="M17.8382 17.0342L22.6283 12.0653L3.1216 0.971052C2.79314 0.773101 2.42003 0.668542 2.04004 0.667969L17.8363 17.0321L17.8382 17.0342Z" fill="#2E2E2E"/>
<path d="M17.8385 17.9573L1.99219 34.3933C2.38991 34.4001 2.78167 34.2925 3.12379 34.0822L22.669 22.9581L17.8385 17.9573Z" fill="#2E2E2E"/>
<path d="M29.695 16.0911L23.2036 12.3923L18.2827 17.4968L23.2402 22.6332L29.693 18.9444C31.0652 18.1608 31.0652 16.8707 29.695 16.0911Z" fill="#2E2E2E"/>
</svg>
