<svg width="143" height="38" viewBox="0 0 143 38" fill="none" xmlns="http://www.w3.org/2000/svg">
<path d="M22.8942 17.6578C22.8565 13.463 26.3289 11.4222 26.4877 11.3272C24.5211 8.45998 21.4729 8.06822 20.4018 8.03699C17.8417 7.76757 15.3584 9.56887 14.0543 9.56887C12.7242 9.56887 10.7159 8.06302 8.55153 8.10727C5.76629 8.15022 3.16067 9.76279 1.73161 12.2669C-1.21762 17.3727 0.981936 24.876 3.80752 29.0031C5.22096 31.0243 6.87258 33.2811 9.03439 33.2017C11.1494 33.1145 11.9394 31.8534 14.4916 31.8534C17.0205 31.8534 17.7623 33.2017 19.9671 33.151C22.2369 33.1145 23.666 31.1206 25.03 29.0811C26.6634 26.7645 27.3193 24.4829 27.3454 24.3658C27.292 24.3475 22.9371 22.6855 22.8942 17.6578Z" fill="#2E2E2E"/>
<path d="M18.7292 5.32188C19.8667 3.89933 20.645 1.96398 20.429 0C18.7826 0.0728847 16.7236 1.13882 15.5379 2.53014C14.4889 3.75617 13.5518 5.7657 13.7939 7.6555C15.6433 7.79346 17.5422 6.72231 18.7292 5.32188Z" fill="#2E2E2E"/>
<path d="M53.5014 32.9111H50.5457L48.9266 27.8235H43.2988L41.7565 32.9111H38.8789L44.4546 15.5906H47.8984L53.5014 32.9111ZM48.4385 25.689L46.9743 21.1663C46.8194 20.7042 46.5292 19.6162 46.101 17.9034H46.0489C45.8784 18.64 45.6038 19.7281 45.2264 21.1663L43.7882 25.689H48.4385Z" fill="#2E2E2E"/>
<path d="M67.8398 26.5128C67.8398 28.6368 67.2658 30.3158 66.1179 31.5483C65.0897 32.6455 63.8129 33.1934 62.2888 33.1934C60.6437 33.1934 59.4619 32.6025 58.7422 31.4208H58.6901V37.9999H55.9153V24.5332C55.9153 23.1978 55.8802 21.8273 55.8125 20.4217H58.2528L58.4077 22.4013H58.4598C59.3852 20.9097 60.7895 20.1653 62.6741 20.1653C64.1474 20.1653 65.3773 20.7471 66.3613 21.9119C67.3478 23.0781 67.8398 24.6112 67.8398 26.5128ZM65.0129 26.6143C65.0129 25.3987 64.7396 24.3965 64.1903 23.6078C63.5903 22.7852 62.7847 22.374 61.7747 22.374C61.0901 22.374 60.468 22.603 59.9123 23.0546C59.3552 23.5102 58.9908 24.105 58.8203 24.8416C58.7344 25.1852 58.6914 25.4663 58.6914 25.6876V27.77C58.6914 28.6785 58.97 29.4451 59.527 30.0711C60.0841 30.6971 60.8077 31.0095 61.6979 31.0095C62.7431 31.0095 63.5565 30.606 64.1383 29.8017C64.7214 28.996 65.0129 27.934 65.0129 26.6143Z" fill="#2E2E2E"/>
<path d="M82.2052 26.5128C82.2052 28.6368 81.6312 30.3158 80.482 31.5483C79.4551 32.6455 78.1783 33.1934 76.6542 33.1934C75.0091 33.1934 73.8273 32.6025 73.1089 31.4208H73.0568V37.9999H70.282V24.5332C70.282 23.1978 70.2469 21.8273 70.1792 20.4217H72.6195L72.7744 22.4013H72.8265C73.7505 20.9097 75.1549 20.1653 77.0408 20.1653C78.5128 20.1653 79.7427 20.7471 80.7293 21.9119C81.7119 23.0781 82.2052 24.6112 82.2052 26.5128ZM79.3783 26.6143C79.3783 25.3987 79.1037 24.3965 78.5544 23.6078C77.9544 22.7852 77.1514 22.374 76.1401 22.374C75.4542 22.374 74.8334 22.603 74.2764 23.0546C73.7193 23.5102 73.3562 24.105 73.1857 24.8416C73.1011 25.1852 73.0568 25.4663 73.0568 25.6876V27.77C73.0568 28.6785 73.3354 29.4451 73.8898 30.0711C74.4469 30.6958 75.1705 31.0095 76.0633 31.0095C77.1085 31.0095 77.9219 30.606 78.5037 29.8017C79.0868 28.996 79.3783 27.934 79.3783 26.6143Z" fill="#2E2E2E"/>
<path d="M98.2658 28.054C98.2658 29.5273 97.7543 30.726 96.7274 31.6514C95.599 32.6626 94.0281 33.1676 92.0094 33.1676C90.1457 33.1676 88.6515 32.8084 87.5205 32.0887L88.1635 29.7759C89.3817 30.5125 90.7183 30.8822 92.1747 30.8822C93.2198 30.8822 94.0333 30.6453 94.6177 30.1742C95.1994 29.703 95.4897 29.0705 95.4897 28.2818C95.4897 27.5789 95.2502 26.9868 94.7699 26.5065C94.2923 26.0262 93.4945 25.5798 92.3804 25.1672C89.3478 24.0362 87.8329 22.3794 87.8329 20.2007C87.8329 18.7768 88.3639 17.6094 89.4272 16.7009C90.4867 15.7911 91.9001 15.3369 93.6676 15.3369C95.2437 15.3369 96.553 15.6115 97.5981 16.1595L96.9044 18.4215C95.9283 17.8905 94.8246 17.625 93.5895 17.625C92.6133 17.625 91.8506 17.8658 91.304 18.3447C90.842 18.7729 90.6103 19.2948 90.6103 19.913C90.6103 20.5976 90.8745 21.1638 91.4055 21.6089C91.8676 22.0202 92.707 22.4653 93.9253 22.9456C95.4155 23.5456 96.5101 24.2471 97.2142 25.0514C97.9157 25.8531 98.2658 26.8566 98.2658 28.054Z" fill="#2E2E2E"/>
<path d="M107.44 22.5041H104.381V28.5679C104.381 30.1102 104.92 30.8807 106.001 30.8807C106.496 30.8807 106.908 30.8377 107.233 30.7518L107.31 32.859C106.763 33.0633 106.043 33.1661 105.152 33.1661C104.056 33.1661 103.2 32.8317 102.581 32.164C101.966 31.495 101.656 30.3731 101.656 28.797V22.5015H99.834V20.4191H101.656V18.1324L104.381 17.3098V20.4191H107.44V22.5041Z" fill="#2E2E2E"/>
<path d="M121.24 26.5637C121.24 28.4834 120.691 30.0595 119.595 31.2921C118.445 32.5611 116.92 33.1936 115.019 33.1936C113.186 33.1936 111.727 32.5858 110.639 31.3702C109.551 30.1546 109.007 28.6201 109.007 26.7706C109.007 24.8353 109.566 23.25 110.69 22.0175C111.81 20.7837 113.323 20.1667 115.224 20.1667C117.057 20.1667 118.531 20.7746 119.644 21.9915C120.709 23.1719 121.24 24.696 121.24 26.5637ZM118.361 26.6535C118.361 25.5016 118.115 24.5138 117.616 23.6899C117.035 22.693 116.203 22.1958 115.125 22.1958C114.01 22.1958 113.163 22.6943 112.581 23.6899C112.082 24.5151 111.836 25.5186 111.836 26.7055C111.836 27.8574 112.082 28.8452 112.581 29.6678C113.181 30.6647 114.019 31.1619 115.101 31.1619C116.16 31.1619 116.992 30.6543 117.592 29.6418C118.103 28.8023 118.361 27.804 118.361 26.6535Z" fill="#2E2E2E"/>
<path d="M130.259 22.862C129.984 22.8113 129.692 22.7852 129.384 22.7852C128.408 22.7852 127.653 23.1536 127.122 23.8915C126.66 24.5423 126.429 25.3648 126.429 26.3579V32.911H123.655L123.681 24.3549C123.681 22.9154 123.646 21.6048 123.577 20.423H125.994L126.096 22.8126H126.172C126.465 21.9913 126.927 21.3301 127.56 20.8343C128.178 20.3878 128.846 20.1653 129.565 20.1653C129.822 20.1653 130.053 20.1835 130.259 20.216V22.862Z" fill="#2E2E2E"/>
<path d="M142.669 26.0757C142.669 26.5729 142.637 26.9919 142.568 27.3342H134.243C134.276 28.5681 134.678 29.5117 135.451 30.1624C136.152 30.7442 137.06 31.0357 138.174 31.0357C139.406 31.0357 140.531 30.8392 141.542 30.4449L141.977 32.3711C140.795 32.8865 139.4 33.1429 137.79 33.1429C135.853 33.1429 134.333 32.5728 133.227 31.434C132.123 30.2952 131.57 28.7659 131.57 26.8475C131.57 24.9642 132.084 23.3959 133.113 22.1451C134.191 20.8098 135.647 20.1421 137.48 20.1421C139.28 20.1421 140.643 20.8098 141.568 22.1451C142.301 23.2058 142.669 24.5178 142.669 26.0757ZM140.023 25.3559C140.041 24.5334 139.86 23.8228 139.484 23.2228C139.004 22.451 138.266 22.0657 137.273 22.0657C136.366 22.0657 135.628 22.4419 135.064 23.1967C134.602 23.7967 134.328 24.5165 134.243 25.3546H140.023V25.3559Z" fill="#2E2E2E"/>
<path d="M48.8269 11.3579H47.3835V9.20485H41.6161V11.3579H40.1487L40.1006 7.99003H40.8042C41.153 7.65324 41.4317 7.1641 41.6402 6.52261C41.8487 5.87711 41.983 5.14741 42.0431 4.33352L42.2716 0.448486H47.7925V7.99003H48.9051L48.8269 11.3579ZM42.5242 7.99003H46.277V1.67534H43.721L43.5767 4.14107C43.4684 5.78891 43.1176 7.07189 42.5242 7.99003Z" fill="#2E2E2E"/>
<path d="M50.2486 5.89114C50.2486 5.25366 50.3749 4.68033 50.6275 4.17114C50.8801 3.65795 51.2349 3.26504 51.6919 2.9924C52.149 2.71576 52.6742 2.57744 53.2676 2.57744C54.1457 2.57744 54.8573 2.8601 55.4026 3.42541C55.9519 3.99072 56.2485 4.74047 56.2926 5.67464L56.2987 6.01744C56.2987 6.65893 56.1744 7.23226 55.9258 7.73744C55.6812 8.24261 55.3284 8.63352 54.8673 8.91017C54.4103 9.18681 53.881 9.32513 53.2796 9.32513C52.3615 9.32513 51.6258 9.02042 51.0725 8.411C50.5232 7.79758 50.2486 6.98168 50.2486 5.96331V5.89114ZM51.71 6.01744C51.71 6.687 51.8483 7.21222 52.125 7.5931C52.4016 7.96998 52.7865 8.15842 53.2796 8.15842C53.7728 8.15842 54.1557 7.96597 54.4283 7.58107C54.705 7.19618 54.8433 6.63287 54.8433 5.89114C54.8433 5.23361 54.7009 4.7124 54.4163 4.32751C54.1356 3.94261 53.7527 3.75016 53.2676 3.75016C52.7905 3.75016 52.4116 3.94061 52.131 4.32149C51.8503 4.69837 51.71 5.26369 51.71 6.01744Z" fill="#2E2E2E"/>
<path d="M60.8236 8.15842C61.1884 8.15842 61.4911 8.05217 61.7317 7.83968C61.9723 7.62718 62.1006 7.36457 62.1166 7.05184H63.4938C63.4778 7.45679 63.3515 7.83567 63.1149 8.18849C62.8784 8.5373 62.5576 8.81394 62.1527 9.01842C61.7477 9.22289 61.3107 9.32513 60.8416 9.32513C59.9315 9.32513 59.2098 9.03045 58.6766 8.44107C58.1434 7.8517 57.8767 7.03781 57.8767 5.9994V5.84905C57.8767 4.85874 58.1413 4.0669 58.6706 3.47352C59.1998 2.87613 59.9215 2.57744 60.8356 2.57744C61.6094 2.57744 62.2389 2.80396 62.724 3.25702C63.2131 3.70606 63.4697 4.29744 63.4938 5.03114H62.1166C62.1006 4.65828 61.9723 4.35156 61.7317 4.111C61.4951 3.87044 61.1924 3.75016 60.8236 3.75016C60.3505 3.75016 59.9856 3.92257 59.729 4.26737C59.4724 4.60816 59.3421 5.12737 59.3381 5.82499V6.05954C59.3381 6.76518 59.4644 7.2924 59.717 7.64121C59.9736 7.98602 60.3425 8.15842 60.8236 8.15842Z" fill="#2E2E2E"/>
<path d="M70.3341 3.85842H68.2232V9.20485H66.7618V3.85842H64.6749V2.69772H70.3341V3.85842Z" fill="#2E2E2E"/>
<path d="M74.2757 7.11198L75.5987 2.69772H77.1564L74.5704 10.1911C74.1734 11.2857 73.4999 11.833 72.5497 11.833C72.3372 11.833 72.1026 11.7969 71.846 11.7247V10.5941L72.1227 10.6121C72.4915 10.6121 72.7682 10.544 72.9526 10.4076C73.141 10.2753 73.2894 10.0508 73.3976 9.73408L73.6081 9.17478L71.3228 2.69772H72.8985L74.2757 7.11198Z" fill="#2E2E2E"/>
<path d="M84.135 9.20485H82.6736V3.87646H80.1357V9.20485H78.6743V2.69772H84.135V9.20485Z" fill="#2E2E2E"/>
<path d="M91.8173 9.20485H90.3559V6.57674H87.824V9.20485H86.3626V2.69772H87.824V5.41003H90.3559V2.69772H91.8173V9.20485Z" fill="#2E2E2E"/>
<path d="M93.7201 5.89114C93.7201 5.25366 93.8464 4.68033 94.099 4.17114C94.3516 3.65795 94.7064 3.26504 95.1635 2.9924C95.6205 2.71576 96.1457 2.57744 96.7391 2.57744C97.6172 2.57744 98.3288 2.8601 98.8741 3.42541C99.4234 3.99072 99.7201 4.74047 99.7642 5.67464L99.7702 6.01744C99.7702 6.65893 99.6459 7.23226 99.3973 7.73744C99.1527 8.24261 98.7999 8.63352 98.3388 8.91017C97.8818 9.18681 97.3525 9.32513 96.7511 9.32513C95.833 9.32513 95.0973 9.02042 94.544 8.411C93.9947 7.79758 93.7201 6.98168 93.7201 5.96331V5.89114ZM95.1815 6.01744C95.1815 6.687 95.3198 7.21222 95.5965 7.5931C95.8731 7.96998 96.258 8.15842 96.7511 8.15842C97.2443 8.15842 97.6272 7.96597 97.8998 7.58107C98.1765 7.19618 98.3148 6.63287 98.3148 5.89114C98.3148 5.23361 98.1725 4.7124 97.8878 4.32751C97.6071 3.94261 97.2242 3.75016 96.7391 3.75016C96.262 3.75016 95.8831 3.94061 95.6025 4.32149C95.3218 4.69837 95.1815 5.26369 95.1815 6.01744Z" fill="#2E2E2E"/>
<path d="M105.416 9.20485V2.69772H108.056C108.946 2.69772 109.624 2.85408 110.089 3.16681C110.554 3.47553 110.787 3.92056 110.787 4.50191C110.787 4.80261 110.692 5.07324 110.504 5.3138C110.32 5.55035 110.045 5.73278 109.68 5.86107C110.105 5.94928 110.442 6.12769 110.69 6.39632C110.939 6.66494 111.063 6.98168 111.063 7.34653C111.063 7.95194 110.839 8.41301 110.39 8.72975C109.945 9.04648 109.303 9.20485 108.465 9.20485H105.416ZM106.877 6.4324V8.05017H108.477C109.227 8.05017 109.602 7.78154 109.602 7.24429C109.602 6.70303 109.221 6.4324 108.459 6.4324H106.877ZM106.877 5.38597H108.08C108.91 5.38597 109.325 5.1414 109.325 4.65226C109.325 4.13907 108.932 3.87445 108.146 3.85842H106.877V5.38597Z" fill="#2E2E2E"/>
</svg>
