<svg width="24" height="24" viewBox="0 0 24 24" fill="none" xmlns="http://www.w3.org/2000/svg">
<path d="M2 3V3C4.00941 3 5.74023 4.41661 6.13746 6.38637L7.76909 14.4771C7.84807 14.8718 8.06438 15.2263 8.38015 15.4785C8.69593 15.7308 9.09106 15.8649 9.49636 15.8571H17.8909C18.2962 15.8649 18.6913 15.7308 19.0071 15.4785C19.3229 15.2263 19.5392 14.8718 19.6182 14.4771L21 7.28571H6.31818M9.77273 20.1429C9.77273 20.6162 9.38606 21 8.90909 21C8.43212 21 8.04545 20.6162 8.04545 20.1429C8.04545 19.6695 8.43212 19.2857 8.90909 19.2857C9.38606 19.2857 9.77273 19.6695 9.77273 20.1429ZM19.2727 20.1429C19.2727 20.6162 18.8861 21 18.4091 21C17.9321 21 17.5455 20.6162 17.5455 20.1429C17.5455 19.6695 17.9321 19.2857 18.4091 19.2857C18.8861 19.2857 19.2727 19.6695 19.2727 20.1429Z" stroke="#2E2E2E" stroke-width="2" stroke-linecap="round" stroke-linejoin="round"/>
</svg>
