<svg width="48" height="48" viewBox="0 0 48 48" fill="none" xmlns="http://www.w3.org/2000/svg">
<path d="M14.6693 43.9997H8.26772C7.13585 43.9997 6.05034 43.5572 5.24999 42.7696C4.44963 41.9819 4 40.9137 4 39.7998V25.0999C4 23.9859 4.44963 22.9177 5.24999 22.13C6.05034 21.3424 7.13585 20.8999 8.26772 20.8999H14.6693M29.6063 8.29996V14.6999C29.6063 15.8045 30.5017 16.6999 31.6063 16.6999H41.684C42.3026 16.693 42.9153 16.8186 43.4797 17.0679C44.0442 17.3172 44.5468 17.6842 44.9527 18.1437C45.3587 18.6031 45.6583 19.1439 45.8308 19.7286C46.0033 20.3133 46.0445 20.9279 45.9517 21.5299L43.0069 40.4298C42.8526 41.4312 42.3357 42.3441 41.5515 43.0001C40.7672 43.6562 39.7684 44.0112 38.7392 43.9997H16.6693C15.5647 43.9997 14.6693 43.1043 14.6693 41.9997V21.3306C14.6693 21.0467 14.7297 20.7661 14.8466 20.5074L22.6733 3.17683C22.9968 2.46044 23.717 1.97264 24.4876 2.12777C25.7073 2.37332 26.8378 2.96587 27.7313 3.84522C28.9319 5.02669 29.6063 6.62911 29.6063 8.29996Z" stroke="#3AA600" stroke-width="4" stroke-linecap="round" stroke-linejoin="round"/>
</svg>
