<svg width="68" height="19" viewBox="0 0 68 19" fill="none" xmlns="http://www.w3.org/2000/svg">
<path fill-rule="evenodd" clip-rule="evenodd" d="M64.0211 0.826283L60.0045 0.77956V1.57151C60.2181 1.66377 60.4318 1.57151 60.6026 1.71129C60.8588 1.94333 60.9013 2.40979 60.9013 2.73528L60.9439 7.43789L60.9013 16.5651L60.7734 17.1698C60.6444 17.4953 60.3878 17.5416 60.0891 17.5416V18.3791H64.0637V17.5416H64.0204C63.8462 17.5373 63.6735 17.5061 63.5073 17.4489C63.2086 17.1235 63.2086 16.6107 63.1661 16.1442V10.1848C63.2086 10.1848 63.2511 10.1848 63.2947 10.2319L63.5934 11.5358L64.0208 13.119L65.3025 18.3332H67.9953V17.542C67.5247 17.4493 67.5247 16.7508 67.311 16.3307L65.4733 9.67357C67.2256 8.18312 67.4386 5.34278 66.8837 3.06117C66.4988 1.94333 65.8156 0.825887 64.5753 0.825887L64.0211 0.826283ZM64.0211 8.78856C63.8075 8.97507 63.5513 9.11445 63.2518 9.11445H63.1668L63.2093 2.17696C63.2518 2.03678 63.3379 1.8974 63.4662 1.8974C63.6792 1.85028 63.8503 1.8974 64.0211 2.03718C64.1498 2.12983 64.2348 2.31673 64.3631 2.45572C64.9613 3.99369 64.9613 5.99535 64.5761 7.67152C64.4917 8.09006 64.2773 8.5094 64.0211 8.78856ZM43.4246 1.61784C43.6383 1.61784 43.8087 1.66417 43.9802 1.71129C44.4501 2.03718 44.4501 2.73528 44.5359 3.2948L44.4919 10.5578C43.8509 9.021 43.2959 7.43829 42.6974 5.80845L40.7747 0.77956H37.9114V1.61744H38.1683C38.5525 1.99006 38.6807 2.54917 38.8086 3.06117L38.8519 16.1917L38.6807 16.9366C38.595 17.3559 38.2959 17.542 37.9539 17.5891V18.3795H40.7747V17.542C40.5602 17.542 40.3473 17.5891 40.1765 17.4957C39.7917 17.2636 39.7066 16.6566 39.6208 16.1446V5.34278H39.6641L43.3813 15.0283L44.6638 18.4274H45.3048V3.15422C45.3473 2.68856 45.3899 2.22328 45.6468 1.85067C45.7311 1.71129 45.9023 1.61784 46.1167 1.61784V0.779955H43.4246V1.61784ZM55.0051 16.3311C54.6203 17.1702 53.6802 17.2157 52.8254 17.1238C52.6543 17.0304 52.526 16.7968 52.526 16.5176L52.4835 9.67396C52.8254 9.67396 53.1245 9.95233 53.2953 10.2323C53.8084 11.21 53.8517 12.4208 53.9796 13.585H54.407V4.73733H53.9364C53.8521 5.80845 53.8521 6.92589 53.424 7.90474C53.2103 8.22944 52.9116 8.64839 52.4835 8.60285V2.31674L52.6121 2.12983C53.0395 1.99045 53.5944 2.03718 54.0225 2.03718C55.3896 2.50284 55.3896 4.5045 55.5179 5.94823H55.9878V0.77956H49.279V1.61744C49.4502 1.66377 49.6631 1.61744 49.7921 1.66377C50.1762 1.85028 50.1334 2.36267 50.2195 2.73528V16.5176C50.2195 16.8431 50.1337 17.1702 49.9626 17.4022C49.7921 17.5424 49.5784 17.5424 49.3644 17.5424V18.3799H56.0739L56.5013 12.9321L56.0314 12.6537C55.9024 14.004 55.56 15.2137 55.0051 16.3311ZM27.9128 0.826283C27.8699 2.40979 27.9128 4.17861 27.9128 5.80845H28.3401C28.4684 4.41105 28.5967 2.73528 29.7498 2.12944C29.9209 2.08311 30.22 1.99006 30.3058 2.22289V16.1446C30.3058 16.6111 30.2629 17.03 30.0067 17.3559C29.793 17.5424 29.5364 17.5895 29.2377 17.5895V18.4278H33.6818V17.5424C33.5106 17.5424 33.2544 17.5895 33.1265 17.4961C32.7842 17.264 32.6134 16.7968 32.5705 16.3315V3.01484L32.6134 2.08351C32.7413 2.03718 32.955 2.08351 33.0832 2.12983C34.1945 2.73568 34.2796 4.41145 34.4504 5.80884H34.9202L34.8348 0.826283H27.9128ZM17.7851 0.826283L17.7422 5.80845H18.2121C18.3404 4.41105 18.4683 2.64183 19.7071 2.12944C19.8358 2.12944 20.0491 2.08311 20.1352 2.17696L20.1777 16.3782L20.0491 17.03C19.9212 17.4493 19.5363 17.6347 19.1093 17.6347V18.4274H23.5963V17.5891C23.3826 17.5891 23.1685 17.5891 22.9977 17.4957C22.6133 17.31 22.5707 16.7045 22.4853 16.2381L22.4425 3.01484L22.4857 2.12983C22.6987 2.12983 22.9127 2.08351 23.0839 2.17735C24.1519 2.82873 24.2802 4.45896 24.4081 5.80884H24.8783L24.8358 0.826679L17.7851 0.826283ZM13.9388 16.5655L13.8956 2.78161C13.9388 2.40979 13.9388 2.03718 14.195 1.80395C14.3237 1.71129 14.5366 1.71129 14.7507 1.66377V0.87301H10.7765V1.66377C10.9044 1.71129 11.0756 1.71129 11.2468 1.75722C11.5458 1.8974 11.5458 2.40939 11.6316 2.73528V16.7964L11.4604 17.31C11.3747 17.6347 11.0327 17.5891 10.7765 17.6347V18.4274H14.7939V17.6347L14.3662 17.542C14.0239 17.4493 13.9388 16.9829 13.9388 16.5655Z" fill="#888888"/>
<path fill-rule="evenodd" clip-rule="evenodd" d="M43.1677 1.33828C43.3813 1.33828 43.5532 1.385 43.7233 1.43133C44.1932 1.75762 44.1932 2.45533 44.2789 3.01484L44.2357 10.2786C43.5954 8.74263 43.0397 7.15912 42.4412 5.57522L40.5192 0.500396H37.6552V1.33867H37.9114C38.2962 1.71168 38.4238 2.2708 38.595 2.78201V15.9122L38.4238 16.657C38.3388 17.0771 38.039 17.264 37.6985 17.3104V18.1007H40.5192V17.264C40.3048 17.264 40.0904 17.3104 39.9203 17.2161C39.5355 16.9833 39.4497 16.3786 39.3647 15.8666V5.06441H39.4079L43.1251 14.7484L44.4076 18.149H45.0486V2.87506C45.0904 2.40979 45.1337 1.94333 45.3899 1.57151C45.4749 1.43134 45.6468 1.33828 45.8597 1.33828V0.5H43.1677V1.33828ZM54.7482 16.0519C54.3634 16.891 53.4236 16.9366 52.5692 16.8431C52.3981 16.7512 52.2705 16.5176 52.2705 16.2384L52.2273 9.39401C52.5692 9.39401 52.8683 9.67396 53.0391 9.95233C53.5522 10.9316 53.594 12.1409 53.7234 13.3059H54.15V4.45857H53.6802C53.5944 5.57522 53.5944 6.64673 53.1678 7.62479C52.9534 7.95068 52.6546 8.37001 52.2273 8.3225V2.03718L52.3559 1.85067C52.7833 1.71129 53.3389 1.75762 53.7656 1.75762C55.1341 2.22328 55.1341 4.22494 55.2617 5.66867H55.7316V0.5H49.0221V1.33828C49.1932 1.385 49.4069 1.33828 49.5352 1.38501C49.9208 1.57151 49.8772 2.08351 49.9626 2.45533V16.2381C49.9626 16.5651 49.8775 16.8906 49.7064 17.1235C49.5352 17.2636 49.3222 17.2636 49.1082 17.2636V18.1003H55.817L56.2443 12.6533L55.7744 12.3733C55.6462 13.7248 55.3038 14.9345 54.7482 16.0519ZM27.6562 0.547515C27.6133 2.12983 27.6562 3.94617 27.6562 5.52929H28.0836C28.2118 4.13228 28.3401 2.50324 29.4936 1.85067C29.6647 1.80395 30.0063 1.71129 30.0488 1.94373V15.8666C30.0488 16.3315 30.0063 16.7512 29.7494 17.0771C29.5361 17.2644 29.2795 17.3107 28.9804 17.3107V18.149H33.4248V17.2644C33.2537 17.2644 32.9978 17.3107 32.8688 17.2165C32.5276 16.9837 32.3561 16.518 32.3136 16.0527V2.73528L32.3561 1.80355C32.4847 1.75722 32.6984 1.80355 32.8263 1.85028C33.9376 2.50245 34.0226 4.13189 34.1938 5.52889H34.664L34.5783 0.547119L27.6562 0.547515ZM17.5282 0.547515L17.4853 5.57522H17.9555C18.0838 4.13189 18.2121 2.36306 19.4513 1.85067C19.5796 1.85067 19.7929 1.80395 19.8783 1.89779L19.9215 16.0995L19.7929 16.7512C19.665 17.1706 19.2801 17.3559 18.8531 17.3559V18.1942H23.3401V17.3104C23.1267 17.3104 22.9127 17.3104 22.7419 17.2161C22.3567 17.0304 22.3145 16.4257 22.2288 15.9593L22.1855 2.73568L22.2288 1.85067C22.4425 1.85067 22.6558 1.80395 22.8269 1.89779C23.8961 2.54957 24.0236 4.17901 24.1951 5.57562H24.6221L24.5793 0.547911L17.5282 0.547515ZM13.6826 16.2848L13.6398 2.50284C13.6826 2.12984 13.6826 1.75762 13.9388 1.52439C14.0668 1.43133 14.2804 1.43134 14.4934 1.38501V0.59345H10.5203V1.38501C10.6486 1.43134 10.8194 1.43134 10.9902 1.47806C11.2893 1.61784 11.2893 2.12983 11.3747 2.45533V16.5176L11.2468 17.0304C11.1181 17.3559 10.7765 17.3104 10.5203 17.3559V18.1942H14.537V17.3559L14.1096 17.264C13.7677 17.1702 13.6826 16.7045 13.6826 16.2848ZM63.7649 0.547515L59.7483 0.500396V1.29195C59.9612 1.3854 60.1749 1.29195 60.3461 1.43173C60.603 1.66417 60.6448 2.13023 60.6448 2.50324L60.688 7.15912L60.6448 16.2848L60.5169 16.891C60.3882 17.2157 60.1327 17.2636 59.8333 17.2636V18.1003H63.8071V17.2636H63.7646C63.5904 17.2586 63.4177 17.2272 63.2515 17.1702C62.9945 16.8431 62.9535 16.3311 62.9102 15.8662V9.9064C62.9945 9.9064 62.9945 9.9064 63.0381 9.95194L63.3376 11.2567L63.7649 12.8398L65.0467 18.054H67.7388V17.2636C67.2681 17.1702 67.2681 16.4709 67.0552 16.0515L65.2175 9.39361C66.9691 7.90474 67.1827 5.06402 66.6278 2.78161C66.243 1.66377 65.5598 0.547119 64.3202 0.547119L63.7649 0.547515ZM63.7649 8.5094C63.5513 8.69551 63.2951 8.83529 62.9949 8.83529H62.9106L62.9538 1.8974C62.9949 1.75722 63.081 1.61744 63.2093 1.61744C63.4237 1.57151 63.5941 1.61744 63.7649 1.75722C63.8936 1.85028 63.9786 2.03678 64.1062 2.17696C64.7043 3.71334 64.7043 5.76172 64.3206 7.39156C64.2348 7.8105 64.0211 8.22944 63.7649 8.5094Z" fill="#888888"/>
<path fill-rule="evenodd" clip-rule="evenodd" d="M4.06774 0.873008C2.82818 0.826283 1.54646 0.873008 0.264374 0.873008V1.71129L0.691736 1.75762C1.11946 1.94372 1.07658 2.59629 1.16161 3.10829V16.0991C1.16161 16.5655 1.16161 17.0304 0.948298 17.4022C0.819653 17.5895 0.563818 17.6351 0.307256 17.6351V18.4733C1.50358 18.3799 2.87106 18.566 4.06811 18.4733C4.62339 18.4278 5.13615 18.2876 5.60639 18.054C6.76019 17.4957 7.27259 15.9118 7.35835 14.4684C7.5724 12.2807 7.10215 9.99906 5.39235 9.06812C6.20419 8.509 6.63155 7.43789 6.84559 6.45983C6.97387 5.34278 7.01639 4.03844 6.71695 2.96772C6.50327 1.94333 5.86222 1.05911 4.87958 0.965664C4.62302 0.919335 4.36682 0.919337 4.06774 0.873008ZM4.26144 17.1702C4.89412 16.7695 4.97262 15.6504 5.05075 14.8422C5.09327 13.1657 5.22118 11.3489 4.36682 10.045C4.28106 9.9064 4.19602 9.85928 4.06774 9.81295C3.89658 9.7195 3.6829 9.7195 3.46958 9.76741V16.6566L3.51137 17.2157C3.72142 17.4438 4.04449 17.3072 4.26144 17.1702ZM4.06774 8.5094C4.06774 8.5094 4.0245 8.55573 3.98198 8.55573C3.81082 8.64838 3.64075 8.60285 3.46995 8.64838V2.22289C3.55498 1.94333 3.89658 1.99005 4.06811 2.12944C4.11063 2.17695 4.11062 2.17695 4.15351 2.22289C4.58087 2.78161 4.62339 3.62028 4.66627 4.36472C4.70915 5.57482 4.79455 6.9255 4.41007 7.99621C4.32358 8.18311 4.23891 8.36962 4.06774 8.5094Z" fill="#888888"/>
<path fill-rule="evenodd" clip-rule="evenodd" d="M3.81046 0.59345C2.57162 0.54712 1.2899 0.59345 0.0078125 0.59345V1.43133L0.435174 1.47806C0.862535 1.66377 0.819653 2.31673 0.905053 2.82834V15.8191C0.905053 16.2848 0.905053 16.7512 0.691372 17.1238C0.563455 17.3104 0.306893 17.3559 0.0506939 17.3559V18.1942C1.24701 18.1007 2.6145 18.2876 3.81046 18.1942C4.34223 18.1542 4.86336 18.0123 5.34983 17.7748C6.5029 17.2157 7.01603 15.6326 7.10179 14.1885C7.31511 12.047 6.84523 9.7191 5.13578 8.78817C5.94799 8.22905 6.37499 7.20545 6.58903 6.18146C6.71695 5.06401 6.75983 3.75967 6.46075 2.68816C6.24707 1.66377 5.60603 0.779558 4.62302 0.686504C4.36682 0.639779 4.11026 0.639779 3.81046 0.59345ZM4.0205 16.8803C4.63901 16.4721 4.71678 15.3645 4.79382 14.5623C4.83634 12.8857 4.96462 11.0698 4.11026 9.76741C4.0245 9.62724 3.93946 9.58012 3.81046 9.53379C3.64038 9.44073 3.42634 9.44073 3.21229 9.48627V16.3782L3.25518 16.9366C3.46595 17.1662 3.80355 17.0225 4.0205 16.8803ZM3.81046 8.22944C3.81046 8.22944 3.76866 8.27617 3.72578 8.27617C3.55462 8.36962 3.38382 8.3225 3.21266 8.36962V1.94333C3.29842 1.66377 3.64075 1.71129 3.81082 1.85027L3.89658 1.94333C4.32358 2.50284 4.36682 3.34073 4.40971 4.08516C4.45222 5.29606 4.53799 6.64633 4.15314 7.71784C4.06774 7.90474 3.98198 8.09006 3.81046 8.22944Z" fill="#888888"/>
</svg>
