<svg width="76" height="26" viewBox="0 0 76 26" fill="none" xmlns="http://www.w3.org/2000/svg">
<path d="M34.2913 9.87274V10.9499H31.5534V12.1618H32.8999C33.2141 12.1618 33.4834 12.2067 33.7078 12.2964C33.9322 12.3862 34.1567 12.5209 34.2913 12.7004C34.4708 12.8799 34.5606 13.0595 34.6504 13.2839C34.7401 13.5083 34.785 13.7776 34.785 14.0469C34.785 14.2713 34.7401 14.4957 34.6953 14.7201C34.6055 14.9445 34.5157 15.1241 34.3811 15.3036C34.2464 15.4831 34.022 15.6178 33.7976 15.7524C33.5732 15.8871 33.259 15.932 32.9448 15.932H30.3416V9.87274H34.2913ZM32.8102 14.765C33.0795 14.765 33.3039 14.6752 33.4385 14.5406C33.6181 14.406 33.7078 14.1815 33.7078 13.9571C33.7078 13.7327 33.6181 13.5532 33.4385 13.3736C33.259 13.239 33.0346 13.1492 32.7653 13.1492H31.5534V14.765H32.8102Z" fill="#888888"/>
<path d="M38.4206 14.4059C38.1962 14.9445 37.9717 15.3485 37.7024 15.5729C37.4331 15.7973 37.0741 15.932 36.6701 15.932H36.0418V14.9894H36.5804C36.715 14.9894 36.8497 14.9446 36.9394 14.8997C37.0292 14.8548 37.119 14.765 37.1638 14.6304C37.1638 14.5855 37.2087 14.5855 37.2087 14.5406C37.2087 14.5406 37.2536 14.4957 37.2536 14.4508L35.3685 9.82785H36.6252L37.3434 11.7578C37.4331 12.0271 37.5229 12.2516 37.6127 12.5209C37.7024 12.7453 37.7473 12.9248 37.7922 13.1043L38.2859 11.713C38.2859 11.6681 38.3308 11.6232 38.3757 11.4885C38.4206 11.3988 38.4655 11.2641 38.5103 11.1295C38.5552 10.9948 38.6001 10.8602 38.645 10.7255C38.6899 10.5909 38.7348 10.4562 38.7796 10.3216C38.8245 10.1869 38.8694 10.0972 38.9143 10.0074C38.9592 9.91762 38.9592 9.87274 38.9592 9.82785H40.1261L38.4206 14.4059Z" fill="#888888"/>
<path d="M40.934 15.8422V9.87274H42.1459V12.2964H42.7742C42.9089 12.2964 42.9987 12.2964 43.0884 12.2516C43.1782 12.2516 43.268 12.2067 43.3577 12.1169C43.4475 12.072 43.5373 11.9823 43.5821 11.8925C43.627 11.8027 43.7168 11.6681 43.7617 11.4885L44.3003 9.82785H45.5121L44.9735 11.6232C44.8838 11.9374 44.7491 12.1618 44.6145 12.3413C44.4798 12.5209 44.3003 12.6555 44.1207 12.7453C44.39 12.835 44.5696 12.9697 44.7042 13.1941C44.8389 13.4185 44.9735 13.6429 45.0633 13.9571L45.6468 15.8871H44.3452L43.8514 14.1367C43.8066 13.9571 43.7617 13.8225 43.6719 13.7327C43.627 13.6429 43.5373 13.5532 43.4475 13.5083C43.3577 13.4634 43.268 13.4185 43.1782 13.3736C43.0884 13.3736 42.9538 13.3288 42.8191 13.3288H42.1459V15.8422H40.934Z" fill="#888888"/>
<path d="M49.8658 14.6304H47.8012L47.3972 15.8871H46.1405L48.25 9.91762H49.4619L51.5265 15.8871H50.2249L49.8658 14.6304ZM48.0705 13.5981H49.5067L49.2823 12.835L48.8335 11.2641H48.7886L48.3398 12.835L48.0705 13.5981Z" fill="#888888"/>
<path d="M56.4637 9.87274V10.9499H53.5014V12.3413H56.0148V13.3736H53.5014V14.765H56.4188V15.8422H52.2895V9.87274H56.4637Z" fill="#888888"/>
<path d="M62.0741 14.0918C62.0741 14.3162 62.0292 14.5406 61.9394 14.765C61.8497 14.9894 61.7599 15.169 61.6252 15.3485C61.4906 15.528 61.3111 15.6178 61.0866 15.7524C60.8622 15.8422 60.6378 15.8871 60.3236 15.8871H57.5409V9.87274H60.2339C60.548 9.87274 60.7725 9.91762 60.9969 10.0074C61.2213 10.0972 61.4008 10.2318 61.5355 10.3665C61.6701 10.5011 61.8048 10.6806 61.8497 10.9051C61.9394 11.0846 61.9394 11.309 61.9394 11.5334C61.9394 11.7578 61.8945 11.9823 61.7599 12.2067C61.6252 12.4311 61.4457 12.6106 61.2213 12.7453C61.3559 12.835 61.4906 12.9248 61.5804 13.0146C61.6701 13.1043 61.7599 13.239 61.8497 13.3736C61.9394 13.5083 61.9843 13.6429 61.9843 13.7327C62.0741 13.8225 62.0741 13.9571 62.0741 14.0918ZM60.7725 11.6232C60.7725 11.3988 60.7276 11.2192 60.5929 11.1295C60.4583 10.9948 60.2339 10.9499 59.9646 10.9499H58.7527V12.2516H59.9646C60.2339 12.2516 60.4134 12.2067 60.548 12.072C60.6827 11.9374 60.7725 11.8027 60.7725 11.6232ZM60.8173 14.0469C60.8173 13.8225 60.7276 13.6429 60.5929 13.5083C60.4583 13.3736 60.2339 13.2839 60.0094 13.2839H58.7527V14.8099H60.0094C60.2787 14.8099 60.4583 14.7201 60.5929 14.5855C60.7725 14.4508 60.8173 14.2713 60.8173 14.0469Z" fill="#888888"/>
<path d="M63.9592 15.932C63.7796 15.932 63.6001 15.8422 63.4655 15.7076C63.3308 15.5729 63.2859 15.3934 63.2859 15.2138C63.2859 15.0343 63.3308 14.8548 63.4655 14.7201C63.6001 14.5855 63.7796 14.5406 63.9592 14.5406C64.1387 14.5406 64.3182 14.5855 64.4529 14.7201C64.5875 14.8548 64.6324 14.9894 64.6324 15.2138C64.6324 15.3934 64.5875 15.5729 64.4529 15.7076C64.3182 15.8422 64.1836 15.932 63.9592 15.932Z" fill="#888888"/>
<path d="M68.5822 9.87274C68.8963 9.87274 69.1207 9.91762 69.3452 10.0523C69.5696 10.1869 69.7491 10.3216 69.8838 10.5011C70.0184 10.6806 70.1082 10.9051 70.1979 11.0846C70.2877 11.309 70.2877 11.5334 70.2877 11.7578C70.2877 11.9823 70.2428 12.2067 70.1531 12.4311C70.0633 12.6555 69.9735 12.835 69.794 13.0146C69.6593 13.1941 69.4798 13.3288 69.2554 13.4634C69.031 13.5532 68.8066 13.6429 68.4924 13.6429H67.0561V15.8871H65.8443V9.87274H68.5822ZM67.101 12.5209H68.3128C68.5821 12.5209 68.8066 12.4311 68.9412 12.2964C69.0759 12.1618 69.1656 11.9374 69.1656 11.713C69.1656 11.4885 69.0759 11.2641 68.9412 11.1295C68.8066 10.9948 68.5821 10.9051 68.3128 10.9051H67.101V12.5209Z" fill="#888888"/>
<path d="M73.7886 14.4059C73.5642 14.9445 73.3398 15.3485 73.0705 15.5729C72.8012 15.7973 72.4421 15.932 72.0382 15.932H71.4098V14.9894H71.9484C72.083 14.9894 72.2177 14.9446 72.3075 14.8997C72.3972 14.8548 72.487 14.765 72.5319 14.6304C72.5319 14.5855 72.5768 14.5855 72.5768 14.5406C72.5768 14.5406 72.6216 14.4957 72.6216 14.4508L70.7365 9.82785H71.9933L72.7114 11.7578C72.8012 12.0271 72.8909 12.2516 72.9807 12.5209C73.0705 12.7453 73.1154 12.9248 73.1602 13.1043H73.2051L73.6988 11.713C73.6988 11.6681 73.7437 11.6232 73.7886 11.4885C73.8335 11.3988 73.8784 11.2641 73.9233 11.1295C73.9681 10.9948 74.013 10.8602 74.0579 10.7255C74.1028 10.5909 74.1477 10.4562 74.1926 10.3216C74.2374 10.1869 74.2823 10.0972 74.3272 10.0074C74.3721 9.91762 74.3721 9.87274 74.3721 9.82785H75.5391L73.7886 14.4059Z" fill="#888888"/>
<path d="M31.2392 17.2336V17.3682C31.5534 17.3682 31.8676 17.5478 31.8676 18.0415C31.8676 18.4903 31.5534 18.6699 31.2392 18.6699V18.8045H31.0597V18.6699C30.7455 18.6699 30.4313 18.4903 30.4313 18.0415C30.4313 17.5478 30.7455 17.4131 31.0597 17.3682V17.2336H31.2392ZM31.0597 17.5029C30.8802 17.5029 30.6558 17.6375 30.6558 18.0415C30.6558 18.4006 30.8802 18.5352 31.0597 18.5352V17.5029ZM31.2392 18.5352C31.4637 18.5352 31.6432 18.3557 31.6432 18.0415C31.6432 17.6824 31.4188 17.5478 31.2392 17.5029V18.5352Z" fill="#888888"/>
<path d="M32.496 18.3108L32.3613 18.7596H32.1818L32.6755 17.3234H32.855L33.3488 18.7596H33.1692L33.0346 18.3108H32.496ZM32.9897 18.1313L32.855 17.7273C32.8102 17.6375 32.8102 17.5478 32.7653 17.458C32.7653 17.5478 32.7204 17.6375 32.6755 17.7273L32.5409 18.1313H32.9897Z" fill="#888888"/>
<path d="M33.7527 17.3234C33.8425 17.3234 33.9771 17.2785 34.1118 17.2785C34.2913 17.2785 34.426 17.3234 34.5157 17.4131C34.6055 17.5029 34.6504 17.5927 34.6504 17.7273C34.6504 17.862 34.6055 17.9517 34.5606 18.0415C34.4708 18.1313 34.2913 18.221 34.1118 18.221C34.0669 18.221 34.022 18.221 33.9771 18.221V18.7596H33.7527V17.3234ZM33.9322 18.0415C33.9771 18.0415 34.022 18.0415 34.0669 18.0415C34.2913 18.0415 34.426 17.9517 34.426 17.7273C34.426 17.5478 34.2913 17.458 34.0669 17.458C33.9771 17.458 33.9322 17.458 33.8874 17.458V18.0415H33.9322Z" fill="#888888"/>
<path d="M36.2662 18.1313C36.2662 17.9517 36.2662 17.6824 36.2662 17.5029C36.2213 17.6824 36.1764 17.862 36.0866 18.0415L35.8173 18.7596H35.6827L35.4583 18.0864C35.3685 17.862 35.3236 17.6824 35.2787 17.5029C35.2787 17.6824 35.2787 17.9068 35.2339 18.1313L35.189 18.7596H35.0094L35.0992 17.3234H35.3236L35.5929 18.0415C35.6378 18.221 35.6827 18.3557 35.7276 18.5352C35.7725 18.4006 35.8173 18.221 35.8622 18.0415L36.1315 17.3234H36.3559L36.4457 18.7596H36.2662V18.1313Z" fill="#888888"/>
<path d="M36.9394 17.3234C37.0292 17.3234 37.1638 17.2785 37.2985 17.2785C37.478 17.2785 37.6127 17.3234 37.7024 17.4131C37.7922 17.5029 37.8371 17.5927 37.8371 17.7273C37.8371 17.862 37.7922 17.9517 37.7024 18.0415C37.6127 18.1313 37.4331 18.221 37.2536 18.221C37.2087 18.221 37.1638 18.221 37.119 18.221V18.7596H36.9394V17.3234ZM37.119 18.0415C37.1638 18.0415 37.2087 18.0415 37.2536 18.0415C37.478 18.0415 37.6127 17.9517 37.6127 17.7273C37.6127 17.5478 37.478 17.458 37.2536 17.458C37.1638 17.458 37.119 17.458 37.0741 17.458V18.0415H37.119Z" fill="#888888"/>
<path d="M38.4206 17.3234V17.862C38.4655 17.862 38.5552 17.862 38.6001 17.862C38.9143 17.862 39.1387 17.9966 39.1387 18.3108C39.1387 18.4454 39.0938 18.5352 39.0041 18.625C38.8694 18.7596 38.6899 18.8045 38.5103 18.8045C38.3757 18.8045 38.2859 18.8045 38.1962 18.8045V17.3682H38.4206V17.3234ZM38.4206 18.625C38.4655 18.625 38.5103 18.625 38.5552 18.625C38.7796 18.625 38.9592 18.5352 38.9592 18.3108C38.9592 18.0864 38.7796 17.9966 38.5552 17.9966C38.5103 17.9966 38.4206 17.9966 38.4206 17.9966V18.625ZM39.4978 17.3234V18.7596H39.3182V17.3234H39.4978Z" fill="#888888"/>
<path d="M40.171 17.3234V17.9517H40.8892V17.3234H41.0687V18.7596H40.8892V18.0864H40.171V18.7596H39.9915V17.3234H40.171Z" fill="#888888"/>
<path d="M42.8191 17.9966C42.8191 18.4903 42.5049 18.7596 42.1459 18.7596C41.7419 18.7596 41.5175 18.4454 41.5175 18.0415C41.5175 17.5927 41.7868 17.2785 42.1908 17.2785C42.5498 17.2785 42.8191 17.5927 42.8191 17.9966ZM41.697 18.0415C41.697 18.3557 41.8766 18.625 42.1459 18.625C42.4601 18.625 42.5947 18.3557 42.5947 18.0415C42.5947 17.7722 42.4601 17.458 42.1459 17.458C41.8317 17.4131 41.697 17.7273 41.697 18.0415Z" fill="#888888"/>
<path d="M43.4026 17.3234V17.9517H43.4475L43.9412 17.3234H44.1656L43.627 17.9517C43.8514 17.9966 43.9412 18.1313 44.031 18.3108C44.0759 18.4454 44.1207 18.5801 44.2105 18.7147H44.031C43.9861 18.625 43.9412 18.4903 43.8963 18.3557C43.8514 18.1761 43.7168 18.0415 43.4924 18.0415H43.4475V18.7596H43.268V17.3234H43.4026Z" fill="#888888"/>
<path d="M45.1531 17.3234C45.2428 17.3234 45.3775 17.2785 45.5121 17.2785C45.6917 17.2785 45.8263 17.3234 45.9161 17.4131C46.0058 17.5029 46.0507 17.5927 46.0507 17.7273C46.0507 17.862 46.0058 17.9517 45.961 18.0415C45.8712 18.1313 45.6917 18.221 45.5121 18.221C45.4672 18.221 45.4224 18.221 45.3775 18.221V18.7596H45.1979V17.3234H45.1531ZM45.3326 18.0415C45.3775 18.0415 45.4224 18.0415 45.4672 18.0415C45.6917 18.0415 45.8263 17.9517 45.8263 17.7273C45.8263 17.5478 45.6917 17.458 45.4672 17.458C45.3775 17.458 45.3326 17.458 45.2877 17.458V18.0415H45.3326Z" fill="#888888"/>
<path d="M47.7114 17.9966C47.7114 18.4903 47.3972 18.7596 47.0382 18.7596C46.6342 18.7596 46.3649 18.4454 46.3649 18.0415C46.3649 17.5927 46.6342 17.2785 47.0382 17.2785C47.4421 17.2785 47.7114 17.5927 47.7114 17.9966ZM46.5893 18.0415C46.5893 18.3557 46.7689 18.625 47.0382 18.625C47.3523 18.625 47.487 18.3557 47.487 18.0415C47.487 17.7722 47.3523 17.458 47.0382 17.458C46.724 17.4131 46.5893 17.7273 46.5893 18.0415Z" fill="#888888"/>
<path d="M49.1028 18.7147C49.013 18.7596 48.8784 18.8045 48.6988 18.8045C48.2949 18.8045 47.9807 18.5352 47.9807 18.0864C47.9807 17.6375 48.2949 17.3234 48.7437 17.3234C48.9233 17.3234 49.0579 17.3682 49.1028 17.3682L49.0579 17.5029C48.9681 17.458 48.8784 17.458 48.7886 17.458C48.4295 17.458 48.2051 17.6824 48.2051 18.0415C48.2051 18.4006 48.3847 18.625 48.7437 18.625C48.8784 18.625 48.9681 18.5801 49.0579 18.5801L49.1028 18.7147Z" fill="#888888"/>
<path d="M50.5391 18.7147C50.4493 18.7596 50.3146 18.8045 50.1351 18.8045C49.7312 18.8045 49.417 18.5352 49.417 18.0864C49.417 17.6375 49.7312 17.3234 50.18 17.3234C50.3595 17.3234 50.4942 17.3682 50.5391 17.3682L50.4942 17.5029C50.4044 17.458 50.3146 17.458 50.2249 17.458C49.8658 17.458 49.6414 17.6824 49.6414 18.0415C49.6414 18.4006 49.8658 18.625 50.18 18.625C50.3146 18.625 50.4044 18.5801 50.4942 18.5801L50.5391 18.7147Z" fill="#888888"/>
<path d="M51.0777 17.3234V17.9517C51.0777 18.1761 51.0777 18.3557 51.0777 18.5801C51.1674 18.4454 51.2572 18.2659 51.347 18.0864L51.7958 17.3234H51.9753V18.7596H51.7958V18.1313C51.7958 17.9068 51.7958 17.7273 51.7958 17.5478C51.706 17.7273 51.6163 17.862 51.5265 18.0415L51.0777 18.7596H50.8981V17.3234H51.0777Z" fill="#888888"/>
<path d="M52.6486 17.3234V17.9517C52.6486 18.1761 52.6486 18.3557 52.6486 18.5801C52.7383 18.4454 52.8281 18.2659 52.9179 18.0864L53.3667 17.3234H53.5462V18.7596H53.3667V18.1313C53.3667 17.9068 53.3667 17.7273 53.3667 17.5478C53.2769 17.7273 53.1872 17.862 53.0974 18.0415L52.6486 18.7596H52.469V17.3234H52.6486Z" fill="#888888"/>
<path d="M54.8479 17.3234V17.9517H55.566V17.3234H55.7455V18.7596H55.566V18.0864H54.8479V18.7596H54.6683V17.3234H54.8479Z" fill="#888888"/>
<path d="M56.4637 18.3108L56.329 18.7596H56.1495L56.6432 17.3234H56.8676L57.3613 18.7596H57.1818L57.0471 18.3108H56.4637ZM56.9574 18.1313L56.8227 17.7273C56.7778 17.6375 56.7778 17.5478 56.733 17.458C56.6881 17.5478 56.6881 17.6375 56.6432 17.7273L56.5085 18.1313H56.9574Z" fill="#888888"/>
<path d="M58.3488 17.3234C58.4385 17.3234 58.5732 17.2785 58.7078 17.2785C58.8874 17.2785 59.022 17.3234 59.1118 17.3682C59.2015 17.4131 59.2464 17.5029 59.2464 17.6375C59.2464 17.7722 59.1567 17.9068 59.022 17.9517C59.1567 17.9966 59.3362 18.0864 59.3362 18.3108C59.3362 18.4454 59.2913 18.5352 59.2015 18.5801C59.1118 18.6699 58.9322 18.7147 58.7078 18.7147C58.5732 18.7147 58.4834 18.7147 58.4385 18.7147V17.3234H58.3488ZM58.5283 17.9068H58.7078C58.8874 17.9068 59.022 17.8171 59.022 17.6824C59.022 17.5029 58.8874 17.458 58.7078 17.458C58.6181 17.458 58.5732 17.458 58.5283 17.458V17.9068ZM58.5283 18.625C58.5732 18.625 58.6181 18.625 58.7078 18.625C58.8874 18.625 59.0669 18.5352 59.0669 18.3557C59.0669 18.1761 58.8874 18.0864 58.7078 18.0864H58.5732V18.625H58.5283Z" fill="#888888"/>
<path d="M59.8748 18.3108L59.7401 18.7596H59.5606L60.0543 17.3234H60.2787L60.7725 18.7596H60.5929L60.4583 18.3108H59.8748ZM60.3685 18.1313L60.2339 17.7273C60.189 17.6375 60.189 17.5478 60.1441 17.458C60.1441 17.5478 60.0992 17.6375 60.0543 17.7273L59.9197 18.1313H60.3685Z" fill="#888888"/>
<path d="M61.3111 17.3234V18.625H61.7599V17.3234H61.9394V18.625H62.3883V17.3234H62.5678V18.7596H61.1315V17.3234H61.3111Z" fill="#888888"/>
<path d="M63.8694 18.0864H63.2859V18.625H63.9143V18.7596H63.1064V17.3234H63.8694V17.458H63.2859V17.9068H63.8694V18.0864Z" fill="#888888"/>
<path d="M64.4978 17.3234V17.9517C64.4978 18.1761 64.4978 18.3557 64.4978 18.5801C64.5875 18.4454 64.6773 18.2659 64.7671 18.0864L65.2159 17.3234H65.3954V18.7596H65.2159V18.1313C65.2159 17.9068 65.2159 17.7273 65.2159 17.5478C65.1261 17.7273 65.0364 17.862 64.9466 18.0415L64.4978 18.7596H64.3182V17.3234H64.4978ZM64.7671 17.0092C64.7671 17.0989 64.8119 17.1438 64.9017 17.1438C64.9915 17.1438 65.0364 17.0989 65.0364 17.0092H65.171C65.171 17.1438 65.0812 17.2336 64.9017 17.2336C64.7222 17.2336 64.6324 17.1438 64.6324 17.0092H64.7671Z" fill="#888888"/>
<path d="M67.4601 17.3234V18.7596H67.2805V17.458H66.7868V17.9068C66.7868 18.221 66.7868 18.5801 66.5624 18.7147C66.5175 18.7596 66.4278 18.8045 66.338 18.8045L66.2931 18.6699C66.338 18.6699 66.4278 18.625 66.4278 18.5801C66.5624 18.4454 66.5624 18.1761 66.5624 17.9517V17.3234H67.4601Z" fill="#888888"/>
<path d="M68.1782 18.3108L68.0435 18.7596H67.864L68.3577 17.3234H68.5822L69.0759 18.7596H68.8963L68.7617 18.3108H68.1782ZM68.6719 18.1313L68.5373 17.7273C68.4924 17.6375 68.4924 17.5478 68.4475 17.458C68.4475 17.5478 68.4026 17.6375 68.3577 17.7273L68.2231 18.1313H68.6719Z" fill="#888888"/>
<path d="M70.4224 17.3234V18.625H70.557V19.1187H70.4224V18.7596H69.5247V19.1187H69.39V18.625H69.4798C69.5247 18.5352 69.5696 18.4006 69.6145 18.3108C69.6593 18.1313 69.7042 17.9517 69.7042 17.6824V17.3234H70.4224ZM69.794 17.7273C69.794 17.9517 69.794 18.1761 69.7042 18.3108C69.6594 18.4006 69.6145 18.4903 69.5696 18.5801H70.1979V17.458H69.7491V17.7273H69.794Z" fill="#888888"/>
<path d="M72.1728 17.9966C72.1728 18.4903 71.8586 18.7596 71.4996 18.7596C71.0956 18.7596 70.8263 18.4454 70.8263 18.0415C70.8263 17.5927 71.0956 17.2785 71.4996 17.2785C71.9484 17.2785 72.1728 17.5927 72.1728 17.9966ZM71.0507 18.0415C71.0507 18.3557 71.2303 18.625 71.4996 18.625C71.8137 18.625 71.9484 18.3557 71.9484 18.0415C71.9484 17.7722 71.8137 17.458 71.4996 17.458C71.2303 17.4131 71.0507 17.7273 71.0507 18.0415Z" fill="#888888"/>
<path d="M72.8012 17.3234V17.9517H73.5193V17.3234H73.6988V18.7596H73.5193V18.0864H72.8012V18.7596H72.6216V17.3234H72.8012Z" fill="#888888"/>
<path d="M74.3272 17.3234V17.9517C74.3272 18.1761 74.3272 18.3557 74.3272 18.5801C74.417 18.4454 74.5067 18.2659 74.5965 18.0864L75.0453 17.3234H75.2249V18.7596H75.0453V18.1313C75.0453 17.9068 75.0453 17.7273 75.0453 17.5478C74.9556 17.7273 74.8658 17.862 74.776 18.0415L74.3272 18.7596H74.1477V17.3234H74.3272Z" fill="#888888"/>
<path d="M17.7297 4.03795C17.999 3.40959 17.5951 2.5568 17.6849 1.70402C17.1014 2.33239 16.1588 2.60169 15.8895 3.23005C15.8895 3.27494 15.4407 4.12772 16.3832 4.62143C17.3258 4.9805 17.7297 4.08283 17.7297 4.03795Z" fill="#888888"/>
<path d="M7.85475 4.03791C7.58545 3.40954 7.9894 2.51188 7.89964 1.65909C8.48312 2.28746 9.42567 2.55676 9.69497 3.18513C9.69497 3.23001 10.1438 4.08279 9.20125 4.57651C8.2587 4.98046 7.89964 4.08279 7.85475 4.03791Z" fill="#888888"/>
<path d="M3.90496 8.03252C3.27659 7.76322 2.37893 8.16717 1.52614 8.0774C2.15451 8.66089 2.42381 9.60343 3.05218 9.87273C3.09706 9.87273 3.94984 10.3216 4.44356 9.37902C4.84751 8.39159 3.94984 8.03252 3.90496 8.03252Z" fill="#888888"/>
<path d="M3.90496 17.9069C3.27659 18.1762 2.37893 17.7722 1.52614 17.862C2.15451 17.2785 2.42381 16.3359 3.05218 16.0666C3.09706 16.0666 3.94984 15.6178 4.44356 16.5604C4.84751 17.5029 3.94984 17.862 3.90496 17.9069Z" fill="#888888"/>
<path d="M7.90034 21.8566C7.63104 22.485 8.03499 23.3826 7.94522 24.2354C8.5287 23.607 9.47125 23.3377 9.74055 22.7094C9.74055 22.6645 10.1894 21.8117 9.24684 21.318C8.2594 20.914 7.90034 21.8117 7.90034 21.8566Z" fill="#888888"/>
<path d="M17.7745 21.8566C18.0438 22.485 17.6398 23.3826 17.7296 24.2354C17.1461 23.607 16.2035 23.3377 15.9342 22.7094C15.9342 22.6645 15.4854 21.8117 16.428 21.318C17.3705 20.914 17.7296 21.8117 17.7745 21.8566Z" fill="#888888"/>
<path d="M21.7239 17.862C22.3522 18.1313 23.2499 17.7273 24.1027 17.8171C23.4743 17.2336 23.205 16.2911 22.5766 16.0218C22.5318 16.0218 21.679 15.5729 21.1853 16.5155C20.7813 17.458 21.679 17.862 21.7239 17.862Z" fill="#888888"/>
<path d="M21.7239 7.98765C22.3522 7.71835 23.2499 8.1223 24.1027 8.03253C23.4743 8.61601 23.205 9.55856 22.5766 9.82786C22.5318 9.82786 21.679 10.2767 21.1853 9.33415C20.7813 8.3916 21.679 8.03253 21.7239 7.98765Z" fill="#888888"/>
<path d="M15.8892 6.91046C15.8892 4.80095 13.6001 2.91585 12.8371 0.447266C12.0292 2.91585 9.74014 4.84583 9.74014 6.91046C9.78502 7.04511 9.65037 10.0074 12.8371 10.1869H12.9269C15.934 10.0074 15.8443 7.04511 15.8892 6.91046Z" fill="#888888"/>
<path d="M19.8837 8.66091C20.8711 7.67348 20.6916 5.7435 21.4546 4.26235C19.9285 5.02536 17.9986 4.84583 17.0111 5.83326C16.9662 5.87815 15.5749 7.22464 16.9214 8.75068C18.4923 10.1421 19.7939 8.70579 19.8837 8.66091Z" fill="#888888"/>
<path d="M8.52829 5.87813C7.54086 4.8907 5.61088 5.07023 4.12973 4.30722C4.89274 5.83325 4.71321 7.76323 5.70064 8.75067C5.74553 8.79555 7.09202 10.1869 8.61806 8.84043C10.0094 7.26952 8.57317 5.92302 8.52829 5.87813Z" fill="#888888"/>
<path d="M5.74535 17.1887C4.75792 18.1762 4.93745 20.1061 4.17443 21.5873C5.70047 20.8243 7.63045 21.0038 8.61788 20.0164C8.66276 19.9715 10.0541 18.625 8.70765 17.099C7.13673 15.7525 5.79023 17.1438 5.74535 17.1887Z" fill="#888888"/>
<path d="M17.056 20.0164C18.0435 21.0038 19.9734 20.8243 21.4546 21.5873C20.6916 20.0613 20.8711 18.1313 19.8837 17.1439C19.8388 17.099 18.4923 15.7076 16.9663 17.0541C15.6198 18.625 17.056 19.9266 17.056 20.0164Z" fill="#888888"/>
<path d="M9.69543 18.7148C9.69543 20.8243 11.9845 22.7094 12.7475 25.178C13.5554 22.7094 15.8444 20.8243 15.8444 18.7148C15.7996 18.5801 15.9342 15.6178 12.7924 15.4383H12.7026C9.65055 15.6627 9.74031 18.625 9.69543 18.7148Z" fill="#888888"/>
<path d="M18.8514 16.0218C20.961 16.0218 22.8461 13.7327 25.3146 12.9697C22.8461 12.1618 20.9161 9.87276 18.8514 9.87276C18.7168 9.91764 15.7545 9.78299 15.575 12.9248V13.0146C15.7545 16.0667 18.7168 15.9769 18.8514 16.0218Z" fill="#888888"/>
<path d="M7.00226 9.82789C4.93763 9.82789 3.00764 12.1169 0.539062 12.9248C3.00764 13.7327 4.93763 16.0218 7.00226 16.0218C7.13691 15.9769 10.0992 16.1115 10.2787 12.9248C10.2787 12.9248 10.2787 12.9248 10.2787 12.88V12.8351C10.0992 9.783 7.13691 9.87277 7.00226 9.82789Z" fill="#888888"/>
</svg>
