<svg width="16" height="16" viewBox="0 0 16 16" fill="none" xmlns="http://www.w3.org/2000/svg">
<g clip-path="url(#clip0_6624_721)">
<path d="M11.9703 1.43698C11.4319 1.97141 10.6461 3.26577 10.3294 3.89377C9.91749 4.71158 9.88384 4.77888 10.3614 5.42169C10.6801 5.85045 10.9648 6.1355 10.8577 6.6373C10.7507 7.13909 10.1473 8.2295 9.19565 9.18428C8.24396 10.1391 7.12199 10.7775 6.62191 10.8849C6.12184 10.9922 5.84017 10.7028 5.41043 10.3871C4.80468 9.94218 4.70373 9.97584 3.88597 10.3561C3.24994 10.6526 1.96779 11.4614 1.43608 12.0018C0.864997 12.58 0.965954 12.58 1.12075 12.9526C1.24836 13.2559 1.40347 13.5469 1.58415 13.8219C1.94187 14.3604 2.23902 14.6592 2.68559 14.8682C3.13216 15.0772 4.17909 15.1711 6.13967 14.0918C8.10026 13.0125 9.10277 12.2553 10.6656 10.688C12.2284 9.12067 13.0687 7.9155 14.0567 6.15368C15.2773 3.9742 15.0394 3.13822 14.8307 2.69028C14.6221 2.24233 14.326 1.94382 13.7875 1.58539C13.513 1.40424 13.2223 1.24877 12.9193 1.12096C12.5481 0.965811 12.5481 0.864848 11.9703 1.43698Z" stroke="#2E2E2E" stroke-width="2" stroke-linecap="round" stroke-linejoin="round"/>
<path d="M8 1C7.08075 1 6.17049 1.18106 5.32122 1.53284C4.47194 1.88463 3.70026 2.40024 3.05025 3.05025C2.40024 3.70026 1.88463 4.47194 1.53284 5.32122C1.18106 6.1705 1 7.08075 1 8" stroke="#2E2E2E" stroke-width="2" stroke-linecap="round" stroke-linejoin="round"/>
<path d="M7.57303 4.02285C6.65897 4.12098 5.8066 4.53097 5.15937 5.18383C4.51213 5.83669 4.10953 6.69258 4.01931 7.60746" stroke="#2E2E2E" stroke-width="2" stroke-linecap="round" stroke-linejoin="round"/>
</g>
<defs>
<clipPath id="clip0_6624_721">
<rect width="16" height="16" fill="white"/>
</clipPath>
</defs>
</svg>
