<svg width="64" height="25" viewBox="0 0 64 25" fill="none" xmlns="http://www.w3.org/2000/svg">
<path d="M7.09668 12.1875L3.89224 14.0164L0.918945 19.113L13.0478 12.1875H7.09668Z" fill="#874691"/>
<path d="M16.252 6.96558L13.0475 8.79446L10.0742 13.8911L22.1985 6.96558H16.252Z" fill="#DA1844"/>
<path d="M13.0475 5.13645L10.0742 0.0397949V10.4886V13.8909V24.3397L13.0475 19.243V5.13645Z" fill="#F9B229"/>
<path d="M10.0742 0.0397949L13.0475 5.13645L16.252 6.96532H22.1985L10.0742 0.0397949Z" fill="#F07F1A"/>
<path d="M10.0742 10.4883V24.3394L13.0475 19.2427V15.5805L10.0742 10.4883Z" fill="#72B22C"/>
<path d="M16.252 17.4141L13.0475 19.243L10.0742 24.3396L22.1985 17.4141H16.252Z" fill="#00743E"/>
<path d="M0.918945 5.26245V19.1135L3.89224 14.0169V10.3591L0.918945 5.26245Z" fill="#5F5A94"/>
<path d="M10.0745 10.4891V10.4936L0.918945 5.26245L3.89224 10.3591L16.2523 17.4147H22.1988L10.0745 10.4891Z" fill="#0D90CD"/>
<path d="M63.058 8.2751V18.827H59.3147V11.4157H55.7019V18.827H51.9592V8.2751H63.058Z" fill="#1B0A40"/>
<path d="M50.1105 13.8887C50.1641 16.923 47.6638 19.1305 44.1201 19.1305C40.7604 19.1305 37.9302 17.1203 37.9302 12.2274C37.9302 8.07029 40.6145 4.64149 44.58 4.58081H50.1105L48.3541 7.70621H44.979C44.1433 7.67939 43.3274 7.95883 42.6874 8.4909C42.0473 9.02296 41.629 9.77011 41.5121 10.5888C42.5777 9.68524 43.9438 9.20414 45.3471 9.23853C46.5982 9.25737 47.7938 9.75156 48.6865 10.6187C49.5792 11.4859 50.0999 12.6595 50.141 13.8962M46.3982 14.139C46.403 13.8473 46.3494 13.5575 46.2398 13.2866C46.1301 13.0158 45.9668 12.7692 45.7596 12.5615C45.5529 12.3538 45.3055 12.1891 45.0331 12.077C44.7611 11.9649 44.4689 11.9077 44.1737 11.9088C43.8694 11.9015 43.567 11.9554 43.2844 12.0672C43.0018 12.179 42.7453 12.3463 42.5304 12.5591C42.3149 12.7719 42.1458 13.0257 42.0328 13.3051C41.9198 13.5845 41.8652 13.8837 41.8724 14.1845C41.884 14.7545 42.1164 15.2982 42.5221 15.7034C42.9274 16.1086 43.4747 16.3443 44.051 16.3617C44.3491 16.3697 44.6457 16.3189 44.9234 16.2122C45.2012 16.1055 45.4548 15.9449 45.6688 15.74C45.8833 15.5351 46.0543 15.29 46.1712 15.019C46.2886 14.748 46.3499 14.4566 46.3518 14.1618" fill="#1B0A40"/>
<path d="M35.0381 15.2238C34.1532 15.7557 33.1361 16.0341 32.1005 16.0279C31.4425 16.0063 30.8185 15.7336 30.3594 15.2668C29.9004 14.8001 29.6419 14.1757 29.6383 13.5246C29.642 12.8722 29.9015 12.2467 30.3622 11.7797C30.8229 11.3128 31.4488 11.0409 32.1082 11.0212C33.1421 11.0099 34.1581 11.2887 35.0381 11.8253L36.4341 9.33717C35.2564 8.43509 33.8048 7.95386 32.3153 7.97169C28.6565 7.97169 26.1406 10.915 26.1406 13.5246C26.1406 16.5589 28.9327 19.1154 32.2769 19.1305C33.7806 19.1561 35.2478 18.6715 36.4341 17.7575L35.0381 15.2238Z" fill="#1B0A40"/>
</svg>
