<svg width="30" height="24" viewBox="0 0 30 24" fill="none" xmlns="http://www.w3.org/2000/svg">
<path fill-rule="evenodd" clip-rule="evenodd" d="M5.08887 4.10826C5.53554 3.97291 6.00942 3.90014 6.50029 3.90014H21.0803C23.7644 3.90014 25.9403 6.07603 25.9403 8.76014V18.2037C27.8281 17.5366 29.1806 15.7363 29.1806 13.6202V5.52016C29.1806 2.83605 27.0047 0.660156 24.3206 0.660156H9.7406C7.54754 0.660156 5.69375 2.11273 5.08887 4.10826Z" fill="#3AA600"/>
<path fill-rule="evenodd" clip-rule="evenodd" d="M3.25953 5.52014C1.47013 5.52014 0.0195312 6.97074 0.0195312 8.76014V20.1001C0.0195312 21.8895 1.47013 23.3401 3.25953 23.3401H21.0795C22.8689 23.3401 24.3195 21.8895 24.3195 20.1001V8.76014C24.3195 6.97074 22.8689 5.52014 21.0795 5.52014H3.25953ZM4.87953 10.3801C3.98483 10.3801 3.25953 11.1054 3.25953 12.0001C3.25953 12.8948 3.98483 13.6201 4.87953 13.6201H6.49953C7.39423 13.6201 8.11953 12.8948 8.11953 12.0001C8.11953 11.1054 7.39423 10.3801 6.49953 10.3801H4.87953ZM3.25953 17.6701C3.25953 17.2228 3.62218 16.8601 4.06953 16.8601H5.68953C6.13688 16.8601 6.49953 17.2228 6.49953 17.6701C6.49953 18.1175 6.13688 18.4801 5.68953 18.4801H4.06953C3.62218 18.4801 3.25953 18.1175 3.25953 17.6701ZM8.92953 16.8601C8.48218 16.8601 8.11953 17.2228 8.11953 17.6701C8.11953 18.1175 8.48218 18.4801 8.92953 18.4801H10.5495C10.9969 18.4801 11.3595 18.1175 11.3595 17.6701C11.3595 17.2228 10.9969 16.8601 10.5495 16.8601H8.92953ZM12.9795 17.6701C12.9795 17.2228 13.3422 16.8601 13.7895 16.8601H15.4095C15.8569 16.8601 16.2195 17.2228 16.2195 17.6701C16.2195 18.1175 15.8569 18.4801 15.4095 18.4801H13.7895C13.3422 18.4801 12.9795 18.1175 12.9795 17.6701ZM18.6495 16.8601C18.2022 16.8601 17.8395 17.2228 17.8395 17.6701C17.8395 18.1175 18.2022 18.4801 18.6495 18.4801H20.2695C20.7169 18.4801 21.0795 18.1175 21.0795 17.6701C21.0795 17.2228 20.7169 16.8601 20.2695 16.8601H18.6495Z" fill="#3AA600"/>
</svg>
