<svg width="48" height="48" viewBox="0 0 48 48" fill="none" xmlns="http://www.w3.org/2000/svg">
<path d="M24 38L24 42M24 4L24 8M9 23L5 23M43 23L39 23M13.3945 33.6064L10.5661 36.4349M37.4355 9.56494L34.6071 12.3934M12.851 12.9645L9.87808 10.2884M38.121 35.7116L35.1481 33.0354" stroke="#2E2E2E" stroke-width="4" stroke-linecap="round" stroke-linejoin="round"/>
<path d="M22.4174 16.0483C23.218 15.012 24.782 15.012 25.5826 16.0483L27.4457 18.4595C27.697 18.7847 28.0424 19.0247 28.435 19.1466L31.2681 20.0267C32.595 20.4389 33.1076 22.0451 32.2649 23.1498L30.6077 25.3221C30.3432 25.6688 30.1992 26.0926 30.1978 26.5287L30.1889 29.3098C30.1847 30.6502 28.889 31.607 27.6067 31.2168L24.5823 30.2964C24.2027 30.1809 23.7973 30.1809 23.4177 30.2964L20.3933 31.2168C19.111 31.607 17.8153 30.6502 17.8111 29.3098L17.8022 26.5287C17.8008 26.0926 17.6568 25.6688 17.3923 25.3221L15.7351 23.1498C14.8924 22.0451 15.405 20.4389 16.7319 20.0267L19.565 19.1466C19.9576 19.0247 20.303 18.7847 20.5543 18.4595L22.4174 16.0483Z" stroke="white" stroke-width="4" stroke-linecap="round" stroke-linejoin="round"/>
</svg>
