<svg width="46" height="38" viewBox="0 0 46 38" fill="none" xmlns="http://www.w3.org/2000/svg">
<path d="M20.2839 31.7598H28.3007M7 31.7598H10.7641M37.7369 31.7599H38.9895C41.7453 31.7599 44 29.4233 44 26.5676L44 19.5091C44 17.9057 43.5181 16.3392 42.617 15.013L36.4434 5.92721C34.9541 3.73546 32.4762 2.42334 29.8264 2.42334H12M6.99997 8H17.4384M2 14H12.4384M4.3338 20.3368H14.7722M20.2837 31.0675C20.2837 33.7502 18.196 36.0002 15.5238 36.0002C12.8515 36.0002 10.7639 33.8368 10.7639 31.0675C10.7639 28.3848 12.8515 26.1348 15.5238 26.1348C18.196 26.1348 20.2837 28.3848 20.2837 31.0675ZM37.7369 31.0675C37.7369 33.7502 35.6492 36.0002 32.977 36.0002C30.3883 36.0002 28.2171 33.8368 28.2171 31.0675C28.2171 28.3848 30.3047 26.1348 32.977 26.1348C35.6492 26.1348 37.7369 28.3848 37.7369 31.0675Z" stroke="#2E2E2E" stroke-width="4" stroke-linecap="round" stroke-linejoin="round"/>
</svg>
