<svg width="21" height="20" viewBox="0 0 21 20" fill="none" xmlns="http://www.w3.org/2000/svg">
<path d="M19.5 10C19.5 14.9706 15.4706 19 10.5 19M19.5 10C19.5 5.02944 15.4706 1 10.5 1M19.5 10H1.5M10.5 19C5.52944 19 1.5 14.9706 1.5 10M10.5 19C12.7512 16.5355 14.0305 13.3372 14.1 10C14.0305 6.66283 12.7512 3.46452 10.5 1M10.5 19C8.24885 16.5355 6.96952 13.3372 6.9 10C6.96952 6.66283 8.24885 3.46452 10.5 1M1.5 10C1.5 5.02944 5.52944 1 10.5 1" stroke="#3AA600" stroke-width="2" stroke-linecap="round" stroke-linejoin="round"/>
</svg>
