<svg width="76" height="16" viewBox="0 0 76 16" fill="none" xmlns="http://www.w3.org/2000/svg">
<path fill-rule="evenodd" clip-rule="evenodd" d="M48.1561 15.4255V1.18629H61.0817V2.83172H51.0828V7.14551H59.5609V8.79152H51.0828V13.7831H61.6512V15.4257L48.1561 15.4255ZM64.011 15.4255V1.18629H66.938V13.7831L75.875 13.7746L75.1715 15.4203L64.011 15.4255ZM17.0063 14.2528C18.4045 14.9672 20.8413 15.864 24.275 15.864C29.095 15.864 31.0421 13.498 31.3184 11.5078C31.8511 7.68933 27.1447 7.09418 23.9958 6.69266C22.4046 6.49018 19.3008 6.36813 19.2814 4.45748C19.2671 2.89703 21.3822 2.44161 23.3696 2.44161C25.8523 2.44161 27.7056 3.11347 28.7106 3.58914L29.7896 1.96309C28.4317 1.44209 26.148 0.767086 23.3895 0.749975C21.6814 0.738568 20.4397 1.01461 19.6766 1.32517C15.9871 2.81975 15.8191 6.99437 19.3952 8.44047C20.5452 8.90473 21.9403 9.12973 23.2726 9.31195C26.211 9.71661 29.2743 9.9784 28.7163 12.1908C28.3119 13.788 25.8919 14.1214 24.275 14.1185C20.6106 14.1185 18.0369 12.6804 17.0063 11.9826V14.2528ZM0.875 15.4255V1.18629H14.74V2.83172H3.80513V7.14551H13.2229V8.79152H3.80485V13.7831H14.74V15.4257L0.875 15.4255ZM37.2004 15.4255V2.83172H31.5577V1.18629H45.7929V2.83172H40.1528V15.4257L37.2004 15.4255Z" fill="#888888"/>
</svg>
