<svg width="30" height="30" viewBox="0 0 30 30" fill="none" xmlns="http://www.w3.org/2000/svg">
<circle cx="14.7106" cy="14.613" r="14.613" fill="#8588DC"/>
<path d="M13.4772 11.2235C13.4772 11.5205 13.4772 12.8514 13.4772 12.8514H12.2734V14.8423H13.4772V20.7598H15.9486V14.8423H17.6073C17.6073 14.8423 17.7626 13.8881 17.8375 12.8432C17.6212 12.8432 15.9569 12.8432 15.9569 12.8432C15.9569 12.8432 15.9569 11.6855 15.9569 11.482C15.9569 11.2785 16.226 11.0036 16.4923 11.0036C16.7585 11.0036 17.3188 11.0036 17.8403 11.0036C17.8403 10.7313 17.8403 9.79642 17.8403 8.93024C17.1468 8.93024 16.3563 8.93024 16.0096 8.93024C13.4162 8.93299 13.4772 10.9266 13.4772 11.2235Z" fill="white"/>
</svg>
