<svg width="24" height="24" viewBox="0 0 24 24" fill="none" xmlns="http://www.w3.org/2000/svg">
<path d="M3 12H5.48398M5.48398 12C5.48398 13.1046 6.41021 14 7.55278 14C8.69535 14 9.62158 13.1046 9.62158 12M5.48398 12C5.48398 10.8954 6.41021 10 7.55278 10C8.69535 10 9.62158 10.8954 9.62158 12M3 6H14.2764M3 18H14.2764M18.9312 18H21M18.9312 18C18.9312 19.1046 18.005 20 16.8624 20C15.7198 20 14.7936 19.1046 14.7936 18C14.7936 16.8954 15.7198 16 16.8624 16C18.005 16 18.9312 16.8954 18.9312 18ZM18.9312 6H21M18.9312 6C18.9312 7.10457 18.005 8 16.8624 8C15.7198 8 14.7936 7.10457 14.7936 6C14.7936 4.89543 15.7198 4 16.8624 4C18.005 4 18.9312 4.89543 18.9312 6ZM9.62158 12H21" stroke="#2E2E2E" stroke-width="2" stroke-linecap="round" stroke-linejoin="round"/>
</svg>
