<svg width="48" height="48" viewBox="0 0 48 48" fill="none" xmlns="http://www.w3.org/2000/svg">
<rect x="4" y="6" width="40" height="36" rx="6" stroke="white" stroke-width="4" stroke-linecap="round" stroke-linejoin="round"/>
<path d="M14.2709 17.4058C14.3902 17.3597 14.4976 17.2905 14.5692 17.2098C14.8675 16.8983 14.9868 16.4484 14.951 16.0332C14.8794 15.2026 14.2351 14.4067 13.4356 14.1183C12.9583 13.9453 12.4333 13.9568 11.9799 14.1875C11.2281 14.5682 10.7508 15.7909 10.5957 16.5638C10.4167 17.5097 10.6435 18.594 10.9298 19.4937C11.1446 20.1743 11.2759 20.8895 11.4549 21.5816C11.5264 21.87 11.61 22.1584 11.6696 22.4467C11.789 23.0235 11.7054 23.7502 10.894 23.6233C9.90365 23.4734 10.4287 22.7928 10.3809 22.193C10.3571 21.8815 10.2378 21.5239 9.89172 21.4201C9.24737 21.2471 8.59109 22.5621 8.59109 23.0466C8.59109 24.3154 10.369 24.7884 11.4429 24.6615C12.672 24.5115 13.5072 23.2657 13.6862 22.1584C13.9845 20.3127 12.481 18.5709 12.0515 16.8522C11.9202 16.3446 11.9321 15.9409 12.5646 15.8832C13.0896 15.8371 13.364 16.1254 13.2805 16.6215C13.2447 16.8522 13.1015 17.0713 13.2924 17.2905C13.5192 17.5443 13.9487 17.5443 14.2709 17.4058Z" fill="white"/>
<path d="M13.6743 20.0128C13.8294 20.0013 13.9964 19.9897 14.1516 19.9436C14.2948 19.8975 14.5215 19.7821 14.5453 19.6206C14.5811 19.4476 14.3902 19.3092 14.2351 19.263C14.08 19.2169 13.8294 19.2515 13.6743 19.2515C13.185 19.2399 12.7078 19.2515 12.2305 19.2746C11.6816 19.2976 11.1207 19.2515 10.5838 19.2976C10.1184 19.3322 9.46215 19.2053 9.03259 19.436C8.86553 19.5283 8.71041 19.7936 8.87747 19.9436C8.99679 20.0474 9.19964 20.0013 9.34283 20.0128C10.2139 20.1051 11.0969 20.0589 11.9679 20.1166C12.3378 20.1397 12.6839 20.1166 13.0419 20.0589C13.2447 20.0128 13.4595 20.0243 13.6743 20.0128Z" fill="white"/>
<path d="M16.5977 21.1087C16.5738 20.7741 16.5858 20.4627 16.6096 20.1858C16.6574 19.6437 16.7648 19.09 16.9318 18.5709C17.0631 18.1672 17.6 17.0944 18.1728 17.7634C18.316 17.9249 18.3279 18.2248 18.304 18.4209C18.2324 19.1707 17.7909 19.9551 17.4449 20.6126C17.0631 21.3624 16.5142 22.0891 15.8937 22.6659C15.2016 23.3119 14.4499 23.9348 13.722 24.5577C13.5549 24.6961 13.0538 24.9268 13.0657 25.146C13.0777 25.4574 13.543 25.3305 13.7339 25.2729C14.2828 25.1114 14.7601 24.6269 15.1777 24.2693C15.5715 23.9232 15.9295 23.4849 16.2397 23.0812C16.5619 22.6774 16.9795 22.3545 17.2778 21.9277C17.6358 21.4201 17.9819 20.9126 18.3518 20.4165C18.9842 19.5629 19.7956 17.9595 19.3421 16.9098C19.1154 16.3908 18.8529 16.1139 18.2563 16.2177C17.5404 16.3446 17.0273 16.7714 16.55 17.2905C15.2255 18.7209 14.6408 20.5896 14.5215 22.4813C14.4737 23.358 14.4857 24.3385 15.2016 24.9614C15.6192 25.319 15.9772 25.4228 16.55 25.3998C16.9915 25.3882 17.3972 25.1806 17.779 24.996C18.4353 24.673 18.9126 24.0386 19.1751 23.3811C19.3063 23.0466 19.4137 22.6659 19.4018 22.3083C19.3899 22.1584 19.3779 21.9969 19.2944 21.87C19.2586 21.8123 19.2228 21.7662 19.187 21.7085C19.1512 21.6623 19.1154 21.6047 19.0677 21.5701C19.008 21.6393 19.008 21.8008 18.9961 21.8815C18.9245 22.2622 18.8052 22.6198 18.6381 22.9774C18.5665 23.1389 18.483 23.2773 18.3518 23.3926C18.1608 23.5657 17.9222 23.6579 17.6835 23.508C16.9318 23.0466 16.6574 22.0315 16.5977 21.1087Z" fill="white"/>
<path d="M20.7502 20.4627C20.8456 20.255 20.9649 20.0589 21.0962 19.8628C21.1797 19.736 21.2275 19.6206 21.2633 19.4707C21.299 19.3207 21.4542 19.1592 21.3587 19.0092C21.2275 18.8131 20.8933 18.9054 20.7144 18.9746C20.4757 19.0669 20.2371 19.1938 20.0342 19.3438C19.6047 19.6437 19.3421 20.0474 19.1751 20.5319C18.8887 21.397 18.9245 22.712 19.6405 23.358C20.4041 24.0617 21.8121 24.0271 22.6593 23.531C23.6378 22.9543 24.0316 21.7777 23.7929 20.7165C23.6378 20.0243 23.2798 19.2861 22.5997 18.9516C22.0031 18.6517 21.0365 18.4786 20.5354 19.0438C19.891 19.7706 20.2013 20.6357 21.1797 20.7511C22.2656 20.8779 24.0554 20.3704 24.7117 19.5514C24.8907 19.3322 25.1174 19.0669 25.1174 18.767C25.1174 18.4786 24.843 18.3633 24.6043 18.5017C24.3299 18.6632 24.1747 18.9862 23.9838 19.2284C23.7332 19.5399 23.3872 19.759 23.077 20.0013C22.6951 20.2897 21.9076 20.4742 21.4542 20.2435C21.3468 20.1858 21.299 20.0705 21.2752 19.9667C21.2036 19.5629 21.7644 19.1015 22.0627 19.5399C22.2417 19.8052 22.2178 20.1628 22.2178 20.4627C22.2178 20.8895 22.1343 21.3278 21.9553 21.7316C21.8718 21.9161 21.7525 22.1122 21.5974 22.2506C21.299 22.516 20.774 22.4929 20.5234 22.2045C20.1177 21.7085 20.5354 20.9472 20.7502 20.4627Z" fill="white"/>
<path d="M26.7999 20.7741C26.7999 20.0589 26.6925 19.1361 26.0959 18.6401C25.5708 18.2018 24.3179 18.1095 24.4134 19.0669C24.4731 19.6552 24.7356 20.2204 24.831 20.7972C24.9623 21.5355 25.0577 22.4929 24.9623 23.2427C24.9026 23.7502 24.4611 24.7192 25.4157 24.6038C26.3345 24.4885 26.4777 23.358 26.6209 22.6198C26.7521 22.0084 26.7999 21.3855 26.7999 20.7741Z" fill="white"/>
<path d="M27.0982 21.2932C26.8476 21.9969 26.776 22.8274 26.4419 23.4849C26.3226 23.7156 25.7618 24.6384 25.5231 24.0847C25.4157 23.831 25.714 23.2311 25.7618 22.9543C25.8572 22.4352 26.072 21.9507 26.2629 21.4547C26.5135 20.8087 26.7879 20.1282 27.2056 19.5745C27.7306 18.8824 28.6613 18.1787 29.604 18.2941C29.9619 18.3402 30.475 18.5363 30.6063 18.8708C30.7733 19.2976 30.475 19.8744 30.1648 20.1397C29.604 20.6242 29.0551 20.255 28.5181 20.0013C28.1721 19.8398 27.8738 19.8975 27.6232 20.1743C27.3607 20.4973 27.2414 20.9126 27.0982 21.2932Z" fill="white"/>
<path d="M30.8688 22.0084C30.9762 22.0084 31.0597 21.9623 31.0716 21.8123C31.1194 21.3394 29.8545 21.3163 29.5682 21.3394C28.8045 21.397 28.005 21.8123 27.5993 22.4467C27.2056 23.0466 27.0862 23.9117 27.6829 24.4423C29.0193 25.642 30.8569 24.65 31.4893 23.2657C31.6563 22.9081 31.716 22.1007 31.191 22.6544C30.7733 23.0927 30.6302 23.4849 29.9261 23.2773C29.3773 23.1158 29.1863 22.6198 29.6159 22.1699C29.8426 21.9277 30.1648 21.893 30.475 21.9392C30.5586 21.9507 30.7256 22.0084 30.8688 22.0084Z" fill="white"/>
<path d="M32.3245 21.8238C32.0859 21.1779 31.716 20.3473 31.2029 20.7395C30.2245 21.4778 30.5705 24.0617 31.4058 24.7999C31.7995 25.146 32.3723 25.2498 32.8854 25.1921C33.8042 25.0998 34.711 24.0271 34.6872 23.1273C34.6872 22.9312 34.353 21.9507 34.007 22.4121C33.8638 22.5967 34.0667 23.1965 33.9831 23.4388C33.6013 24.5 32.6825 22.7467 32.5393 22.4237C32.4916 22.3083 32.42 22.0776 32.3245 21.8238Z" fill="white"/>
<path d="M17.242 30.6021C17.3852 30.706 17.5284 30.8098 17.6835 30.9136C17.9222 31.0866 18.2921 31.3865 18.6023 31.2135C18.9126 31.052 19.0319 30.4868 19.0438 30.1753C19.0558 29.9562 19.0558 29.7485 18.9006 29.5755C18.7813 29.4371 18.5427 29.3333 18.4353 29.5409C18.3518 29.6793 18.483 30.1753 18.1489 29.9792C17.9222 29.8408 17.7551 29.3217 17.6477 29.091C17.4926 28.7911 17.3375 28.4797 17.1585 28.1913C16.7886 27.603 16.2875 27.1185 15.5835 26.9109C15.0346 26.7494 14.1516 26.6571 13.722 27.1416C13.4953 27.3953 13.4714 28.1451 13.6027 28.445C13.722 28.7334 13.9964 28.918 14.3067 28.9757C15.4164 29.1602 16.3591 29.9677 17.242 30.6021Z" fill="white"/>
<path d="M18.8291 26.1957C19.0916 26.6802 18.7097 27.2223 18.4949 27.6607C18.2921 28.0759 18.0892 28.4797 17.8506 28.8603C17.3136 29.737 16.6454 30.5675 15.8698 31.2596C15.4164 31.6634 13.9845 32.6785 13.5669 31.6864C13.364 31.1904 13.6385 30.6252 14.2232 30.6829C15.6312 30.8213 16.8721 28.9872 17.3972 27.9375C17.5046 27.7068 17.6358 27.4646 17.5284 27.2223C17.433 26.9916 17.254 26.9916 17.075 26.7955C16.8244 26.5187 16.8006 26.1726 17.1108 25.9304C17.5165 25.6189 18.2086 25.6189 18.6023 25.9304C18.7097 26.0111 18.7813 26.1034 18.8291 26.1957Z" fill="white"/>
<path d="M20.3922 33.5782C21.7047 31.8941 21.657 29.6447 21.4064 27.6607C21.299 26.8647 21.1678 26.1726 20.5592 25.5728C20.2132 25.2267 19.366 24.8345 19.3183 25.5728C19.2944 25.8612 19.4137 26.138 19.5092 26.4033C19.6047 26.6917 19.6643 26.9801 19.712 27.28C19.8672 28.3066 19.8552 29.3679 19.8433 30.3945C19.8314 31.3635 19.5808 32.2863 19.4137 33.2206C19.3779 33.3937 19.2586 33.7974 19.5092 33.9358C19.8194 34.1088 20.1297 33.9127 20.3922 33.5782Z" fill="white"/>
<path d="M22.7071 29.2294C22.7429 29.1602 22.7667 29.091 22.7906 29.0218C22.9218 28.6527 22.9934 28.1567 22.8145 27.7875C22.5639 27.3031 22.015 27.3377 21.7763 27.8221C21.5258 28.3412 21.49 29.0103 21.5138 29.564C21.5258 29.7601 21.5138 29.9677 21.5138 30.1638C21.5019 30.4176 21.2036 31.1789 20.8337 30.8674C20.607 30.6713 20.6905 30.1407 20.6666 29.8754C20.6189 29.414 20.6308 28.9526 20.6428 28.4912C20.6547 28.1336 20.6189 27.7299 20.7502 27.3953C20.9769 26.8186 21.4542 26.138 22.0269 25.8612C22.6951 25.5382 23.4469 25.5843 24.0196 26.0457C24.652 26.5533 24.7594 27.3146 24.7594 28.0759C24.7475 29.8062 23.1963 30.7982 21.5138 30.729C21.3587 30.7175 20.8933 30.7521 20.7979 30.6137C20.6547 30.383 21.2394 30.3022 21.3706 30.2676C21.9315 30.1061 22.4446 29.7255 22.7071 29.2294Z" fill="white"/>
<path d="M27.2056 27.776C27.3488 26.807 27.313 25.3421 25.9288 25.3075C24.6759 25.2729 25.3322 26.4841 25.4754 27.1531C25.6902 28.1451 25.5947 29.1718 25.4396 30.1753C25.3918 30.4406 25.3083 30.7175 25.3322 30.9943C25.3441 31.1558 25.2845 31.225 25.4515 31.3173C26.072 31.6749 26.5016 30.8213 26.6447 30.406C26.9431 29.5524 27.0862 28.6758 27.2056 27.776Z" fill="white"/>
<path d="M27.7783 27.9836C27.48 28.5027 26.2629 32.3209 25.7618 31.1097C25.9169 30.3484 26.4061 29.6101 26.7044 28.8834C26.9789 28.1913 27.3488 27.5222 27.7425 26.8993C28.1244 26.2995 28.7568 25.7343 29.5324 25.8958C30.487 26.0919 30.3199 27.0608 29.4488 27.3261C29.0551 27.4415 28.6374 27.1185 28.363 27.1992C28.184 27.2685 27.8738 27.8106 27.7783 27.9836Z" fill="white"/>
<path d="M30.3676 31.3404C30.9762 31.2712 31.5847 30.9597 32.0382 30.556C32.2649 30.3599 32.4677 30.0831 32.599 29.8177C32.6945 29.6332 32.778 29.2871 32.4797 29.2641C32.1814 29.241 31.8711 29.6909 31.6683 29.8408C31.191 30.2215 30.6421 30.3138 30.1051 29.9908C29.7949 29.8062 29.6517 29.4025 29.7591 29.068C29.8307 28.8488 29.9381 28.5258 30.1648 28.3874C30.487 28.1682 30.8091 28.3412 30.7733 28.6988C30.7256 29.1487 30.3318 29.4948 29.9739 29.7255C29.7949 29.8408 29.425 29.9216 29.2818 30.0484C28.888 30.3945 29.3415 30.3368 29.5801 30.2445C30.0455 30.0715 30.487 29.7947 30.8807 29.4832C31.2268 29.2064 31.7757 28.6527 31.5847 28.1567C31.4535 27.7875 30.8688 27.6261 30.5108 27.6145C29.6159 27.5568 28.5778 28.3412 28.3033 29.1372C27.8499 30.5099 28.9596 31.5134 30.3676 31.3404Z" fill="white"/>
<path d="M9.79626 30.8444C10.6554 31.052 11.6577 30.9136 12.4452 30.5214C12.6958 30.3945 12.9464 30.233 13.1492 30.0254C13.3044 29.8639 13.6265 29.4602 13.5072 29.2294C13.3998 29.0333 13.0419 29.068 12.8629 29.1141C12.3856 29.241 11.956 29.5294 11.4668 29.6332C11.2043 29.6909 10.8821 29.6678 10.6315 29.564C10.2378 29.3909 9.82012 29.0449 9.79626 28.595C9.78432 28.2374 9.91558 27.8452 10.1781 27.5799C10.4287 27.3377 10.9179 26.9916 11.2878 27.2223C11.6935 27.4646 11.3713 27.9836 11.1327 28.2028C10.8224 28.5027 10.3929 28.6642 9.97524 28.7796C9.68887 28.8603 9.21157 28.8026 8.97292 28.9065C8.32858 29.1833 8.9252 29.2871 9.2593 29.2756C9.91558 29.241 10.5838 29.0795 11.2043 28.8603C12.0157 28.5604 12.7197 27.8798 12.8509 27.0378C12.9941 26.1034 12.3021 25.5151 11.3713 25.4805C9.36669 25.3882 7.6365 27.2685 8.06607 29.1833C8.29278 30.1061 8.97292 30.6483 9.79626 30.8444Z" fill="white"/>
<path d="M34.7707 26.8301C34.9855 25.7112 32.7422 26.2995 32.4319 26.9339C32.1336 27.5453 32.3842 28.0067 32.8615 28.3989C33.3269 28.7911 33.9354 28.9641 34.1025 29.587C34.186 29.8754 34.1741 30.3484 33.9831 30.6021C33.6252 31.0635 33.4581 30.6944 33.1598 30.4983C32.5751 30.1061 32.1694 30.7867 32.4081 31.3289C32.6706 31.9056 33.7564 31.8364 34.2576 31.6172C34.9377 31.3173 35.5105 30.6829 35.7849 30.0254C36.1548 29.1487 35.9281 28.5258 35.1406 27.9606C34.8423 27.7414 34.5917 27.6607 34.2337 27.5684C33.9951 27.4992 33.7326 27.4069 33.649 27.1531C33.4462 26.4149 34.6872 27.2569 34.7707 26.8301Z" fill="white"/>
<path d="M36.8469 27.9721C36.8946 28.0067 36.9304 28.0413 36.9662 28.0759C37.3481 28.3989 37.8612 29.2179 37.7299 29.7255C37.4793 30.729 36.7037 29.5986 36.2742 29.7485C35.9639 29.8639 35.9758 30.3022 36.1429 30.5099C36.5486 31.0289 37.8612 30.9943 38.41 30.7636C39.1618 30.4522 39.8181 29.6678 39.9493 28.8949C40.0925 28.0759 39.7226 27.4992 39.0425 27.0493C38.589 26.7378 37.9089 26.5763 37.3839 26.3918C37.1691 26.311 36.9782 26.3226 36.8588 26.1149C36.7276 25.8842 36.835 25.5497 37.0617 25.4228C37.4793 25.2037 38.3862 26.2418 38.3027 25.2037C38.2191 24.2462 37.3003 24.3616 36.6321 24.7076C36.0116 25.0306 35.4508 25.5266 35.4628 26.2649C35.4866 26.9685 36.31 27.5453 36.8469 27.9721Z" fill="white"/>
<path d="M38.3981 21.6277C38.8993 22.0199 39.2572 22.4237 39.3408 23.1735C40.0567 21.6162 40.4505 19.1361 39.126 17.9941C38.8157 17.7288 38.3385 17.5097 37.9566 17.5789C37.4913 17.6712 37.3003 18.098 37.4555 18.5824C37.014 18.1672 36.0832 17.6942 35.5224 18.4786C35.1644 18.9746 35.4508 19.9205 36.3219 20.4973C37.1572 21.051 37.8254 21.1894 38.3981 21.6277Z" fill="white"/>
</svg>
