<svg width="48" height="48" viewBox="0 0 48 48" fill="none" xmlns="http://www.w3.org/2000/svg">
<path d="M30 24C30 27.3137 27.3137 30 24 30C20.6863 30 18 27.3137 18 24C18 20.6863 20.6863 18 24 18C27.3137 18 30 20.6863 30 24Z" stroke="#2E2E2E" stroke-width="4" stroke-linecap="round" stroke-linejoin="round"/>
<path d="M24 4C29.5228 4 34 8.47715 34 14C39.5228 14 44 18.4772 44 24C44 29.5228 39.5228 34 34 34C34 39.5228 29.5228 44 24 44C18.4772 44 14 39.5228 14 34C8.47715 34 4 29.5228 4 24C4 18.4772 8.47715 14 14 14C14 8.47715 18.4772 4 24 4Z" stroke="#2E2E2E" stroke-width="4" stroke-linecap="round" stroke-linejoin="round"/>
</svg>
