<svg width="23" height="21" viewBox="0 0 23 21" fill="none" xmlns="http://www.w3.org/2000/svg">
<path d="M21.5 17.5C21.5 18.0304 21.2893 18.5391 20.9142 18.9142C20.5391 19.2893 20.0304 19.5 19.5 19.5H3.5C2.96957 19.5 2.46086 19.2893 2.08579 18.9142C1.71071 18.5391 1.5 18.0304 1.5 17.5V6.5C1.5 5.96957 1.71071 5.46086 2.08579 5.08579C2.46086 4.71071 2.96957 4.5 3.5 4.5H4.69722C5.8235 4.5 6.87526 3.93712 7.5 3V3C8.12474 2.06288 9.1765 1.5 10.3028 1.5H12.6972C13.8235 1.5 14.8753 2.06288 15.5 3V3C16.1247 3.93712 17.1765 4.5 18.3028 4.5H19.5C20.0304 4.5 20.5391 4.71071 20.9142 5.08579C21.2893 5.46086 21.5 5.96957 21.5 6.5V17.5Z" stroke="#3AA600" stroke-width="2" stroke-linecap="round" stroke-linejoin="round"/>
<path d="M11.5 15.5C13.7091 15.5 15.5 13.7091 15.5 11.5C15.5 9.29086 13.7091 7.5 11.5 7.5C9.29086 7.5 7.5 9.29086 7.5 11.5C7.5 13.7091 9.29086 15.5 11.5 15.5Z" stroke="#3AA600" stroke-width="2" stroke-linecap="round" stroke-linejoin="round"/>
</svg>
