<svg width="24" height="24" viewBox="0 0 24 24" fill="none" xmlns="http://www.w3.org/2000/svg">
<g clip-path="url(#clip0_4750_18145)">
<path d="M19.112 9.32324C19.3786 9.45398 19.6029 9.65552 19.7598 9.9052C19.9167 10.1549 19.9998 10.4428 20 10.7366V18.2613C19.9998 18.5551 19.9167 18.843 19.7598 19.0927C19.6029 19.3424 19.3786 19.5439 19.112 19.6747L12.712 22.833C12.4897 22.9428 12.2446 22.9999 11.996 22.9999C11.7475 22.9999 11.5023 22.9428 11.28 22.833L4.88004 19.6747C4.61374 19.5422 4.39024 19.339 4.23475 19.0879C4.07926 18.8367 3.99796 18.5477 4.00004 18.2534V10.7366C4.0002 10.4428 4.08339 10.1549 4.24026 9.9052C4.39713 9.65552 4.62147 9.45398 4.88804 9.32324M4.25604 9.88385L12 13.7054M12 13.7054L12 22.9909M12 13.7054L15.872 11.7946L19.744 9.88385" stroke="#3AA600" stroke-width="2" stroke-linecap="round" stroke-linejoin="round"/>
<path d="M4.72991 3.80708C4.87605 3.16884 5.58594 2.84091 6.16664 3.14338L6.28987 3.20756C6.47215 3.30251 6.67925 3.33898 6.883 3.31202L6.95337 3.30271C7.63503 3.21251 8.19871 3.82774 8.04937 4.49893V4.49893C8.00248 4.70963 8.02576 4.92988 8.11566 5.12612L8.13094 5.15949C8.41004 5.76878 8.02256 6.47478 7.3587 6.56653L7.20671 6.58754C7.01019 6.6147 6.82619 6.6997 6.67812 6.83172L6.56359 6.93383C6.06337 7.37983 5.27463 7.21719 4.99163 6.6097L4.97613 6.57643C4.88498 6.38076 4.73237 6.22026 4.54155 6.11937V6.11937C3.93368 5.79798 3.83065 4.96996 4.34122 4.5094L4.39393 4.46185C4.54654 4.32419 4.65303 4.14285 4.6989 3.94251L4.72991 3.80708Z" stroke="#3AA600" stroke-width="2" stroke-linecap="round" stroke-linejoin="round"/>
<path d="M16.0169 1.08675C16.6226 0.838216 17.2998 1.2292 17.3875 1.87806L17.6074 3.5065C17.6349 3.71017 17.7245 3.90043 17.864 4.05136L18.9545 5.23134C19.426 5.74153 19.2464 6.5652 18.6053 6.83285L17.2343 7.40527C17.033 7.48929 16.8648 7.6368 16.7551 7.82531L15.997 9.12875C15.6601 9.70806 14.8598 9.79847 14.4021 9.30893L13.2384 8.06418C13.1029 7.91926 12.9274 7.81792 12.7341 7.77305L11.0742 7.38756C10.4214 7.23596 10.0996 6.49772 10.4328 5.91626L11.1826 4.60799C11.291 4.41878 11.3346 4.19931 11.3068 3.98302L11.117 2.50944C11.0282 1.82043 11.6518 1.25309 12.3294 1.40632L13.8965 1.76072C14.0969 1.80605 14.3065 1.78852 14.4966 1.7105L16.0169 1.08675Z" stroke="#3AA600" stroke-width="2" stroke-linecap="round" stroke-linejoin="round"/>
</g>
<defs>
<clipPath id="clip0_4750_18145">
<rect width="24" height="24" fill="white"/>
</clipPath>
</defs>
</svg>
