<svg width="65" height="31" viewBox="0 0 65 31" fill="none" xmlns="http://www.w3.org/2000/svg">
<path d="M20.0471 20.1044H24.1405V21.4308H22.1932V30.75H20.0471V20.1044Z" fill="#888888"/>
<path d="M26.5673 26.7535L26.9351 21.4308H27.0583L27.4261 26.7535H26.5673ZM24.1906 30.75H26.2919L26.4907 27.9228H27.5027L27.7024 30.75H29.8028L28.6836 20.1044H25.3098L24.1906 30.75Z" fill="#888888"/>
<path d="M32.8766 27.024V29.031C32.8766 29.3015 33.0878 29.38 33.211 29.38C33.4134 29.38 33.5542 29.2142 33.5542 29.031V26.5529C33.5542 26.2213 33.4926 25.8548 32.6918 25.8548H31.8207V24.6855H32.727C33.3342 24.6855 33.5542 24.5459 33.5542 23.8915V21.7798C33.5542 21.5966 33.4134 21.4308 33.211 21.4308C33.0878 21.4308 32.8766 21.5006 32.8766 21.7798V23.5162H30.7296V22.0067C30.7296 21.265 30.8175 20.1044 32.3223 20.1044H34.0997C35.6045 20.1044 35.7012 21.265 35.7012 22.0067V23.7082C35.7012 24.8687 34.8829 25.1829 34.2405 25.1567V25.2614C35.6836 25.2265 35.7012 26.326 35.7012 26.7012V28.8478C35.7012 29.5982 35.6045 30.75 34.0997 30.75H32.3223C30.8175 30.75 30.7296 29.5982 30.7296 28.8478V27.024H32.8766Z" fill="#888888"/>
<path d="M37.1091 20.1044H42.0808V30.75H39.9337V21.4308H39.2562V30.75H37.1091V20.1044Z" fill="#888888"/>
<path d="M45.6357 25.9595V21.4308H45.9173C46.1461 21.4308 46.3133 21.6227 46.3133 21.963V25.4272C46.3133 25.7675 46.1461 25.9595 45.9173 25.9595H45.6357ZM43.4886 30.75H45.6357V27.1288H46.8676C48.3635 27.1288 48.4603 25.9769 48.4603 25.2265V22.0067C48.4603 21.265 48.3635 20.1044 46.8676 20.1044H43.4886V30.75Z" fill="#888888"/>
<path d="M52.693 29.031C52.693 29.2142 52.5522 29.38 52.3498 29.38C52.2266 29.38 52.0154 29.3015 52.0154 29.031V21.7798C52.0154 21.5006 52.2266 21.4308 52.3498 21.4308C52.5522 21.4308 52.693 21.5966 52.693 21.7798V29.031ZM49.8684 28.8478C49.8684 29.5982 49.9651 30.75 51.4611 30.75H53.2474C54.7433 30.75 54.84 29.5982 54.84 28.8478V22.0067C54.84 21.265 54.7433 20.1044 53.2474 20.1044H51.4611C49.9651 20.1044 49.8684 21.265 49.8684 22.0067V28.8478Z" fill="#888888"/>
<path d="M61.8268 20.1044H64.625V30.75H62.4779V24.0747H62.3987L61.29 30.75H59.5741L58.4742 24.0747H58.395V30.75H56.2479V20.1044H59.0373L60.4365 27.5912L61.8268 20.1044Z" fill="#888888"/>
<path d="M17.2646 5.54965C16.6073 2.69629 14.9601 0.375213 14.733 0C14.374 0.532279 13.0602 2.58286 12.3924 4.85159C11.6629 7.39082 11.5555 9.64209 11.8072 11.8497C12.0571 14.0661 13.0013 16.3436 13.0013 16.3436C13.5029 17.5303 14.2543 18.813 14.7436 19.4413C15.4607 18.5163 17.1089 15.7589 17.6228 12.1639C17.9087 10.1569 17.9211 8.40302 17.2646 5.54965ZM14.733 18.7257C14.4101 18.1236 13.9085 16.9806 13.861 15.2005C13.8487 13.4902 14.5412 12.0155 14.7436 11.7101C14.924 12.0155 15.5206 13.2982 15.5919 15.0521C15.6402 16.7624 15.0665 18.1149 14.733 18.7257ZM17.0737 10.3925C17.049 11.4833 16.9179 12.6351 16.7507 13.3244C16.8106 12.1377 16.6671 10.4711 16.3926 9.16217C16.1181 7.86201 15.3411 5.68054 14.7207 4.67707C14.1479 5.63692 13.4421 7.5217 13.0726 9.15345C12.7012 10.7852 12.6907 12.766 12.6907 13.3593C12.5921 12.8619 12.3457 11.0731 12.4152 9.28433C12.4733 7.80966 12.8218 6.28263 13.0127 5.58456C13.7413 3.25476 14.5658 1.76263 14.7207 1.52702C14.8756 1.76263 15.9139 3.60378 16.4524 5.53221C16.9883 7.46063 17.0966 9.31051 17.0737 10.3925Z" fill="#888888"/>
<path d="M10.8507 20.1044V23.429C10.8551 23.429 10.8586 23.4203 10.863 23.4203C12.0403 22.251 13.9498 22.251 15.1281 23.4203C16.3054 24.5808 16.3054 26.4743 15.1281 27.6436C15.1228 27.6523 15.1175 27.6523 15.1122 27.661C15.1061 27.661 15.0999 27.6698 15.0946 27.6785C13.9199 28.8303 12.3853 29.4062 10.8507 29.4062C9.30899 29.4062 7.76733 28.8303 6.59172 27.661C4.51857 25.6105 4.27307 22.4255 5.85344 20.1044C6.06639 19.7903 6.3119 19.4936 6.59172 19.2144C7.76733 18.0451 9.30899 17.4692 10.8507 17.4692V9.4763C4.92687 9.4763 0.125 14.2319 0.125 20.1044C0.125 25.9769 4.92687 30.7413 10.8507 30.7413C13.9393 30.7413 16.7217 29.4411 18.6786 27.3731V20.1044H10.8507Z" fill="#888888"/>
</svg>
