<svg width="29" height="30" viewBox="0 0 29 30" fill="none" xmlns="http://www.w3.org/2000/svg">
<g clip-path="url(#clip0_4087_46739)">
<path d="M28.5832 15.1203C28.5832 14.1488 28.5029 13.1721 28.3314 12.2163H14.5781V17.7198H22.454C22.1272 19.4948 21.0771 21.065 19.5394 22.0627V25.6337H24.2381C26.9974 23.1445 28.5832 19.4685 28.5832 15.1203Z" fill="#4285F4"/>
<path d="M14.5769 29.0834C18.5095 29.0834 21.8259 27.8178 24.2422 25.6332L19.5435 22.0623C18.2362 22.934 16.5485 23.4276 14.5822 23.4276C10.7782 23.4276 7.55289 20.9122 6.39562 17.5303H1.54688V21.2115C4.02215 26.0376 9.06377 29.0834 14.5769 29.0834Z" fill="#34A853"/>
<path d="M6.39445 17.5307C5.78367 15.7557 5.78367 13.8337 6.39445 12.0587V8.37744H1.55106C-0.517021 12.4158 -0.517021 17.1736 1.55106 21.2119L6.39445 17.5307Z" fill="#FBBC04"/>
<path d="M14.5769 6.15577C16.6557 6.12426 18.6648 6.89097 20.1703 8.29835L24.3333 4.21799C21.6973 1.79184 18.1987 0.457975 14.5769 0.499987C9.06377 0.499987 4.02215 3.54581 1.54688 8.37712L6.39026 12.0584C7.54217 8.6712 10.7729 6.15577 14.5769 6.15577Z" fill="#EA4335"/>
</g>
<defs>
<clipPath id="clip0_4087_46739">
<rect width="28.5835" height="28.5835" fill="white" transform="translate(0 0.5)"/>
</clipPath>
</defs>
</svg>
