<svg width="76" height="26" viewBox="0 0 76 26" fill="none" xmlns="http://www.w3.org/2000/svg">
<path d="M32.6921 13.6968C32.6921 17.2363 29.9375 19.8445 26.557 19.8445C23.1765 19.8445 20.4219 17.2363 20.4219 13.6968C20.4219 10.1323 23.1765 7.54908 26.557 7.54908C29.9375 7.54908 32.6921 10.1323 32.6921 13.6968ZM30.0064 13.6968C30.0064 11.4849 28.4099 9.97158 26.557 9.97158C24.704 9.97158 23.1075 11.4849 23.1075 13.6968C23.1075 15.8865 24.704 17.422 26.557 17.422C28.4099 17.422 30.0064 15.8837 30.0064 13.6968Z" fill="#888888"/>
<path d="M45.9274 13.6968C45.9274 17.2363 43.1728 19.8445 39.7923 19.8445C36.4118 19.8445 33.6572 17.2363 33.6572 13.6968C33.6572 10.1351 36.4118 7.54908 39.7923 7.54908C43.1728 7.54908 45.9274 10.1323 45.9274 13.6968ZM43.2417 13.6968C43.2417 11.4849 41.6452 9.97158 39.7923 9.97158C37.9393 9.97158 36.3428 11.4849 36.3428 13.6968C36.3428 15.8865 37.9393 17.422 39.7923 17.422C41.6452 17.422 43.2417 15.8837 43.2417 13.6968Z" fill="#888888"/>
<path d="M58.6112 7.92049V18.9576C58.6112 23.4977 55.9476 25.352 52.7987 25.352C49.8346 25.352 48.0505 23.3591 47.3778 21.7293L49.716 20.7509C50.1324 21.7515 51.1526 22.9322 52.796 22.9322C54.8116 22.9322 56.0607 21.6822 56.0607 19.329V18.4448H55.9669C55.3658 19.1904 54.2077 19.8417 52.7463 19.8417C49.6884 19.8417 46.8869 17.1642 46.8869 13.719C46.8869 10.2487 49.6884 7.54908 52.7463 7.54908C54.205 7.54908 55.363 8.20043 55.9669 8.92386H56.0607V7.92326H58.6112V7.92049ZM56.2509 13.719C56.2509 11.5542 54.8143 9.97158 52.9862 9.97158C51.1333 9.97158 49.5809 11.5542 49.5809 13.719C49.5809 15.8615 51.1333 17.422 52.9862 17.422C54.8143 17.422 56.2509 15.8615 56.2509 13.719Z" fill="#888888"/>
<path d="M62.8162 1.45125V19.4676H60.1967V1.45125H62.8162Z" fill="#888888"/>
<path d="M73.0239 15.7202L75.1085 17.1171C74.4357 18.1177 72.8143 19.8417 70.0129 19.8417C66.5386 19.8417 63.9439 17.1421 63.9439 13.694C63.9439 10.0381 66.5607 7.5463 69.7123 7.5463C72.886 7.5463 74.4384 10.0852 74.9458 11.4572L75.2243 12.1557L67.0487 15.5594C67.6746 16.7928 68.648 17.422 70.0129 17.422C71.3805 17.422 72.329 16.7457 73.0239 15.7202ZM66.6075 13.5083L72.0726 11.2272C71.7721 10.4594 70.8676 9.92446 69.8033 9.92446C68.4384 9.92446 66.5386 11.1357 66.6075 13.5083Z" fill="#888888"/>
<path d="M10.5064 12.0975V9.48929H19.25C19.3355 9.94386 19.3796 10.4816 19.3796 11.0636C19.3796 13.0205 18.8474 15.4402 17.1324 17.1642C15.4642 18.9104 13.3327 19.8417 10.5092 19.8417C5.27574 19.8417 0.875 15.5566 0.875 10.2959C0.875 5.03511 5.27574 0.75 10.5092 0.75C13.4044 0.75 15.4669 1.89196 17.0165 3.38038L15.1857 5.22082C14.0744 4.1731 12.5689 3.35821 10.5064 3.35821C6.68474 3.35821 3.69577 6.45424 3.69577 10.2959C3.69577 14.1375 6.68474 17.2335 10.5064 17.2335C12.9853 17.2335 14.3971 16.2329 15.3015 15.3238C16.0349 14.5865 16.5175 13.5333 16.7077 12.0947L10.5064 12.0975Z" fill="#888888"/>
</svg>
