<svg width="49" height="48" viewBox="0 0 49 48" fill="none" xmlns="http://www.w3.org/2000/svg">
<path d="M40.5 20.7273C40.5 32.1818 24.5 42 24.5 42C24.5 42 8.5 32.1818 8.5 20.7273C8.5 16.8214 10.1857 13.0754 13.1863 10.3135C16.1869 7.55162 20.2565 6 24.5 6C28.7435 6 32.8131 7.55162 35.8137 10.3135C38.8143 13.0754 40.5 16.8214 40.5 20.7273Z" stroke="#3AA600" stroke-width="4" stroke-linecap="round" stroke-linejoin="round"/>
<path d="M24.5 25.6364C27.4455 25.6364 29.8333 23.4385 29.8333 20.7273C29.8333 18.0161 27.4455 15.8182 24.5 15.8182C21.5545 15.8182 19.1667 18.0161 19.1667 20.7273C19.1667 23.4385 21.5545 25.6364 24.5 25.6364Z" stroke="#3AA600" stroke-width="4" stroke-linecap="round" stroke-linejoin="round"/>
</svg>
