<svg width="49" height="48" viewBox="0 0 49 48" fill="none" xmlns="http://www.w3.org/2000/svg">
<g clip-path="url(#clip0_3656_17820)">
<path d="M38.724 18.6465C39.2571 18.908 39.7058 19.311 40.0196 19.8104C40.3333 20.3098 40.4997 20.8856 40.5 21.4732V36.5226C40.4997 37.1102 40.3333 37.6861 40.0196 38.1854C39.7058 38.6848 39.2571 39.0879 38.724 39.3493L25.924 45.666C25.4795 45.8856 24.9892 45.9999 24.492 45.9999C23.9949 45.9999 23.5046 45.8856 23.06 45.666L10.2601 39.3493C9.72748 39.0845 9.28048 38.678 8.9695 38.1757C8.65851 37.6735 8.49593 37.0954 8.50008 36.5068V21.4732C8.50039 20.8856 8.66678 20.3098 8.98052 19.8104C9.29427 19.311 9.74293 18.908 10.2761 18.6465M9.01208 19.7677L24.5 27.4108M24.5 27.4108L24.5 45.9818M24.5 27.4108L32.244 23.5893L39.988 19.7677" stroke="#3AA600" stroke-width="4" stroke-linecap="round" stroke-linejoin="round"/>
<path d="M9.95982 7.61415C10.2521 6.33768 11.6719 5.68182 12.8333 6.28675L13.0797 6.41513C13.4443 6.60501 13.8585 6.67796 14.266 6.62404L14.4067 6.60542C15.7701 6.42503 16.8974 7.65548 16.5987 8.99786V8.99786C16.505 9.41925 16.5515 9.85975 16.7313 10.2522L16.7619 10.319C17.3201 11.5376 16.5451 12.9496 15.2174 13.1331L14.9134 13.1751C14.5204 13.2294 14.1524 13.3994 13.8562 13.6634L13.6272 13.8677C12.6267 14.7597 11.0493 14.4344 10.4833 13.2194L10.4523 13.1529C10.27 12.7615 9.96475 12.4405 9.5831 12.2387V12.2387C8.36736 11.596 8.1613 9.93992 9.18244 9.0188L9.28786 8.9237C9.59308 8.64838 9.80605 8.28571 9.8978 7.88503L9.95982 7.61415Z" stroke="#3AA600" stroke-width="4" stroke-linecap="round" stroke-linejoin="round"/>
<path d="M32.5338 2.17351C33.7453 1.67643 35.0997 2.4584 35.2749 3.75613L35.7148 7.013C35.7698 7.42035 35.949 7.80085 36.228 8.10273L38.409 10.4627C39.352 11.4831 38.9928 13.1304 37.7107 13.6657L34.9686 14.8105C34.5661 14.9786 34.2296 15.2736 34.0103 15.6506L32.4941 18.2575C31.8202 19.4161 30.2197 19.5969 29.3043 18.6179L26.9767 16.1284C26.7058 15.8385 26.3547 15.6358 25.9682 15.5461L22.6485 14.7751C21.3429 14.4719 20.6992 12.9954 21.3657 11.8325L22.8652 9.21598C23.082 8.83756 23.1693 8.39862 23.1135 7.96604L22.7339 5.01887C22.5565 3.64087 23.8035 2.50618 25.1587 2.81264L28.293 3.52143C28.6939 3.6121 29.113 3.57703 29.4933 3.421L32.5338 2.17351Z" stroke="#3AA600" stroke-width="4" stroke-linecap="round" stroke-linejoin="round"/>
</g>
<defs>
<clipPath id="clip0_3656_17820">
<rect width="48" height="48" fill="white" transform="translate(0.5)"/>
</clipPath>
</defs>
</svg>
