<svg width="49" height="48" viewBox="0 0 49 48" fill="none" xmlns="http://www.w3.org/2000/svg">
<path d="M32.8077 28.8462C30.9258 31.784 28.1706 33.6923 24.6649 33.6923C21.1593 33.6923 18.0742 31.784 16.1923 28.8462M42.5 24C42.5 33.9411 34.4411 42 24.5 42C14.5589 42 6.5 33.9411 6.5 24C6.5 14.0589 14.5589 6 24.5 6C34.4411 6 42.5 14.0589 42.5 24ZM18.9615 17.0769C17.8145 17.0769 16.8846 18.0068 16.8846 19.1538C16.8846 20.3009 17.8145 21.2308 18.9615 21.2308C20.1086 21.2308 21.0385 20.3009 21.0385 19.1538C21.0385 18.0068 20.1086 17.0769 18.9615 17.0769ZM30.0385 17.0769C28.8914 17.0769 27.9615 18.0068 27.9615 19.1538C27.9615 20.3009 28.8914 21.2308 30.0385 21.2308C31.1855 21.2308 32.1154 20.3009 32.1154 19.1538C32.1154 18.0068 31.1855 17.0769 30.0385 17.0769Z" stroke="#3AA600" stroke-width="4" stroke-linecap="round" stroke-linejoin="round"/>
</svg>
