<svg width="64" height="19" viewBox="0 0 64 19" fill="none" xmlns="http://www.w3.org/2000/svg">
<path d="M55.9911 15.1694C57.4865 15.1649 59.3621 14.7484 60.8421 14.2569L59.9574 18.0564C58.1008 18.425 56.016 18.7399 53.5672 18.7498C45.9143 18.7832 42.6211 14.8546 42.6102 10.7773C42.5926 5.31867 48.4643 -0.12912 57.9218 0.00233202C59.9281 0.0294355 61.8389 0.388556 63.125 0.807756L61.8742 5.28886H61.2399C60.4579 4.26706 59.2699 3.49235 56.9259 3.49235C52.1328 3.49235 49.1673 6.11371 49.1763 9.60825C49.1854 12.7712 51.9158 15.1807 55.9911 15.1694ZM28.3384 0.175205L28.0396 1.36283C28.0396 1.36283 29.8532 1.56109 29.2967 3.36799L25.1731 18.3459L33.4172 18.3598L33.7273 17.0724C33.7273 17.0724 32.1858 16.6993 32.5863 15.2791C32.6184 15.1481 33.7965 10.8332 33.7965 10.8332L37.5761 10.8269C39.4576 10.8368 40.0801 11.8116 40.0801 11.8116L41.1759 7.36397H34.8082L35.7553 3.87034L41.2871 3.86401C42.3051 3.86401 43.018 4.54612 43.018 5.04346H43.6441L44.8642 0.175234L28.3384 0.175205ZM22.0864 15.6719C21.5995 15.1497 17.3561 8.54046 17.3561 8.54046L25.1143 2.33648C26.4207 1.24651 27.3488 1.36216 27.3488 1.36216L27.6525 0.166893L18.0025 0.17459L17.7059 1.36217C18.3619 1.40644 19.2782 1.99233 18.5278 2.68663C18.4347 2.77381 10.7764 8.61732 10.7764 8.61732L12.4241 2.65139C12.765 1.49905 14.0036 1.36217 14.0036 1.36217L14.3056 0.170525L5.0922 0.175042L4.79655 1.36538C5.2355 1.4756 6.49267 1.71723 6.05508 3.37013C2.98064 14.4775 3.33686 13.3722 3.12937 13.982C2.28809 17.1897 0.934634 17.0267 0.442796 17.0601L0.125 18.3457H9.75923L10.0843 17.0442C10.0843 17.0442 8.55315 16.7371 8.84653 15.6372C9.13585 14.5476 10.3456 10.1758 10.3456 10.1758C12.0127 12.8563 12.4038 13.1861 14.4136 15.952C16.4248 18.7179 18.5771 18.352 24.2743 18.3538L24.5908 17.0736C23.3747 17.0795 22.5741 16.1937 22.0864 15.6724" fill="#888888"/>
</svg>
