<svg width="18" height="21" viewBox="0 0 18 21" fill="none" xmlns="http://www.w3.org/2000/svg">
<path d="M17 8.86364C17 14.5909 9 19.5 9 19.5C9 19.5 1 14.5909 1 8.86364C1 6.91068 1.84285 5.03771 3.34315 3.65676C4.84344 2.27581 6.87827 1.5 9 1.5C11.1217 1.5 13.1566 2.27581 14.6569 3.65676C16.1571 5.03771 17 6.91068 17 8.86364Z" stroke="#3AA600" stroke-width="2" stroke-linecap="round" stroke-linejoin="round"/>
<path d="M9 11.3182C10.4728 11.3182 11.6667 10.2192 11.6667 8.86364C11.6667 7.50803 10.4728 6.40909 9 6.40909C7.52724 6.40909 6.33333 7.50803 6.33333 8.86364C6.33333 10.2192 7.52724 11.3182 9 11.3182Z" stroke="#3AA600" stroke-width="2" stroke-linecap="round" stroke-linejoin="round"/>
</svg>
