<svg width="16" height="19" viewBox="0 0 16 19" fill="none" xmlns="http://www.w3.org/2000/svg">
<g clip-path="url(#clip0_3866_28008)">
<path d="M12.7636 6.59436H12.0545V4.69611C12.0545 3.58324 11.6063 2.51594 10.8084 1.72901C10.0105 0.942089 8.92838 0.5 7.8 0.5C6.67162 0.5 5.58946 0.942089 4.79158 1.72901C3.9937 2.51594 3.54545 3.58324 3.54545 4.69611V6.59436H2.83636C2.08437 6.59517 1.3634 6.89015 0.831659 7.41459C0.299915 7.93903 0.000821152 8.6501 0 9.39177V15.7026C0.000821152 16.4443 0.299915 17.1553 0.831659 17.6798C1.3634 18.2042 2.08437 18.4992 2.83636 18.5H12.7636C13.5156 18.4992 14.2366 18.2042 14.7683 17.6798C15.3001 17.1553 15.5992 16.4443 15.6 15.7026V9.39177C15.5992 8.6501 15.3001 7.93903 14.7683 7.41459C14.2366 6.89015 13.5156 6.59517 12.7636 6.59436ZM10.6364 6.59436H4.96364V4.69611C4.96364 3.9542 5.26247 3.24266 5.79439 2.71805C6.32631 2.19343 7.04775 1.8987 7.8 1.8987C8.55225 1.8987 9.27369 2.19343 9.80561 2.71805C10.3375 3.24266 10.6364 3.9542 10.6364 4.69611V6.59436Z" fill="#3AA600"/>
<path d="M9.96776 15.5841V10.5852H10.6502V14.9699H12.9091V15.5841H9.96776Z" fill="white"/>
<path d="M6.37811 15.3556L6.6272 14.7277C6.75459 14.821 6.91269 14.8995 7.1015 14.9632C7.29258 15.0246 7.46319 15.0553 7.61333 15.0553C7.87948 15.0553 8.09332 14.9825 8.25483 14.8369C8.41634 14.6913 8.4971 14.506 8.4971 14.2807C8.4971 14.1124 8.4516 13.9566 8.36061 13.8133C8.27189 13.6677 8.04668 13.5096 7.68499 13.339L7.28234 13.1513C6.94112 12.9921 6.70227 12.8033 6.56578 12.5849C6.43156 12.3665 6.36446 12.1037 6.36446 11.7966C6.36446 11.4236 6.4964 11.1142 6.76027 10.8685C7.02415 10.6228 7.3631 10.5 7.77712 10.5C8.3299 10.5 8.71434 10.5899 8.93045 10.7696L8.72913 11.3633C8.63814 11.2973 8.49937 11.2336 8.31284 11.1722C8.1263 11.1108 7.95342 11.0801 7.79418 11.0801C7.56215 11.0801 7.37902 11.146 7.24481 11.278C7.11287 11.4099 7.0469 11.5794 7.0469 11.7864C7.0469 11.9138 7.07079 12.0298 7.11856 12.1345C7.16633 12.2391 7.2323 12.3267 7.31647 12.3972C7.40291 12.4677 7.57807 12.5667 7.84195 12.6941L8.25142 12.8886C8.59264 13.0501 8.83149 13.2434 8.96798 13.4686C9.10675 13.6916 9.17613 13.9759 9.17613 14.3217C9.17613 14.697 9.02485 15.0155 8.7223 15.2771C8.42203 15.5387 8.01938 15.6695 7.51438 15.6695C7.07079 15.6695 6.69203 15.5649 6.37811 15.3556Z" fill="white"/>
<path d="M3.01365 15.3556L3.26274 14.7277C3.39013 14.821 3.54823 14.8995 3.73704 14.9632C3.92812 15.0246 4.09874 15.0553 4.24887 15.0553C4.51503 15.0553 4.72886 14.9825 4.89037 14.8369C5.05188 14.6913 5.13264 14.506 5.13264 14.2807C5.13264 14.1124 5.08714 13.9566 4.99615 13.8133C4.90743 13.6677 4.68223 13.5096 4.32053 13.339L3.91789 13.1513C3.57667 12.9921 3.33781 12.8033 3.20132 12.5849C3.06711 12.3665 3 12.1037 3 11.7966C3 11.4236 3.13194 11.1142 3.39582 10.8685C3.6597 10.6228 3.99864 10.5 4.41266 10.5C4.96544 10.5 5.34989 10.5899 5.56599 10.7696L5.36467 11.3633C5.27368 11.2973 5.13492 11.2336 4.94838 11.1722C4.76185 11.1108 4.58896 11.0801 4.42972 11.0801C4.19769 11.0801 4.01457 11.146 3.88035 11.278C3.74841 11.4099 3.68244 11.5794 3.68244 11.7864C3.68244 11.9138 3.70633 12.0298 3.7541 12.1345C3.80187 12.2391 3.86784 12.3267 3.95201 12.3972C4.03845 12.4677 4.21361 12.5667 4.47749 12.6941L4.88696 12.8886C5.22818 13.0501 5.46704 13.2434 5.60353 13.4686C5.74229 13.6916 5.81167 13.9759 5.81167 14.3217C5.81167 14.697 5.6604 15.0155 5.35785 15.2771C5.05757 15.5387 4.65493 15.6695 4.14992 15.6695C3.70633 15.6695 3.32757 15.5649 3.01365 15.3556Z" fill="white"/>
</g>
<defs>
<clipPath id="clip0_3866_28008">
<rect width="15.6" height="18" fill="white" transform="translate(0 0.5)"/>
</clipPath>
</defs>
</svg>
