<svg width="133" height="32" viewBox="0 0 133 32" fill="none" xmlns="http://www.w3.org/2000/svg">
<path d="M14.6401 9.78482C14.8853 9.67358 15.1032 9.51383 15.2449 9.33278C15.838 8.63223 16.042 7.65122 15.9247 6.76014C15.6901 4.97798 14.2593 3.32715 12.5554 2.78513C11.5381 2.45968 10.4396 2.53658 9.51343 3.07855C7.97773 3.97315 7.10271 6.65465 6.85662 8.33504C6.57818 10.3905 7.16359 12.7041 7.85515 14.614C8.37441 16.0589 8.72225 17.5867 9.16771 19.06C9.34707 19.6742 9.55142 20.2871 9.70579 20.9025C10.0145 22.1332 9.91367 23.7071 8.20125 23.5142C6.1116 23.2893 7.14187 21.771 6.98074 20.4835C6.89899 19.8149 6.61261 19.0564 5.87724 18.867C4.51001 18.5581 3.26952 21.4562 3.31892 22.4999C3.4483 25.2335 7.22039 26.0762 9.45676 25.6963C12.0157 25.2514 13.6381 22.4847 13.9001 20.0813C14.3367 16.0756 11.0101 12.4722 9.93509 8.81199C9.60842 7.73157 9.59224 6.86061 10.911 6.67366C12.0059 6.52221 12.6101 7.11627 12.4858 8.19314C12.4343 8.69371 12.1568 9.18007 12.579 9.6333C13.0797 10.1575 13.9794 10.115 14.6401 9.78482Z" fill="#D63334"/>
<path d="M13.6563 15.4603C13.98 15.42 14.3288 15.3786 14.649 15.2638C14.9442 15.1502 15.4073 14.8792 15.4408 14.529C15.4981 14.1527 15.0841 13.8734 14.7545 13.7893C14.4249 13.7053 13.9036 13.8047 13.5787 13.8201C12.5528 13.8437 11.5543 13.9159 10.557 14.0129C9.40968 14.117 8.23033 14.0732 7.11038 14.2259C6.13921 14.3466 4.75169 14.1383 3.87549 14.6779C3.53501 14.8932 3.23716 15.4802 3.60234 15.7867C3.86285 15.9985 4.28302 15.879 4.5841 15.8896C6.41795 16.0021 8.26268 15.8152 10.093 15.8531C10.8701 15.8661 11.5925 15.7821 12.3364 15.6223C12.7566 15.5028 13.2076 15.5064 13.6563 15.4603Z" fill="#D63334"/>
<path d="M19.8912 17.5313C19.8071 16.813 19.8003 16.1408 19.8221 15.542C19.8668 14.3693 20.0352 13.1658 20.3322 12.031C20.566 11.1482 21.5812 8.78382 22.8491 10.1684C23.1655 10.5021 23.221 11.147 23.191 11.5719C23.1175 13.1943 22.2728 14.9279 21.6151 16.3787C20.8918 18.0319 19.8162 19.6519 18.5754 20.9559C17.1917 22.4162 15.6807 23.8326 14.2197 25.2467C13.8839 25.5615 12.8578 26.1082 12.9051 26.5792C12.9619 27.249 13.9236 26.9295 14.3176 26.7863C15.4508 26.384 16.4011 25.2929 17.2394 24.4812C18.0288 23.6966 18.7339 22.7168 19.3425 21.8163C19.9762 20.9145 20.818 20.1773 21.3993 19.2283C22.0973 18.0993 22.7703 16.9716 23.4945 15.8663C24.732 13.9647 26.268 10.43 25.2113 8.2135C24.6835 7.11769 24.1054 6.54729 22.8664 6.83009C21.3798 7.17443 20.3487 8.14477 19.4019 9.31038C16.7736 12.5232 15.7395 16.607 15.6825 20.6943C15.6719 22.5877 15.7969 24.6989 17.3599 25.9698C18.2711 26.6988 19.0315 26.887 20.2288 26.7805C21.1523 26.7119 21.9809 26.2244 22.7618 25.7889C24.1035 25.028 25.0385 23.6139 25.5212 22.1714C25.762 21.4377 25.9482 20.607 25.8867 19.8378C25.8464 19.5159 25.805 19.1692 25.6171 18.9041C25.5362 18.7834 25.4565 18.6875 25.3757 18.5668C25.296 18.471 25.2151 18.3503 25.1116 18.2804C24.9937 18.4355 25.0102 18.7834 24.9935 18.9585C24.8823 19.7857 24.6689 20.5679 24.3554 21.3548C24.2219 21.7098 24.0611 22.0163 23.7979 22.2779C23.4157 22.6695 22.9253 22.892 22.4101 22.5926C20.7886 21.6731 20.1102 19.5134 19.8912 17.5313Z" fill="#D63334"/>
<path d="M28.5227 15.728C28.7014 15.2712 28.9314 14.8369 29.1863 14.4014C29.3483 14.1198 29.4365 13.8666 29.4962 13.5399C29.5559 13.2133 29.8643 12.85 29.6491 12.5364C29.3542 12.127 28.6638 12.3589 28.2959 12.5258C27.8055 12.7482 27.3186 13.0453 26.909 13.3884C26.0399 14.0771 25.5312 14.9729 25.2307 16.0332C24.7191 17.9254 24.9282 20.7549 26.4936 22.0755C28.1649 23.5157 31.1104 23.3016 32.8343 22.149C34.8249 20.8095 35.5296 18.2357 34.9216 15.9731C34.5261 14.4974 33.7011 12.9424 32.2424 12.2892C30.9622 11.7022 28.9202 11.4252 27.9281 12.6926C26.6526 14.3221 27.3907 16.1552 29.4518 16.3067C31.739 16.4724 35.4361 15.2015 36.7272 13.372C37.0797 12.8821 37.5275 12.2881 37.497 11.642C37.4675 11.0207 36.881 10.7994 36.3952 11.1213C35.8369 11.4964 35.5449 12.2076 35.1697 12.7484C34.6766 13.4442 33.9742 13.9507 33.3491 14.5033C32.5788 15.1624 30.9481 15.6381 29.9749 15.186C29.744 15.0724 29.6323 14.8286 29.5717 14.6073C29.3806 13.7447 30.5082 12.695 31.1777 13.6098C31.5797 14.1636 31.5661 14.9364 31.5967 15.5825C31.6402 16.502 31.51 17.4546 31.1763 18.3421C31.0201 18.748 30.7902 19.1823 30.4794 19.4959C29.8817 20.097 28.7797 20.0994 28.2254 19.5029C27.3251 18.4746 28.1222 16.793 28.5227 15.728Z" fill="#D63334"/>
<path d="M41.2255 15.7992C41.1526 14.2585 40.8336 12.2811 39.5334 11.2716C38.389 10.3793 35.7554 10.3047 36.053 12.3579C36.2379 13.6194 36.8454 14.811 37.1041 16.0441C37.4543 17.6215 37.7519 19.6747 37.6284 21.2995C37.5552 22.3988 36.7293 24.5301 38.7169 24.1869C40.6296 23.8473 40.8142 21.3978 41.0388 19.7931C41.2514 18.463 41.2879 17.1163 41.2255 15.7992Z" fill="#D63334"/>
<path d="M41.9033 16.8879C41.4502 18.4287 41.3849 20.225 40.7522 21.6747C40.5258 22.1835 39.4452 24.2272 38.8889 23.058C38.6381 22.5219 39.2018 21.2001 39.2735 20.5989C39.4205 19.4712 39.821 18.4062 40.1703 17.3187C40.6292 15.9022 41.1347 14.4088 41.9529 13.1745C42.982 11.6314 44.8597 10.0233 46.8458 10.1783C47.6003 10.2422 48.695 10.6138 49.004 11.3215C49.3974 12.2244 48.8314 13.4965 48.2087 14.0989C47.0834 15.1982 45.8962 14.4574 44.7456 13.9639C44.0044 13.6503 43.3854 13.8041 42.8888 14.4254C42.3719 15.1472 42.1644 16.0537 41.9033 16.8879Z" fill="#D63334"/>
<path d="M49.8738 18.0549C50.0987 18.0443 50.2689 17.9366 50.2786 17.6123C50.3304 16.5887 47.6789 16.6644 47.0814 16.7425C45.4878 16.9424 43.8556 17.9163 43.0706 19.3233C42.307 20.6546 42.1453 22.5303 43.449 23.6143C46.3705 26.0663 50.1181 23.7469 51.3016 20.7021C51.615 19.9152 51.6576 18.1697 50.6144 19.4146C49.7844 20.4003 49.5245 21.2595 48.0288 20.8819C46.8626 20.5884 46.4122 19.5388 47.266 18.527C47.7162 17.9827 48.3875 17.8762 49.042 17.9448C49.2181 17.9614 49.5739 18.0691 49.8738 18.0549Z" fill="#D63334"/>
<path d="M52.904 17.513C52.3383 16.145 51.4789 14.3924 50.4442 15.2882C48.4701 16.9756 49.4583 22.5079 51.2831 24.0156C52.1431 24.7221 53.3533 24.8889 54.4221 24.7138C56.3371 24.4239 58.1271 22.0229 57.9854 20.0869C57.9654 19.6644 57.1657 17.5852 56.4879 18.6136C56.2068 19.0254 56.6929 20.2975 56.5426 20.8277C55.8511 23.1518 53.7479 19.4656 53.415 18.7839C53.3033 18.5401 53.1298 18.0502 52.904 17.513Z" fill="#D63334"/>
<path d="M59.0661 16.3728C60.1169 17.2187 60.8676 18.0894 61.0427 19.7065C62.5439 16.3479 63.3696 10.999 60.5923 8.53603C59.9418 7.96382 58.941 7.49112 58.1403 7.6404C57.1645 7.83943 56.7642 8.75994 57.0895 9.80484C56.1637 8.90921 54.2121 7.88918 53.0362 9.58093C52.2856 10.6507 52.8861 12.6908 54.7126 13.9347C56.464 15.1289 57.8651 15.4274 59.0661 16.3728Z" fill="#D63334"/>
<path d="M82.884 23.2646C83.1843 23.4885 83.4845 23.7124 83.8098 23.9363C84.3102 24.3095 85.0858 24.9564 85.7364 24.5832C86.3869 24.2349 86.6371 23.0158 86.6621 22.3441C86.6871 21.8714 86.6871 21.4236 86.3619 21.0504C86.1117 20.7519 85.6113 20.528 85.3861 20.9758C85.2109 21.2743 85.4862 22.3441 84.7856 21.9212C84.3102 21.6226 83.9599 20.5031 83.7347 20.0055C83.4095 19.3587 83.0842 18.6869 82.7089 18.065C81.9333 16.7962 80.8824 15.7513 79.4062 15.3034C78.2553 14.9551 76.4038 14.7561 75.503 15.801C75.0277 16.3483 74.9776 17.9655 75.2528 18.6123C75.503 19.2343 76.0785 19.6323 76.729 19.7567C79.0559 20.1548 81.0325 21.8963 82.884 23.2646Z" fill="#D63334"/>
<path d="M86.2117 13.761C86.7622 14.8059 85.9615 15.9752 85.5112 16.9206C85.0858 17.8162 84.6605 18.6869 84.1601 19.5079C83.0342 21.3987 81.633 23.19 80.0067 24.6827C79.0559 25.5534 76.0535 27.7428 75.1778 25.6032C74.7524 24.5334 75.3279 23.3144 76.5539 23.4388C79.5063 23.7373 82.1084 19.7816 83.2093 17.5176C83.4345 17.0201 83.7097 16.4976 83.4845 15.9752C83.2844 15.4776 82.9091 15.4776 82.5338 15.0547C82.0083 14.4576 81.9583 13.7112 82.6088 13.1888C83.4595 12.517 84.9107 12.517 85.7364 13.1888C85.9615 13.3629 86.1117 13.5619 86.2117 13.761Z" fill="#D63334"/>
<path d="M89.4894 29.6833C92.2416 26.051 92.1416 21.1997 91.6161 16.9206C91.391 15.2039 91.1157 13.7112 89.8397 12.4175C89.1141 11.6712 87.3377 10.8253 87.2376 12.4175C87.1875 13.0395 87.4377 13.6366 87.6379 14.2088C87.8381 14.8307 87.9632 15.4527 88.0632 16.0996C88.3885 18.3138 88.3635 20.6026 88.3385 22.8168C88.3134 24.9066 87.788 26.8969 87.4377 28.9121C87.3627 29.2852 87.1125 30.156 87.6379 30.4545C88.2884 30.8277 88.939 30.4048 89.4894 29.6833Z" fill="#D63334"/>
<path d="M94.3433 20.3041C94.4184 20.1548 94.4685 20.0055 94.5185 19.8562C94.7937 19.0601 94.9438 17.9903 94.5685 17.1942C94.0431 16.1493 92.8922 16.224 92.3918 17.2689C91.8663 18.3884 91.7913 19.8314 91.8413 21.0255C91.8663 21.4485 91.8413 21.8963 91.8413 22.3192C91.8163 22.8666 91.1908 24.5085 90.4152 23.8368C89.9398 23.4139 90.1149 22.2695 90.0649 21.6973C89.9648 20.7021 89.9898 19.707 90.0148 18.7118C90.0399 17.9406 89.9648 17.0698 90.24 16.3483C90.7154 15.1044 91.7162 13.6366 92.9172 13.0395C94.3183 12.3429 95.8946 12.4424 97.0956 13.4375C98.4217 14.5322 98.6468 16.1742 98.6468 17.8162C98.6218 21.548 95.3692 23.6875 91.8413 23.5383C91.5161 23.5134 90.5403 23.588 90.3401 23.2895C90.0399 22.7919 91.2658 22.6178 91.5411 22.5431C92.717 22.1948 93.7929 21.3738 94.3433 20.3041Z" fill="#D63334"/>
<path d="M103.776 17.1693C104.076 15.0795 104.001 11.9199 101.099 11.8453C98.4717 11.7707 99.8478 14.3829 100.148 15.8259C100.598 17.9655 100.398 20.1797 100.073 22.3441C99.9729 22.9163 99.7978 23.5134 99.8478 24.1105C99.8728 24.4588 99.7477 24.6081 100.098 24.8071C101.399 25.5783 102.3 23.7373 102.6 22.8417C103.226 21.0007 103.526 19.1099 103.776 17.1693Z" fill="#D63334"/>
<path d="M104.977 17.6172C104.351 18.7367 101.799 26.9715 100.749 24.3593C101.074 22.7173 102.1 21.125 102.725 19.5577C103.301 18.065 104.076 16.622 104.902 15.2786C105.703 13.9849 107.029 12.7658 108.655 13.1141C110.657 13.5371 110.306 15.6269 108.48 16.1991C107.654 16.4479 106.778 15.7513 106.203 15.9254C105.828 16.0747 105.177 17.244 104.977 17.6172Z" fill="#D63334"/>
<path d="M110.406 24.8568C111.682 24.7076 112.958 24.0358 113.909 23.1651C114.385 22.7422 114.81 22.1451 115.085 21.5729C115.285 21.1748 115.461 20.4284 114.835 20.3787C114.209 20.3289 113.559 21.2992 113.134 21.6226C112.133 22.4436 110.982 22.6426 109.856 21.946C109.205 21.548 108.905 20.6772 109.13 19.9557C109.28 19.4831 109.506 18.7865 109.981 18.4879C110.657 18.0152 111.332 18.3884 111.257 19.1596C111.157 20.1299 110.331 20.8763 109.581 21.3738C109.205 21.6226 108.43 21.7968 108.13 22.0704C107.304 22.8168 108.255 22.6924 108.755 22.4934C109.731 22.1202 110.657 21.5231 111.482 20.8514C112.208 20.2543 113.359 19.0601 112.958 17.9903C112.683 17.1942 111.457 16.8459 110.707 16.821C108.83 16.6966 106.653 18.3884 106.078 20.105C105.127 23.0656 107.454 25.23 110.406 24.8568Z" fill="#D63334"/>
<path d="M67.2714 23.7871C69.0728 24.2349 71.1745 23.9363 72.8259 23.0905C73.3513 22.8168 73.8767 22.4685 74.3021 22.0207C74.6273 21.6724 75.3029 20.8016 75.0527 20.3041C74.8275 19.8811 74.0769 19.9557 73.7016 20.0553C72.7008 20.3289 71.8 20.9509 70.7742 21.1748C70.2238 21.2992 69.5482 21.2494 69.0228 21.0255C68.1971 20.6523 67.3214 19.906 67.2714 18.9357C67.2463 18.1645 67.5216 17.3186 68.072 16.7464C68.5974 16.2239 69.6233 15.4776 70.3989 15.9752C71.2496 16.4976 70.574 17.6172 70.0736 18.0898C69.4231 18.7367 68.5224 19.085 67.6467 19.3338C67.0462 19.5079 66.0454 19.3835 65.545 19.6074C64.1939 20.2045 65.4449 20.4284 66.1454 20.4036C67.5216 20.3289 68.9227 19.9806 70.2238 19.5079C71.9251 18.8611 73.4013 17.3932 73.6766 15.5771C73.9768 13.5619 72.5256 12.2931 70.574 12.2185C66.3706 12.0195 62.7427 16.0747 63.6434 20.2045C64.1188 22.1948 65.545 23.3641 67.2714 23.7871Z" fill="#D63334"/>
<path d="M119.639 15.1293C120.089 12.7161 115.385 13.9849 114.735 15.3532C114.109 16.6718 114.635 17.6669 115.636 18.5128C116.611 19.3587 117.887 19.7318 118.238 21.0753C118.413 21.6973 118.388 22.7173 117.988 23.2646C117.237 24.2598 116.887 23.4636 116.261 23.0407C115.035 22.1948 114.184 23.6627 114.685 24.832C115.235 26.0759 117.512 25.9266 118.563 25.4539C119.989 24.8071 121.19 23.4388 121.766 22.0207C122.541 20.1299 122.066 18.7865 120.415 17.5674C119.789 17.0947 119.264 16.9206 118.513 16.7215C118.013 16.5722 117.462 16.3732 117.287 15.8259C116.862 14.2337 119.464 16.0498 119.639 15.1293Z" fill="#D63334"/>
<path d="M123.992 17.5923C124.093 17.6669 124.168 17.7415 124.243 17.8162C125.043 18.5128 126.119 20.2792 125.844 21.3738C125.319 23.5383 123.692 21.1002 122.791 21.4236C122.141 21.6724 122.166 22.6178 122.516 23.0656C123.367 24.1851 126.119 24.1105 127.27 23.6129C128.846 22.9412 130.222 21.2494 130.498 19.5826C130.798 17.8162 130.022 16.5722 128.596 15.602C127.645 14.9303 126.219 14.582 125.118 14.1839C124.668 14.0097 124.268 14.0346 124.017 13.5868C123.742 13.0892 123.967 12.3678 124.443 12.0941C125.319 11.6214 127.22 13.8605 127.045 11.6214C126.87 9.55647 124.943 9.80526 123.542 10.5516C122.241 11.2482 121.065 12.318 121.09 13.9102C121.14 15.4278 122.867 16.6718 123.992 17.5923Z" fill="#D63334"/>
</svg>
