<svg width="105" height="68" viewBox="0 0 105 68" fill="none" xmlns="http://www.w3.org/2000/svg">
<path d="M20.5764 11.5799C20.9679 11.423 21.3203 11.1877 21.5552 10.9132C22.534 9.85422 22.9255 8.32465 22.8081 6.91274C22.5732 4.08892 20.4589 1.38276 17.8356 0.402262C16.2695 -0.186034 14.5468 -0.146814 13.059 0.637581C10.5923 1.93183 9.02621 6.08912 8.51722 8.71685C7.92993 11.9329 8.67384 15.6195 9.61351 18.6787C10.3183 20.9926 10.7489 23.4242 11.3362 25.7774C11.5712 26.7579 11.8452 27.7384 12.041 28.7189C12.4325 30.6799 12.1585 33.1507 9.49605 32.7193C6.24635 32.2095 7.96908 29.8955 7.81247 27.8561C7.73416 26.7971 7.34263 25.5813 6.20719 25.2284C4.09293 24.6401 1.93951 29.1111 1.93951 30.7583C1.93951 35.0725 7.77331 36.6805 11.2971 36.2491C15.3299 35.7392 18.0706 31.5035 18.6579 27.7384C19.6367 21.4633 14.7034 15.5411 13.2939 9.69734C12.8632 7.97167 12.9024 6.59898 14.9775 6.40288C16.7002 6.246 17.6007 7.2265 17.3267 8.91295C17.2092 9.69734 16.7394 10.4425 17.3658 11.1877C18.1097 12.0505 19.5192 12.0505 20.5764 11.5799Z" fill="#D63334"/>
<path d="M18.6187 20.4435C19.1277 20.4043 19.6758 20.3651 20.1848 20.2082C20.6547 20.0513 21.3986 19.6592 21.4769 19.1101C21.5943 18.5218 20.9679 18.0511 20.4589 17.8943C19.9499 17.7374 19.1277 17.855 18.6187 17.855C17.0134 17.8158 15.4473 17.855 13.8812 17.9335C12.0802 18.0119 10.24 17.855 8.47807 18.0119C6.9511 18.1296 4.79768 17.6982 3.38817 18.4826C2.84003 18.7963 2.33104 19.6984 2.87918 20.2082C3.27071 20.5612 3.93632 20.4043 4.40615 20.4435C7.26433 20.7573 10.1617 20.6004 13.0198 20.7965C14.2336 20.875 15.369 20.7965 16.5436 20.6004C17.2092 20.4435 17.914 20.4828 18.6187 20.4435Z" fill="#D63334"/>
<path d="M28.2112 24.1694C28.1329 23.032 28.1721 21.9731 28.2504 21.0318C28.407 19.1885 28.7593 17.306 29.3075 15.5411C29.7382 14.1684 31.5001 10.521 33.3794 12.7957C33.8492 13.3448 33.8884 14.3645 33.8101 15.0312C33.5752 17.5805 32.1265 20.2474 30.9911 22.483C29.7382 25.0323 27.9371 27.5031 25.9012 29.4641C23.6303 31.6604 21.1637 33.7783 18.7753 35.8961C18.2272 36.3668 16.5828 37.1512 16.6219 37.8963C16.6611 38.9553 18.188 38.5238 18.8145 38.3277C20.6155 37.7787 22.1816 36.1314 23.552 34.9156C24.844 33.739 26.0186 32.2487 27.0366 30.876C28.0937 29.5033 29.4641 28.4052 30.4429 26.954C31.6175 25.2284 32.753 23.5027 33.9667 21.8162C36.0418 18.914 38.7042 13.4624 37.2164 9.89344C36.4725 8.12855 35.6111 7.18728 33.6535 7.54026C31.3043 7.97167 29.6207 9.4228 28.0546 11.1877C23.7086 16.0509 21.7901 22.4045 21.3986 28.8366C21.242 31.8173 21.2811 35.151 23.6303 37.2688C25.0007 38.4846 26.1752 38.8376 28.0546 38.7592C29.5033 38.7199 30.8345 38.014 32.0874 37.3865C34.2408 36.2883 35.8069 34.1312 36.6683 31.8957C37.0989 30.7583 37.4513 29.4641 37.4122 28.2483C37.373 27.7384 37.3339 27.1893 37.0598 26.7579C36.9423 26.5618 36.8249 26.4049 36.7074 26.2089C36.59 26.052 36.4725 25.8559 36.3159 25.7382C36.1201 25.9735 36.1201 26.5226 36.081 26.7971C35.846 28.0914 35.4545 29.3072 34.9064 30.523C34.6715 31.0721 34.3974 31.5427 33.9667 31.9349C33.3403 32.5232 32.5572 32.837 31.7741 32.3271C29.3075 30.7583 28.407 27.307 28.2112 24.1694Z" fill="#D63334"/>
<path d="M41.8365 21.9731C42.1497 21.2672 42.5412 20.6004 42.9719 19.9337C43.246 19.5023 43.4026 19.1101 43.52 18.6002C43.6375 18.0904 44.1465 17.5413 43.8333 17.0314C43.4026 16.3647 42.3063 16.6785 41.719 16.9138C40.9359 17.2275 40.1529 17.6589 39.4873 18.1688C38.0778 19.1885 37.2164 20.5612 36.6683 22.2084C35.7286 25.1499 35.846 29.621 38.1952 31.8173C40.701 34.2097 45.3211 34.092 48.101 32.4056C51.3115 30.4446 52.6036 26.4442 51.8205 22.836C51.3115 20.4828 50.1369 17.9727 47.9052 16.8353C45.9475 15.8156 42.7761 15.2273 41.1317 17.1491C39.0174 19.6199 40.0354 22.5614 43.246 22.9536C46.8089 23.385 52.6819 21.6594 54.8353 18.8748C55.4226 18.1296 56.1665 17.2275 56.1665 16.2078C56.1665 15.2273 55.266 14.8351 54.4829 15.3058C53.5824 15.8548 53.0734 16.953 52.4469 17.7766C51.6247 18.8355 50.4893 19.5807 49.4713 20.4043C48.2184 21.3848 45.6343 22.0123 44.1465 21.2279C43.7941 21.0318 43.6375 20.6396 43.5592 20.2867C43.3243 18.914 45.1645 17.3452 46.1433 18.8355C46.7306 19.7376 46.6523 20.9534 46.6523 21.9731C46.6523 23.4242 46.3782 24.9146 45.7909 26.2873C45.5168 26.9148 45.1253 27.5815 44.6163 28.0522C43.6375 28.9542 41.9148 28.8758 41.0926 27.8953C39.7614 26.2088 41.1317 23.6203 41.8365 21.9731Z" fill="#D63334"/>
<path d="M61.6871 23.0321C61.6871 20.6004 61.3347 17.4628 59.377 15.7764C57.6543 14.286 53.5432 13.9723 53.8564 17.2275C54.0522 19.2277 54.9136 21.1495 55.2268 23.1105C55.6575 25.6206 55.9707 28.8758 55.6575 31.4251C55.4617 33.1507 54.0131 36.4452 57.1453 36.053C60.1601 35.6608 60.6299 31.8173 61.0998 29.3072C61.5304 27.2286 61.6871 25.1107 61.6871 23.0321Z" fill="#D63334"/>
<path d="M62.6659 24.7969C61.8437 27.1893 61.6088 30.0132 60.5125 32.2487C60.1209 33.0331 58.2807 36.1707 57.4977 34.2881C57.1453 33.4253 58.1241 31.3859 58.2807 30.4446C58.594 28.6797 59.2987 27.0325 59.9252 25.346C60.7474 23.1497 61.6479 20.8357 63.0183 18.9532C64.741 16.6 67.7949 14.2076 70.888 14.5998C72.0626 14.7567 73.7462 15.4234 74.1769 16.5608C74.725 18.0119 73.7462 19.9729 72.7282 20.875C70.888 22.5222 69.087 21.2672 67.3251 20.4043C66.1897 19.8553 65.2108 20.0513 64.3886 20.9926C63.5272 22.0908 63.1357 23.5027 62.6659 24.7969Z" fill="#D63334"/>
<path d="M75.0382 27.2286C75.3906 27.2286 75.6647 27.0717 75.7038 26.5618C75.8605 24.9538 71.7102 24.8754 70.7706 24.9538C68.2648 25.1499 65.6415 26.5618 64.3103 28.7189C63.0183 30.7583 62.6267 33.6998 64.5844 35.5039C68.9695 39.5828 74.9991 36.2099 77.0742 31.5035C77.6223 30.2877 77.8181 27.5423 76.0954 29.4249C74.725 30.9152 74.2552 32.2487 71.9452 31.5427C70.1441 30.9937 69.5177 29.3072 70.9272 27.7776C71.6711 26.954 72.7282 26.8364 73.7462 26.9932C74.0203 27.0325 74.5684 27.2286 75.0382 27.2286Z" fill="#D63334"/>
<path d="M79.8149 26.601C79.0319 24.4047 77.8181 21.5809 76.1345 22.9144C72.924 25.4245 74.0594 34.2097 76.8001 36.7197C78.0922 37.8963 79.9715 38.2493 81.6551 38.0532C84.6699 37.7395 87.6455 34.092 87.5672 31.0329C87.5672 30.3661 86.4709 27.0325 85.3355 28.6013C84.8657 29.2288 85.5313 31.2682 85.2572 32.0918C84.0043 35.7 80.9895 29.7386 80.5197 28.6405C80.3631 28.2483 80.1281 27.4639 79.8149 26.601Z" fill="#D63334"/>
<path d="M30.3255 56.4473C30.7953 56.8002 31.2651 57.1532 31.7741 57.5062C32.5572 58.0945 33.7709 59.1142 34.7889 58.5259C35.8069 57.9768 36.1984 56.0551 36.2376 54.9961C36.2767 54.251 36.2767 53.545 35.7677 52.9567C35.3762 52.4861 34.5932 52.1331 34.2408 52.8391C33.9667 53.3097 34.3974 54.9961 33.3011 54.3294C32.5572 53.8588 32.0091 52.0939 31.6567 51.3095C31.1477 50.2898 30.6387 49.2308 30.0514 48.2503C28.8377 46.2501 27.1932 44.6029 24.8832 43.8969C23.0822 43.3479 20.1848 43.0341 18.7753 44.6813C18.0314 45.5442 17.9531 48.0935 18.3838 49.1132C18.7753 50.0937 19.6758 50.7212 20.6938 50.9173C24.3351 51.5448 27.4281 54.2902 30.3255 56.4473Z" fill="#D63334"/>
<path d="M35.5328 41.4653C36.3942 43.1126 35.1413 44.9559 34.4365 46.4462C33.7709 47.8581 33.1053 49.2308 32.3223 50.5251C30.5604 53.5058 28.3678 56.3296 25.8229 58.6828C24.3351 60.0555 19.6367 63.5068 18.2663 60.1339C17.6007 58.4475 18.5012 56.5257 20.4197 56.7218C25.0398 57.1924 29.1117 50.9565 30.8345 47.3875C31.1868 46.6031 31.6175 45.7795 31.2651 44.9559C30.9519 44.1715 30.3646 44.1715 29.7773 43.5048C28.9551 42.5635 28.8768 41.3869 29.8948 40.5633C31.226 39.5043 33.4969 39.5043 34.7889 40.5633C35.1413 40.8378 35.3762 41.1516 35.5328 41.4653Z" fill="#D63334"/>
<path d="M40.6619 66.566C44.9687 60.8399 44.8121 53.192 43.9899 46.4462C43.6375 43.7401 43.2068 41.3869 41.21 39.3475C40.0746 38.1709 37.2947 36.8374 37.1381 39.3475C37.0598 40.328 37.4513 41.2692 37.7645 42.1713C38.0778 43.1518 38.2735 44.1323 38.4301 45.152C38.9391 48.6425 38.9 52.2508 38.8608 55.7413C38.8217 59.0358 37.9995 62.1734 37.4513 65.3502C37.3339 65.9384 36.9423 67.3111 37.7645 67.7818C38.7825 68.3701 39.8005 67.7033 40.6619 66.566Z" fill="#D63334"/>
<path d="M48.2576 51.7801C48.375 51.5448 48.4533 51.3095 48.5316 51.0742C48.9623 49.8191 49.1972 48.1327 48.6099 46.8777C47.7877 45.2304 45.9867 45.3481 45.2036 46.9953C44.3814 48.7602 44.264 51.0349 44.3423 52.9175C44.3814 53.5842 44.3423 54.2902 44.3423 54.9569C44.3031 55.8198 43.3243 58.4083 42.1105 57.3493C41.3666 56.6826 41.6407 54.8785 41.5624 53.9764C41.4058 52.4076 41.4449 50.8388 41.4841 49.2701C41.5232 48.0542 41.4058 46.6816 41.8365 45.5442C42.5804 43.5832 44.1465 41.2692 46.0258 40.328C48.2184 39.2298 50.6851 39.3867 52.5644 40.9555C54.6395 42.6811 54.9919 45.2696 54.9919 47.8581C54.9527 53.7411 49.8628 57.114 44.3423 56.8787C43.8333 56.8395 42.3063 56.9571 41.9931 56.4865C41.5232 55.7021 43.4417 55.4276 43.8724 55.3099C45.7126 54.7608 47.3962 53.4666 48.2576 51.7801Z" fill="#D63334"/>
<path d="M63.0183 46.8384C63.4881 43.544 63.3706 38.5631 58.8289 38.4454C54.7178 38.3277 56.8712 42.4458 57.3411 44.7206C58.0458 48.0935 57.7326 51.584 57.2236 54.9961C57.067 55.8982 56.7929 56.8395 56.8712 57.7807C56.9104 58.3298 56.7146 58.5651 57.2628 58.8789C59.2987 60.0947 60.7082 57.1924 61.1781 55.7805C62.1569 52.8783 62.6267 49.8976 63.0183 46.8384Z" fill="#D63334"/>
<path d="M64.8976 47.5444C63.9188 49.3093 59.9252 62.291 58.2807 58.1729C58.7897 55.5844 60.395 53.0744 61.3738 50.6035C62.2744 48.2503 63.4881 45.9756 64.7801 43.8577C66.033 41.8183 68.1082 39.8965 70.6531 40.4456C73.7853 41.1124 73.2372 44.4068 70.379 45.3089C69.087 45.7011 67.7166 44.6029 66.8161 44.8774C66.2288 45.1128 65.2108 46.9561 64.8976 47.5444Z" fill="#D63334"/>
<path d="M73.3938 58.9573C75.3906 58.722 77.3874 57.6631 78.8752 56.2904C79.6191 55.6237 80.2848 54.6824 80.7154 53.7803C81.0287 53.1528 81.3027 51.9762 80.3239 51.8978C79.3451 51.8193 78.3271 53.3489 77.6615 53.8588C76.0954 55.153 74.2943 55.4668 72.5324 54.3686C71.5145 53.7411 71.0446 52.3684 71.397 51.231C71.6319 50.4859 71.9843 49.3877 72.7282 48.9171C73.7853 48.1719 74.8425 48.7602 74.725 49.976C74.5684 51.5056 73.2764 52.6822 72.1018 53.4666C71.5145 53.8588 70.3007 54.1333 69.8309 54.5647C68.5388 55.7413 70.0267 55.5452 70.8097 55.2315C72.3367 54.6432 73.7853 53.7019 75.0774 52.643C76.2128 51.7017 78.0139 49.8191 77.3874 48.1327C76.9567 46.8777 75.0382 46.3286 73.8637 46.2894C70.9272 46.0933 67.5209 48.7602 66.6203 51.4664C65.1325 56.1335 68.7738 59.5456 73.3938 58.9573Z" fill="#D63334"/>
<path d="M5.89397 57.2709C8.71299 57.9768 12.0018 57.5062 14.5859 56.1727C15.4082 55.7413 16.2304 55.1922 16.896 54.4863C17.405 53.9372 18.4621 52.5645 18.0706 51.7801C17.7182 51.1134 16.5436 51.231 15.9563 51.3879C14.3902 51.8193 12.9807 52.7998 11.3754 53.1528C10.514 53.3489 9.4569 53.2705 8.63468 52.9175C7.34263 52.3292 5.97227 51.1526 5.89397 49.623C5.85482 48.4072 6.2855 47.0737 7.14687 46.1717C7.96908 45.3481 9.57436 44.1715 10.7881 44.9559C12.1193 45.7795 11.0622 47.5444 10.2791 48.2896C9.26113 49.3093 7.85162 49.8584 6.48126 50.2506C5.54159 50.5251 3.97547 50.329 3.19241 50.682C1.07814 51.6232 3.0358 51.9762 4.13208 51.937C6.2855 51.8193 8.47807 51.2703 10.514 50.5251C13.1764 49.5054 15.4865 47.1914 15.9171 44.3284C16.387 41.1516 14.1161 39.1514 11.0622 39.0337C4.48446 38.7199 -1.19273 45.1128 0.216777 51.6232C0.960685 54.7608 3.19241 56.6041 5.89397 57.2709Z" fill="#D63334"/>
<path d="M87.8413 43.6224C88.5461 39.8181 81.1853 41.8183 80.1673 43.9754C79.1885 46.054 80.0107 47.6228 81.5768 48.9563C83.1038 50.2898 85.1006 50.8781 85.6487 52.9959C85.9228 53.9764 85.8836 55.5844 85.2572 56.4473C84.0826 58.0161 83.5345 56.761 82.5556 56.0943C80.6371 54.7608 79.3059 57.0748 80.089 58.9181C80.9504 60.8791 84.5133 60.6438 86.1577 59.8986C88.3894 58.8789 90.2688 56.7218 91.1693 54.4863C92.383 51.5056 91.6391 49.3877 89.055 47.4659C88.0762 46.7208 87.254 46.4462 86.0794 46.1325C85.2963 45.8972 84.435 45.5834 84.1609 44.7206C83.4953 42.2105 87.5672 45.0735 87.8413 43.6224Z" fill="#D63334"/>
<path d="M94.6539 47.5052C94.8105 47.6228 94.928 47.7405 95.0454 47.8581C96.2983 48.9563 97.9819 51.7409 97.5512 53.4666C96.729 56.8787 94.1841 53.0351 92.7746 53.545C91.7566 53.9372 91.7958 55.4276 92.3439 56.1335C93.6751 57.8984 97.9819 57.7807 99.783 56.9963C102.25 55.9374 104.403 53.2705 104.834 50.6427C105.304 47.8581 104.09 45.8972 101.858 44.3676C100.37 43.3087 98.1385 42.7596 96.4158 42.1321C95.7111 41.8575 95.0846 41.8967 94.6931 41.1908C94.2624 40.4064 94.6148 39.269 95.3587 38.8376C96.729 38.0924 99.7047 41.6222 99.4306 38.0924C99.1565 34.8372 96.1417 35.2294 93.9492 36.406C91.9132 37.5041 90.073 39.1906 90.1122 41.7006C90.1905 44.093 92.892 46.054 94.6539 47.5052Z" fill="#D63334"/>
<path d="M99.7438 25.9343C101.388 27.2678 102.563 28.6405 102.837 31.1898C105.186 25.8951 106.478 17.4628 102.132 13.5801C101.114 12.678 99.548 11.9329 98.2952 12.1682C96.7682 12.4819 96.1417 13.9331 96.6507 15.5803C95.2021 14.1684 92.1481 12.5604 90.3079 15.2273C89.1333 16.9138 90.073 20.1298 92.9312 22.0908C95.6719 23.9733 97.8645 24.444 99.7438 25.9343Z" fill="#D63334"/>
</svg>
