<svg width="76" height="12" viewBox="0 0 76 12" fill="none" xmlns="http://www.w3.org/2000/svg">
<path d="M74.2945 9.52655C74.7034 9.52655 75.0473 9.85015 75.0473 10.2725C75.0473 10.7016 74.7034 11.0252 74.2945 11.0252C73.8857 11.0252 73.5386 10.7016 73.5386 10.2725C73.5386 9.85015 73.8825 9.52655 74.2945 9.52655ZM74.2945 10.9162C74.6421 10.9162 74.911 10.6403 74.911 10.2725C74.911 9.91486 74.6421 9.63896 74.2945 9.63896C73.9438 9.63896 73.6748 9.91486 73.6748 10.2725C73.6748 10.6403 73.9438 10.9162 74.2945 10.9162ZM74.0018 9.83991H74.3389C74.5465 9.83991 74.6453 9.92168 74.6453 10.092C74.6453 10.2486 74.5465 10.3168 74.4139 10.3304L74.6659 10.7153H74.5195L74.2808 10.3372H74.1381V10.7153H74.0018V9.83991ZM74.1381 10.2282H74.2808C74.4002 10.2282 74.5127 10.2214 74.5127 10.0852C74.5127 9.96933 74.4139 9.95232 74.322 9.95232H74.1413V10.2316L74.1381 10.2282Z" fill="#888888"/>
<path d="M24.9315 0.0612956H28.8961C30.1495 0.0612956 31.1679 0.435955 31.8253 1.09331C32.4043 1.67233 32.7347 2.50339 32.7347 3.50475V3.56606C32.7347 5.25883 31.7946 6.30791 30.4629 6.7779L33.7224 11.0252H31.6243L28.6134 7.13895C28.5827 7.15596 28.5351 7.15596 28.5044 7.15596H26.7503V11.0252H24.9315V0.0612956ZM28.7088 5.52791C30.1189 5.52791 30.9023 4.77521 30.9023 3.63078V3.60012C30.9023 2.36375 30.1019 1.72002 28.7394 1.72002H26.7503V5.52791H28.7088Z" fill="#888888"/>
<path d="M37.4588 6.65872L33.7633 0.0612956H35.8478L38.3852 4.80924L40.9397 0.0612956H42.9595L39.2776 6.64166V11.0286H37.4588V6.65872Z" fill="#888888"/>
<path d="M70.3776 6.65872L66.6788 0.0612956H68.7633L71.3009 4.80924L73.855 0.0612956H75.875L72.1931 6.64166V11.0286H70.3744V6.65872H70.3776Z" fill="#888888"/>
<path d="M5.97377 7.89851L2.6938 0.0612956H0.875V11.0286H2.72105V4.57083L5.43222 11.0286H6.48468L9.21628 4.28473V11.0286H11.0555V0.0612956H9.22309L5.97377 7.89851Z" fill="#888888"/>
<path d="M54.1959 0.0612956L50.337 4.6628H50.2383V0.0612956H48.3953V11.0286H50.2383V6.40665H50.3165L54.3422 11.0286H56.6412L51.7877 5.54497L56.4948 0.0612956H54.1959Z" fill="#888888"/>
<path d="M21.0692 11.0286H22.9663L18.9404 0H17.1863L13.1604 11.0286H14.9928L15.6809 9.0804H20.3811L21.0692 11.0286ZM16.2633 7.43186L18.031 2.42847L19.7987 7.43186H16.2633Z" fill="#888888"/>
<path d="M67.1627 11.0286L63.1332 0H61.379L57.3532 11.0286H59.1857L59.8735 9.0804H64.5738L65.262 11.0286H67.1627ZM60.4593 7.43186L62.2273 2.42847L63.9948 7.43186H60.4593Z" fill="#888888"/>
</svg>
