<svg width="37" height="24" viewBox="0 0 37 24" fill="none" xmlns="http://www.w3.org/2000/svg">
<path d="M23.6192 20.9172H13.9795V3.08643H23.6192V20.9172Z" fill="#FF5F00"/>
<path d="M14.5968 11.9998C14.5968 8.38278 16.2422 5.1608 18.8046 3.08443C16.9308 1.56609 14.566 0.659842 11.9959 0.659842C5.91156 0.659842 0.979492 5.73685 0.979492 11.9998C0.979492 18.2628 5.91156 23.3398 11.9959 23.3398C14.566 23.3398 16.9308 22.4336 18.8046 20.9153C16.2422 18.8389 14.5968 15.6169 14.5968 11.9998Z" fill="#EB001B"/>
<path d="M36.6187 11.9998C36.6187 18.2628 31.6867 23.3398 25.6023 23.3398C23.0323 23.3398 20.6674 22.4336 18.793 20.9153C21.356 18.8389 23.0014 15.6169 23.0014 11.9998C23.0014 8.38278 21.356 5.1608 18.793 3.08443C20.6674 1.56609 23.0323 0.659842 25.6023 0.659842C31.6867 0.659842 36.6187 5.73685 36.6187 11.9998Z" fill="#F79E1B"/>
</svg>
