<svg width="56" height="18" viewBox="0 0 56 18" fill="none" xmlns="http://www.w3.org/2000/svg">
<path d="M31.3356 2.61775L27.8553 10.4894H27.501V0.899902H22.5411V17.0999H26.73C27.8345 17.0999 28.8348 16.4258 29.2933 15.382L32.7736 7.51037H33.1278V17.0999H38.0669V0.899902H33.8781C32.7944 0.899902 31.7941 1.574 31.3356 2.61775ZM12.788 3.03091L10.7249 10.4894H10.3706L8.30744 3.03091C7.95317 1.7697 6.84865 0.899902 5.59825 0.899902H0.65918V17.0999H5.59825V7.53212H5.95253L8.78676 17.0999H12.3087L15.143 7.51037H15.4972V17.0999H20.4363V0.899902H15.4972C14.2468 0.899902 13.1215 1.7697 12.788 3.03091V3.03091ZM40.2134 8.27145V17.1216H45.1525V11.9463H50.4667C52.7799 11.9463 54.718 10.4025 55.4474 8.27145H40.2134V8.27145Z" fill="#319B42"/>
<path d="M50.4449 0.899902H39.5039C40.1708 4.66178 43.3385 7.53212 47.1313 7.53212H55.634C55.6966 7.1842 55.7382 6.81453 55.7382 6.42312C55.7382 3.37883 53.3625 0.899902 50.4449 0.899902Z" fill="url(#paint0_linear_4750_23349)"/>
<defs>
<linearGradient id="paint0_linear_4750_23349" x1="39.497" y1="4.21557" x2="55.7389" y2="4.21557" gradientUnits="userSpaceOnUse">
<stop stop-color="#00A3E1"/>
<stop offset="0.304" stop-color="#009ADD"/>
<stop offset="0.799" stop-color="#0082D4"/>
<stop offset="1" stop-color="#0076CF"/>
</linearGradient>
</defs>
</svg>
