<svg width="41" height="40" viewBox="0 0 41 40" fill="none" xmlns="http://www.w3.org/2000/svg">
<rect x="0.5" width="40" height="40" rx="20" fill="url(#paint0_linear_4490_59805)"/>
<path d="M16.8342 20C16.8342 17.975 18.4754 16.3329 20.5005 16.3329C22.5255 16.3329 24.1676 17.975 24.1676 20C24.1676 22.0251 22.5255 23.6671 20.5005 23.6671C18.4754 23.6671 16.8342 22.0251 16.8342 20ZM14.8519 20C14.8519 23.1198 17.3807 25.6486 20.5005 25.6486C23.6202 25.6486 26.1491 23.1198 26.1491 20C26.1491 16.8803 23.6202 14.3514 20.5005 14.3514C17.3807 14.3514 14.8519 16.8803 14.8519 20ZM25.0526 14.1275C25.0525 14.3885 25.1298 14.6438 25.2748 14.8609C25.4198 15.0781 25.6259 15.2473 25.867 15.3474C26.1082 15.4474 26.3736 15.4736 26.6297 15.4228C26.8858 15.3719 27.121 15.2463 27.3057 15.0618C27.4904 14.8772 27.6162 14.6421 27.6673 14.386C27.7183 14.13 27.6923 13.8646 27.5924 13.6233C27.4926 13.3821 27.3235 13.1758 27.1065 13.0307C26.8895 12.8856 26.6343 12.808 26.3732 12.8079H26.3727C26.0227 12.8081 25.6871 12.9472 25.4396 13.1946C25.1921 13.442 25.0529 13.7775 25.0526 14.1275ZM16.0563 28.9541C14.9838 28.9053 14.4008 28.7266 14.0134 28.5757C13.4999 28.3758 13.1334 28.1376 12.7481 27.7529C12.3628 27.3681 12.1244 27.002 11.9253 26.4884C11.7743 26.1012 11.5956 25.5181 11.5469 24.4456C11.4935 23.2861 11.4829 22.9378 11.4829 20.0001C11.4829 17.0625 11.4944 16.7151 11.5469 15.5546C11.5957 14.4821 11.7757 13.9001 11.9253 13.5118C12.1252 12.9982 12.3634 12.6317 12.7481 12.2465C13.1329 11.8612 13.499 11.6227 14.0134 11.4236C14.4007 11.2726 14.9838 11.094 16.0563 11.0452C17.2158 10.9919 17.5641 10.9812 20.5005 10.9812C23.4368 10.9812 23.7855 10.9928 24.946 11.0452C26.0185 11.0941 26.6004 11.274 26.9888 11.4236C27.5024 11.6227 27.8688 11.8617 28.2541 12.2465C28.6394 12.6312 28.877 12.9982 29.0769 13.5118C29.228 13.899 29.4066 14.4821 29.4554 15.5546C29.5087 16.7151 29.5193 17.0625 29.5193 20.0001C29.5193 22.9378 29.5087 23.2851 29.4554 24.4456C29.4065 25.5181 29.227 26.1011 29.0769 26.4884C28.877 27.002 28.6389 27.3685 28.2541 27.7529C27.8694 28.1373 27.5024 28.3758 26.9888 28.5757C26.6016 28.7267 26.0185 28.9054 24.946 28.9541C23.7864 29.0075 23.4381 29.0181 20.5005 29.0181C17.5628 29.0181 17.2155 29.0075 16.0563 28.9541ZM15.9652 9.06619C14.7941 9.11952 13.9939 9.30521 13.2951 9.57714C12.5713 9.85796 11.9586 10.2347 11.3464 10.846C10.7342 11.4573 10.3584 12.0709 10.0776 12.7946C9.80564 13.4939 9.61995 14.2937 9.56662 15.4648C9.51241 16.6377 9.5 17.0127 9.5 20C9.5 22.9874 9.51241 23.3624 9.56662 24.5353C9.61995 25.7064 9.80564 26.5061 10.0776 27.2054C10.3584 27.9287 10.7343 28.5431 11.3464 29.1541C11.9586 29.7651 12.5713 30.1413 13.2951 30.4229C13.9952 30.6948 14.7941 30.8805 15.9652 30.9339C17.1387 30.9872 17.5131 31.0005 20.5005 31.0005C23.4878 31.0005 23.8628 30.9881 25.0357 30.9339C26.2069 30.8805 27.0066 30.6948 27.7058 30.4229C28.4291 30.1413 29.0423 29.7654 29.6545 29.1541C30.2667 28.5428 30.6417 27.9287 30.9233 27.2054C31.1953 26.5061 31.3818 25.7064 31.4343 24.5353C31.4876 23.3615 31.5 22.9874 31.5 20C31.5 17.0127 31.4876 16.6377 31.4343 15.4648C31.381 14.2936 31.1953 13.4935 30.9233 12.7946C30.6417 12.0713 30.2658 11.4582 29.6545 10.846C29.0432 10.2337 28.4291 9.85796 27.7067 9.57714C27.0066 9.30521 26.2068 9.11864 25.0366 9.06619C23.8637 9.01286 23.4887 8.99957 20.5013 8.99957C17.514 8.99957 17.1387 9.01198 15.9652 9.06619Z" fill="white"/>
<defs>
<linearGradient id="paint0_linear_4490_59805" x1="24.0321" y1="-1.81016" x2="0.500001" y2="44.349" gradientUnits="userSpaceOnUse">
<stop stop-color="#FB16BB"/>
<stop offset="1" stop-color="#FFBE16"/>
</linearGradient>
</defs>
</svg>
