<svg width="41" height="40" viewBox="0 0 41 40" fill="none" xmlns="http://www.w3.org/2000/svg">
<rect x="0.5" width="40" height="40" rx="20" fill="#5181B8"/>
<path fill-rule="evenodd" clip-rule="evenodd" d="M30.6631 15.1555C30.8113 14.6618 30.6631 14.2988 29.9583 14.2988H27.6276C27.0349 14.2988 26.7619 14.6123 26.6137 14.9581C26.6137 14.9581 25.4284 17.847 23.7493 19.7235C23.2061 20.2667 22.9592 20.4394 22.6628 20.4394C22.5147 20.4394 22.3002 20.2667 22.3002 19.773V15.1555C22.3002 14.5629 22.1283 14.2988 21.6343 14.2988H17.9718C17.6016 14.2988 17.3788 14.5739 17.3788 14.8346C17.3788 15.3964 18.2182 15.5259 18.3048 17.1062V20.5384C18.3048 21.2909 18.1689 21.4274 17.8726 21.4274C17.0825 21.4274 15.1607 18.5254 14.0206 15.205C13.7972 14.5595 13.5731 14.2988 12.9775 14.2988H10.6468C9.98084 14.2988 9.84766 14.6123 9.84766 14.9581C9.84766 15.5754 10.6379 18.6373 13.5268 22.6867C15.453 25.4519 18.1663 26.9512 20.6355 26.9512C22.1171 26.9512 22.3002 26.6182 22.3002 26.0447V23.9546C22.3002 23.2887 22.4406 23.1558 22.9096 23.1558C23.2555 23.1558 23.848 23.3286 25.2309 24.6619C26.8111 26.242 27.0715 26.9512 27.9605 26.9512H30.2912C30.9571 26.9512 31.2901 26.6182 31.098 25.9611C30.8879 25.3062 30.1334 24.3563 29.1322 23.2299C28.589 22.5878 27.7741 21.8964 27.5273 21.5508C27.1816 21.1063 27.2803 20.9089 27.5273 20.514C27.5273 20.514 30.3668 16.5138 30.6631 15.1557V15.1555Z" fill="white"/>
</svg>
