<svg width="53" height="30" viewBox="0 0 53 30" fill="none" xmlns="http://www.w3.org/2000/svg">
<path d="M28.9691 9.83043L26.15 16.2065H25.8631V8.43896H21.8456V21.561H25.2385C26.1332 21.561 26.9434 21.0149 27.3148 20.1695L30.1338 13.7934H30.4208V21.561H34.4214V8.43896H31.0285C30.1507 8.43896 29.3404 8.98498 28.9691 9.83043ZM13.9455 10.1651L12.2744 16.2065H11.9874L10.3163 10.1651C10.0293 9.1435 9.13464 8.43896 8.12182 8.43896H4.12117V21.561H8.12182V13.8111H8.40878L10.7045 21.561H13.5573L15.853 13.7934H16.14V21.561H20.1406V8.43896H16.14C15.1272 8.43896 14.2156 9.1435 13.9455 10.1651V10.1651ZM36.1601 14.4099V21.5786H40.1607V17.3866H44.4652C46.339 17.3866 47.9088 16.136 48.4996 14.4099H36.1601V14.4099Z" fill="#319B42"/>
<path d="M44.448 8.43896H35.5858C36.126 11.4861 38.6918 13.8111 41.764 13.8111H48.6512C48.7018 13.5292 48.7356 13.2298 48.7356 12.9128C48.7356 10.4469 46.8112 8.43896 44.448 8.43896Z" fill="url(#paint0_linear_3866_28012)"/>
<defs>
<linearGradient id="paint0_linear_3866_28012" x1="35.5802" y1="11.1247" x2="48.7361" y2="11.1247" gradientUnits="userSpaceOnUse">
<stop stop-color="#00A3E1"/>
<stop offset="0.304" stop-color="#009ADD"/>
<stop offset="0.799" stop-color="#0082D4"/>
<stop offset="1" stop-color="#0076CF"/>
</linearGradient>
</defs>
</svg>
