<svg width="54" height="30" viewBox="0 0 54 30" fill="none" xmlns="http://www.w3.org/2000/svg">
<path d="M26.2706 9.04412L23.5572 20.4445H20.2674L23.0048 9.04412H26.2706ZM40.1022 16.3929L41.8311 12.1043L42.8157 16.3929H40.1022ZM43.7762 20.4445H46.8258L44.1604 9.04412H41.3509C40.7265 9.04412 40.1982 9.36738 39.9581 9.8846L35.0354 20.4445H38.4933L39.1657 18.7419H43.368L43.7762 20.4445ZM35.2035 16.7162C35.2275 13.6991 30.569 13.5482 30.593 12.1905C30.593 11.7811 31.0252 11.35 31.9858 11.2423C32.466 11.1776 33.7627 11.1345 35.2275 11.7595L35.8038 9.34583C35.0114 9.06567 34.0029 8.82861 32.7302 8.82861C29.4884 8.82861 27.2071 10.3803 27.1831 12.6C27.1591 14.2378 28.816 15.1645 30.0647 15.7033C31.3374 16.2636 31.7696 16.63 31.7696 17.1256C31.7696 17.9015 30.7371 18.2247 29.8006 18.2463C28.1437 18.2678 27.1831 17.8368 26.4147 17.5351L25.8144 20.035C26.5828 20.3583 27.9996 20.6169 29.4644 20.6384C32.9223 20.6169 35.1795 19.0868 35.2035 16.7162ZM21.5881 9.04412L16.2572 20.4445H12.7993L10.1578 11.3285C9.98975 10.7682 9.86968 10.5742 9.38942 10.3372C8.59699 9.94925 7.30028 9.58289 6.14765 9.36738L6.21969 9.04412H11.8147C12.5351 9.04412 13.1595 9.47514 13.3276 10.2079L14.7203 16.8024L18.1302 9.04412H21.5881Z" fill="#2A2A6C"/>
</svg>
