<svg width="53" height="30" viewBox="0 0 53 30" fill="none" xmlns="http://www.w3.org/2000/svg">
<g clip-path="url(#clip0_3866_28024)">
<path d="M19.616 11.2351H16.7826C16.6888 11.235 16.598 11.2685 16.5267 11.3294C16.4554 11.3903 16.4081 11.4747 16.3935 11.5674L15.2475 18.8332C15.2423 18.8669 15.2444 18.9013 15.2537 18.9342C15.263 18.967 15.2794 18.9974 15.3016 19.0233C15.3238 19.0492 15.3513 19.07 15.3823 19.0842C15.4134 19.0985 15.4471 19.1058 15.4812 19.1058H16.8339C16.9278 19.1058 17.0186 19.0723 17.0899 19.0113C17.1613 18.9503 17.2084 18.8658 17.223 18.7731L17.532 16.8134C17.5466 16.7207 17.5937 16.6363 17.6649 16.5753C17.7362 16.5143 17.8269 16.4808 17.9207 16.4807H18.8177C20.6841 16.4807 21.7613 15.5775 22.0427 13.7877C22.1694 13.0046 22.048 12.3894 21.6814 11.9585C21.2787 11.4854 20.5644 11.2351 19.616 11.2351V11.2351ZM19.9429 13.8888C19.788 14.9055 19.0111 14.9055 18.26 14.9055H17.8324L18.1324 13.0067C18.1412 12.9512 18.1695 12.9006 18.2122 12.864C18.255 12.8275 18.3094 12.8074 18.3656 12.8074H18.5616C19.0733 12.8074 19.556 12.8074 19.8054 13.0991C19.9541 13.2731 19.9997 13.5316 19.9429 13.8888V13.8888ZM28.0858 13.856H26.7289C26.6727 13.856 26.6183 13.8761 26.5755 13.9126C26.5328 13.9492 26.5045 13.9998 26.4957 14.0553L26.4356 14.4348L26.3407 14.2973C26.047 13.871 25.392 13.7284 24.7382 13.7284C23.2388 13.7284 21.9581 14.8641 21.7087 16.4571C21.579 17.2517 21.7634 18.0116 22.2142 18.5415C22.6277 19.0287 23.2193 19.2317 23.9232 19.2317C25.1313 19.2317 25.8013 18.4549 25.8013 18.4549L25.7408 18.8319C25.7354 18.8656 25.7374 18.9001 25.7466 18.933C25.7558 18.9658 25.7721 18.9963 25.7942 19.0223C25.8163 19.0483 25.8438 19.0692 25.8748 19.0835C25.9058 19.0979 25.9395 19.1053 25.9736 19.1054H27.1959C27.2897 19.1054 27.3805 19.0719 27.4519 19.0109C27.5232 18.9499 27.5704 18.8654 27.5849 18.7727L28.3182 14.1287C28.3236 14.095 28.3217 14.0606 28.3125 14.0278C28.3033 13.995 28.2871 13.9646 28.265 13.9387C28.2429 13.9128 28.2154 13.892 28.1845 13.8777C28.1535 13.8634 28.1199 13.856 28.0858 13.856V13.856ZM26.1945 16.4969C26.0635 17.272 25.4483 17.7924 24.6636 17.7924C24.2696 17.7924 23.9547 17.666 23.7525 17.4266C23.552 17.1888 23.4758 16.8503 23.5396 16.4732C23.6618 15.7047 24.2874 15.1673 25.0601 15.1673C25.4454 15.1673 25.7586 15.2954 25.9649 15.5369C26.1717 15.7809 26.2537 16.1215 26.1945 16.4969V16.4969ZM35.3122 13.856H33.9487C33.8844 13.8561 33.8211 13.8719 33.7643 13.902C33.7075 13.9321 33.6589 13.9757 33.6227 14.0288L31.7421 16.7989L30.945 14.1369C30.9205 14.0558 30.8705 13.9846 30.8025 13.934C30.7344 13.8834 30.6519 13.8561 30.5671 13.856H29.2272C29.1896 13.8559 29.1525 13.8648 29.119 13.882C29.0856 13.8991 29.0567 13.924 29.0347 13.9545C29.0128 13.9851 28.9985 14.0204 28.993 14.0576C28.9875 14.0949 28.9909 14.1328 29.0031 14.1684L30.505 18.5759L29.093 20.5691C29.0679 20.6045 29.053 20.646 29.05 20.6893C29.0469 20.7325 29.0558 20.7757 29.0757 20.8143C29.0956 20.8528 29.1257 20.885 29.1628 20.9076C29.1998 20.9301 29.2423 20.942 29.2856 20.942H30.6475C30.7111 20.9421 30.7737 20.9268 30.8301 20.8973C30.8864 20.8679 30.9348 20.8252 30.9711 20.773L35.5061 14.2269C35.5307 14.1914 35.5451 14.15 35.5478 14.1069C35.5505 14.0639 35.5414 14.021 35.5214 13.9828C35.5014 13.9446 35.4714 13.9126 35.4345 13.8902C35.3976 13.8679 35.3553 13.8561 35.3122 13.856V13.856Z" fill="#253B80"/>
<path d="M39.8264 11.2353H36.9925C36.8988 11.2353 36.8082 11.2688 36.7369 11.3297C36.6657 11.3906 36.6185 11.475 36.6039 11.5676L35.4579 18.8333C35.4526 18.867 35.4546 18.9014 35.4639 18.9342C35.4731 18.967 35.4894 18.9974 35.5115 19.0233C35.5336 19.0492 35.5611 19.07 35.5921 19.0843C35.623 19.0986 35.6567 19.106 35.6908 19.106H37.145C37.2106 19.1059 37.274 19.0824 37.3238 19.0397C37.3737 18.997 37.4066 18.9379 37.4168 18.8731L37.742 16.8136C37.7565 16.7209 37.8037 16.6365 37.8749 16.5755C37.9462 16.5145 38.0368 16.4809 38.1306 16.4809H39.0272C40.8941 16.4809 41.9709 15.5777 42.2526 13.7878C42.3798 13.0048 42.2576 12.3895 41.8909 11.9587C41.4886 11.4855 40.7748 11.2353 39.8264 11.2353V11.2353ZM40.1533 13.8889C39.9988 14.9057 39.2219 14.9057 38.4704 14.9057H38.0432L38.3436 13.0069C38.3522 12.9513 38.3804 12.9007 38.4231 12.8641C38.4658 12.8276 38.5202 12.8075 38.5764 12.8076H38.7724C39.2837 12.8076 39.7668 12.8076 40.0162 13.0993C40.1649 13.2733 40.2101 13.5318 40.1533 13.8889V13.8889ZM48.2958 13.8562H46.9397C46.8835 13.8561 46.8291 13.8761 46.7863 13.9127C46.7436 13.9492 46.7154 13.9999 46.7069 14.0555L46.6468 14.435L46.5515 14.2975C46.2578 13.8711 45.6032 13.7286 44.9494 13.7286C43.45 13.7286 42.1698 14.8642 41.9203 16.4573C41.7911 17.2519 41.9746 18.0118 42.4254 18.5417C42.8397 19.0289 43.4305 19.2319 44.1344 19.2319C45.3426 19.2319 46.0125 18.4551 46.0125 18.4551L45.952 18.8321C45.9466 18.8659 45.9486 18.9004 45.9579 18.9333C45.9671 18.9663 45.9834 18.9968 46.0057 19.0228C46.0279 19.0488 46.0555 19.0697 46.0866 19.084C46.1177 19.0982 46.1515 19.1056 46.1857 19.1055H47.4075C47.5013 19.1055 47.592 19.0719 47.6632 19.0109C47.7345 18.9499 47.7816 18.8655 47.7961 18.7728L48.5299 14.1288C48.5351 14.0951 48.5329 14.0606 48.5235 14.0278C48.5141 13.995 48.4978 13.9646 48.4755 13.9387C48.4533 13.9128 48.4257 13.892 48.3947 13.8778C48.3637 13.8635 48.3299 13.8562 48.2958 13.8562V13.8562ZM46.4044 16.497C46.2743 17.2722 45.6583 17.7926 44.8736 17.7926C44.4804 17.7926 44.1647 17.6662 43.9625 17.4267C43.762 17.1889 43.6866 16.8504 43.7495 16.4734C43.8726 15.7049 44.4974 15.1675 45.2701 15.1675C45.6554 15.1675 45.9686 15.2955 46.1749 15.5371C46.3825 15.7811 46.4645 16.1217 46.4044 16.497V16.497ZM49.8954 11.4346L48.7325 18.8333C48.7271 18.867 48.7292 18.9014 48.7384 18.9342C48.7477 18.967 48.7639 18.9974 48.786 19.0233C48.8082 19.0492 48.8357 19.07 48.8666 19.0843C48.8975 19.0986 48.9312 19.106 48.9653 19.106H50.1345C50.3288 19.106 50.4937 18.9651 50.5235 18.7733L51.6703 11.5079C51.6757 11.4742 51.6736 11.4398 51.6644 11.407C51.6551 11.3741 51.6389 11.3437 51.6168 11.3178C51.5946 11.2918 51.5672 11.271 51.5362 11.2567C51.5053 11.2424 51.4716 11.2349 51.4375 11.2349H50.1283C50.0721 11.2351 50.0178 11.2553 49.9751 11.2919C49.9324 11.3285 49.9042 11.379 49.8954 11.4346Z" fill="#179BD7"/>
<path d="M3.48061 20.5176L3.69729 19.1413L3.21462 19.1301H0.909805L2.51153 8.97407C2.5163 8.94304 2.53206 8.91476 2.55594 8.89438C2.57982 8.874 2.61023 8.86287 2.64163 8.86304H6.52787C7.81803 8.86304 8.70839 9.13151 9.17325 9.66142C9.39117 9.91 9.52997 10.1698 9.59709 10.4557C9.66752 10.7556 9.66876 11.114 9.59999 11.5511L9.59501 11.583V11.8631L9.81294 11.9865C9.97931 12.0708 10.1289 12.1848 10.2542 12.323C10.4406 12.5355 10.5612 12.8056 10.6121 13.1259C10.6648 13.4553 10.6474 13.8472 10.5612 14.2909C10.4618 14.8014 10.301 15.2459 10.0839 15.6097C9.89235 15.9356 9.63481 16.2178 9.32778 16.4383C9.03942 16.643 8.69679 16.7983 8.30941 16.8978C7.93404 16.9956 7.50606 17.0449 7.03664 17.0449H6.73419C6.51792 17.0449 6.30787 17.1228 6.14297 17.2624C5.97831 17.4035 5.86908 17.5985 5.83472 17.8126L5.81194 17.9365L5.42911 20.3623L5.41171 20.4513C5.40716 20.4795 5.39928 20.4936 5.38768 20.5031C5.37644 20.5123 5.36242 20.5174 5.34791 20.5176H3.48061Z" fill="#253B80"/>
<path d="M10.0196 11.6157C10.008 11.6899 9.99474 11.7657 9.97982 11.8436C9.46732 14.4749 7.71395 15.3839 5.4746 15.3839H4.33442C4.06056 15.3839 3.82979 15.5828 3.78711 15.8529L3.20335 19.5552L3.03804 20.6046C3.03145 20.6463 3.03397 20.6888 3.04541 20.7294C3.05685 20.7699 3.07694 20.8075 3.10431 20.8396C3.13167 20.8716 3.16566 20.8974 3.20393 20.915C3.2422 20.9327 3.28384 20.9419 3.32598 20.9419H5.34824C5.58771 20.9419 5.79114 20.7679 5.82884 20.5317L5.84873 20.429L6.22948 18.0127L6.25392 17.8801C6.29121 17.6431 6.49505 17.4691 6.73452 17.4691H7.03697C8.99625 17.4691 10.53 16.6736 10.9783 14.3717C11.1656 13.4101 11.0686 12.6072 10.5731 12.0425C10.4161 11.8678 10.2285 11.7232 10.0196 11.6157V11.6157Z" fill="#179BD7"/>
<path d="M9.48302 11.4016C9.31938 11.3543 9.15291 11.3173 8.9846 11.291C8.65204 11.2399 8.31594 11.2154 7.97948 11.2177H4.93347C4.81754 11.2176 4.70541 11.259 4.61735 11.3344C4.52928 11.4097 4.47108 11.5141 4.45328 11.6287L3.8053 15.7328L3.78665 15.8526C3.80684 15.7219 3.87312 15.6028 3.97351 15.5168C4.07389 15.4308 4.20175 15.3835 4.33396 15.3836H5.47414C7.71349 15.3836 9.46686 14.4742 9.97936 11.8433C9.99469 11.7654 10.0075 11.6896 10.0191 11.6154C9.8839 11.5445 9.74296 11.485 9.59778 11.4377C9.55972 11.425 9.52146 11.413 9.48302 11.4016V11.4016Z" fill="#222D65"/>
<path d="M4.45343 11.6287C4.47108 11.5142 4.52924 11.4097 4.61736 11.3344C4.70547 11.259 4.81768 11.2178 4.93361 11.2182H7.97963C8.3405 11.2182 8.67733 11.2418 8.98475 11.2915C9.19278 11.3242 9.39794 11.3731 9.59835 11.4378C9.74957 11.4879 9.89002 11.5471 10.0197 11.6155C10.1722 10.6431 10.0185 9.98103 9.4927 9.38152C8.91308 8.72153 7.86694 8.43896 6.5283 8.43896H2.64206C2.36861 8.43896 2.13536 8.63783 2.0931 8.90838L0.474382 19.1688C0.466842 19.2164 0.46971 19.2651 0.48279 19.3116C0.49587 19.358 0.51885 19.401 0.55015 19.4377C0.58145 19.4744 0.620327 19.5039 0.664106 19.5241C0.707886 19.5444 0.755529 19.5549 0.803759 19.5549H3.20304L3.80544 15.7329L4.45343 11.6287V11.6287Z" fill="#253B80"/>
</g>
<defs>
<clipPath id="clip0_3866_28024">
<rect width="52.488" height="28.8684" fill="white" transform="translate(0.470276 0.565918)"/>
</clipPath>
</defs>
</svg>
