<svg width="54" height="30" viewBox="0 0 54 30" fill="none" xmlns="http://www.w3.org/2000/svg">
<path d="M30.9035 22.223H23.0954V7.78003H30.9035V22.223Z" fill="#FF5F00"/>
<path d="M23.5959 15.0001C23.5959 12.0703 24.9287 9.46052 27.0042 7.77867C25.4864 6.54881 23.5709 5.81475 21.4892 5.81475C16.5609 5.81475 12.5659 9.92712 12.5659 15.0001C12.5659 20.0732 16.5609 24.1855 21.4892 24.1855C23.5709 24.1855 25.4864 23.4515 27.0042 22.2216C24.9287 20.5398 23.5959 17.93 23.5959 15.0001Z" fill="#EB001B"/>
<path d="M41.4341 15.0001C41.4341 20.0732 37.4391 24.1855 32.5108 24.1855C30.4291 24.1855 28.5136 23.4515 26.9952 22.2216C29.0713 20.5398 30.4041 17.93 30.4041 15.0001C30.4041 12.0703 29.0713 9.46052 26.9952 7.77867C28.5136 6.54881 30.4291 5.81475 32.5108 5.81475C37.4391 5.81475 41.4341 9.92712 41.4341 15.0001Z" fill="#F79E1B"/>
</svg>
