<svg width="54" height="30" viewBox="0 0 54 30" fill="none" xmlns="http://www.w3.org/2000/svg">
<path d="M14.1222 8.5538C13.6609 9.04135 12.9228 9.42589 12.1847 9.37096C12.0924 8.71174 12.4538 8.01131 12.8767 7.5787C13.338 7.07742 14.1453 6.72034 14.7988 6.69287C14.8757 7.37956 14.5758 8.05252 14.1222 8.5538ZM14.7911 9.50143C13.7224 9.44649 12.8075 10.0439 12.3 10.0439C11.7849 10.0439 11.0083 9.5289 10.1626 9.54263C9.06307 9.55636 8.04048 10.1126 7.4792 10.9984C6.3259 12.7701 7.17935 15.3932 8.2942 16.8353C8.8401 17.5494 9.49364 18.3322 10.3548 18.3048C11.1698 18.2773 11.4927 17.831 12.4768 17.831C13.4687 17.831 13.7532 18.3048 14.6143 18.291C15.5062 18.2773 16.0674 17.5769 16.6133 16.8627C17.2361 16.0524 17.4899 15.2627 17.5052 15.2215C17.4899 15.2078 15.783 14.6241 15.7676 12.8662C15.7522 11.3967 17.1131 10.6963 17.1746 10.6551C16.4058 9.63877 15.2063 9.5289 14.7911 9.50143ZM20.9651 7.51003V18.2155H22.8258V14.5555H25.4015C27.7542 14.5555 29.4073 13.1134 29.4073 11.0259C29.4073 8.93834 27.785 7.51003 25.463 7.51003H20.9651V7.51003ZM22.8258 8.91088H24.9709C26.5856 8.91088 27.5082 9.67997 27.5082 11.0327C27.5082 12.3855 26.5856 13.1615 24.9632 13.1615H22.8258V8.91088V8.91088ZM32.8057 18.2979C33.9744 18.2979 35.0585 17.7692 35.5505 16.9314H35.589V18.2155H37.3112V12.8868C37.3112 11.3418 35.9273 10.3461 33.7975 10.3461C31.8215 10.3461 30.3607 11.3555 30.3069 12.7426H31.983C32.1214 12.0834 32.8057 11.6508 33.7437 11.6508C34.8816 11.6508 35.5198 12.1246 35.5198 12.9967V13.5872L33.1978 13.7108C31.0373 13.8276 29.8686 14.6173 29.8686 15.9906C29.8686 17.3777 31.0757 18.2979 32.8057 18.2979ZM33.3054 17.0275C32.3136 17.0275 31.6831 16.6018 31.6831 15.9494C31.6831 15.2765 32.2905 14.8851 33.4515 14.8233L35.5198 14.7065V15.3108C35.5198 16.3134 34.5664 17.0275 33.3054 17.0275ZM39.6102 21.1271C41.4247 21.1271 42.2781 20.5091 43.0239 18.6344L46.2916 10.4491H44.4002L42.2089 16.7735H42.1705L39.9792 10.4491H38.034L41.1863 18.243L41.0172 18.7168C40.7327 19.5202 40.2714 19.8292 39.4487 19.8292C39.3026 19.8292 39.0181 19.8155 38.9028 19.8018V21.0859C39.0104 21.1133 39.4718 21.1271 39.6102 21.1271Z" fill="black"/>
</svg>
