<svg width="53" height="30" viewBox="0 0 53 30" fill="none" xmlns="http://www.w3.org/2000/svg">
<path d="M26.9835 16.4796C26.9835 14.5813 28.5928 13.0351 30.5686 13.0351H36.1455V10.356C36.1455 9.72454 35.6077 9.20786 34.9504 9.20786H16.2463C16.0232 9.20786 15.8298 9.36749 15.8298 9.59059V9.59059V22.6032C15.8298 23.2347 16.3676 23.7514 17.0248 23.7514H34.9504C35.6077 23.7514 36.1455 23.2347 36.1455 22.6032V19.9242H30.5686C28.5928 19.9242 26.9835 18.378 26.9835 16.4796Z" fill="#3AA600"/>
<path d="M36.9422 13.8006H30.5686C29.031 13.8006 27.7802 15.0023 27.7802 16.4796C27.7802 17.957 29.031 19.1587 30.5686 19.1587H36.9422C37.5994 19.1587 38.1372 18.642 38.1372 18.0105V14.9487C38.1372 14.3172 37.5994 13.8006 36.9422 13.8006ZM30.967 17.6278C30.3097 17.6278 29.7719 17.1111 29.7719 16.4796C29.7719 15.8481 30.3097 15.3315 30.967 15.3315C31.6242 15.3315 32.162 15.8481 32.162 16.4796C32.162 17.1111 31.6242 17.6278 30.967 17.6278Z" fill="#3AA600"/>
<path d="M30.6621 8.44242C31.7105 8.44242 32.5604 7.59251 32.5604 6.5441V6.5441C32.5604 5.90495 32.0266 5.38062 31.3653 5.38062C31.3056 5.38062 31.2458 5.38444 31.198 5.3921L18.1362 6.96127C17.2121 7.09905 16.4672 7.66548 16.0927 8.44242H30.6621Z" fill="#3AA600"/>
</svg>
