<svg width="53" height="30" viewBox="0 0 53 30" fill="none" xmlns="http://www.w3.org/2000/svg">
<g clip-path="url(#clip0_3866_28014)">
<path d="M5.62664 14.3423L3.03104 15.8237L0.622673 19.952L10.447 14.3423H5.62664Z" fill="#874691"/>
<path d="M13.0429 10.1125L10.4473 11.5939L8.03891 15.7222L17.8596 10.1125H13.0429Z" fill="#DA1844"/>
<path d="M10.4473 8.63097L8.03891 4.50269V12.9662V15.7221V24.1856L10.4473 20.0573V8.63097Z" fill="#F9B229"/>
<path d="M8.03891 4.50269L10.4473 8.63097L13.0429 10.1124H17.8596L8.03891 4.50269Z" fill="#F07F1A"/>
<path d="M8.03891 12.9661V24.1854L10.4473 20.0571V17.0907L8.03891 12.9661Z" fill="#72B22C"/>
<path d="M13.0429 18.5759L10.4473 20.0573L8.03891 24.1856L17.8596 18.5759H13.0429Z" fill="#00743E"/>
<path d="M0.622673 8.73315V19.9525L3.03104 15.8242V12.8615L0.622673 8.73315Z" fill="#5F5A94"/>
<path d="M8.03868 12.9667V12.9704L0.622673 8.73315L3.03104 12.8615L13.0427 18.5764H17.8594L8.03868 12.9667Z" fill="#0D90CD"/>
<path d="M50.9559 11.173V19.7201H47.9239V13.7169H44.9975V19.7201H41.9659V11.173H50.9559Z" fill="#1B0A40"/>
<path d="M40.4684 15.72C40.5119 18.1779 38.4866 19.9659 35.6162 19.9659C32.8949 19.9659 30.6024 18.3376 30.6024 14.3744C30.6024 11.0071 32.7767 8.22982 35.9887 8.18066H40.4684L39.0458 10.7122H36.3119C35.635 10.6905 34.9741 10.9169 34.4557 11.3478C33.9372 11.7788 33.5984 12.384 33.5037 13.0471C34.3668 12.3152 35.4734 11.9256 36.61 11.9534C37.6235 11.9687 38.5919 12.369 39.3149 13.0714C40.038 13.7738 40.4598 14.7244 40.4931 15.7262M37.4615 15.9228C37.4654 15.6865 37.4219 15.4518 37.3331 15.2324C37.2443 15.013 37.1121 14.8133 36.9442 14.645C36.7767 14.4768 36.5764 14.3434 36.3557 14.2526C36.1354 14.1618 35.8987 14.1154 35.6596 14.1163C35.4131 14.1104 35.1682 14.1541 34.9393 14.2446C34.7104 14.3352 34.5026 14.4707 34.3285 14.6431C34.154 14.8155 34.017 15.021 33.9255 15.2474C33.8339 15.4737 33.7897 15.716 33.7956 15.9597C33.805 16.4213 33.9932 16.8618 34.3218 17.19C34.6501 17.5182 35.0934 17.7091 35.5602 17.7232C35.8017 17.7297 36.0419 17.6885 36.2669 17.6021C36.4919 17.5156 36.6973 17.3856 36.8706 17.2196C37.0444 17.0537 37.1829 16.8551 37.2776 16.6356C37.3726 16.4161 37.4223 16.18 37.4239 15.9412" fill="#1B0A40"/>
<path d="M28.2598 16.8015C27.543 17.2323 26.7192 17.4578 25.8803 17.4528C25.3473 17.4353 24.8419 17.2144 24.47 16.8363C24.0982 16.4583 23.8889 15.9525 23.8859 15.4251C23.8889 14.8967 24.0991 14.39 24.4723 14.0118C24.8454 13.6336 25.3525 13.4133 25.8866 13.3974C26.724 13.3882 27.5469 13.6141 28.2598 14.0487L29.3906 12.0333C28.4366 11.3026 27.2608 10.9128 26.0543 10.9273C23.0907 10.9273 21.0528 13.3114 21.0528 15.4251C21.0528 17.8829 23.3144 19.9537 26.0232 19.9659C27.2412 19.9866 28.4296 19.5942 29.3906 18.8538L28.2598 16.8015Z" fill="#1B0A40"/>
</g>
<defs>
<clipPath id="clip0_3866_28014">
<rect width="52.488" height="28.8684" fill="white" transform="translate(0.0417099 0.565918)"/>
</clipPath>
</defs>
</svg>
