<svg width="64" height="17" viewBox="0 0 64 17" fill="none" xmlns="http://www.w3.org/2000/svg">
<path d="M23.8362 4.35181H20.338C20.2222 4.35173 20.1102 4.39302 20.0221 4.46823C19.9341 4.54345 19.8758 4.64763 19.8577 4.76203L18.4429 13.7321C18.4364 13.7737 18.439 13.8163 18.4506 13.8568C18.4621 13.8973 18.4822 13.9349 18.5096 13.9669C18.5371 13.9989 18.5711 14.0245 18.6094 14.0421C18.6477 14.0597 18.6893 14.0687 18.7314 14.0687H20.4015C20.5173 14.0687 20.6294 14.0274 20.7175 13.9521C20.8056 13.8768 20.8638 13.7724 20.8818 13.658L21.2633 11.2386C21.2813 11.1242 21.3394 11.0199 21.4274 10.9446C21.5154 10.8693 21.6273 10.8279 21.7431 10.8279H22.8505C25.1548 10.8279 26.4847 9.71279 26.832 7.50313C26.9885 6.5364 26.8386 5.77683 26.386 5.24488C25.8888 4.66075 25.007 4.35181 23.8362 4.35181V4.35181ZM24.2397 7.62794C24.0484 8.88315 23.0894 8.88315 22.162 8.88315H21.6342L22.0045 6.53896C22.0153 6.47038 22.0503 6.40792 22.1031 6.36282C22.1559 6.31771 22.223 6.29293 22.2925 6.29293H22.5344C23.1661 6.29293 23.762 6.29293 24.0699 6.65303C24.2535 6.86785 24.3098 7.18703 24.2397 7.62794V7.62794ZM34.2927 7.58753H32.6175C32.5481 7.58753 32.4809 7.61231 32.4281 7.65741C32.3753 7.70251 32.3404 7.76497 32.3295 7.83356L32.2554 8.30209L32.1382 8.13227C31.7756 7.60594 30.9669 7.42999 30.1598 7.42999C28.3087 7.42999 26.7276 8.832 26.4197 10.7987C26.2596 11.7797 26.4872 12.7178 27.0437 13.372C27.5542 13.9736 28.2846 14.2242 29.1537 14.2242C30.6452 14.2242 31.4723 13.2651 31.4723 13.2651L31.3976 13.7306C31.3909 13.7722 31.3934 13.8148 31.4048 13.8553C31.4161 13.8959 31.4362 13.9336 31.4635 13.9656C31.4908 13.9977 31.5248 14.0235 31.563 14.0412C31.6013 14.0589 31.6429 14.0681 31.6851 14.0682H33.194C33.3098 14.0682 33.4219 14.0269 33.51 13.9516C33.5981 13.8762 33.6563 13.7719 33.6743 13.6574L34.5796 7.92409C34.5863 7.88257 34.5838 7.84009 34.5725 7.7996C34.5611 7.75911 34.5411 7.72157 34.5138 7.68956C34.4865 7.65756 34.4526 7.63187 34.4145 7.61425C34.3763 7.59663 34.3347 7.58751 34.2927 7.58753V7.58753ZM31.9577 10.8478C31.7961 11.8048 31.0365 12.4472 30.0677 12.4472C29.5813 12.4472 29.1925 12.2912 28.9429 11.9956C28.6954 11.702 28.6012 11.2841 28.68 10.8186C28.8309 9.86982 29.6033 9.20641 30.5572 9.20641C31.0329 9.20641 31.4196 9.36446 31.6743 9.66267C31.9296 9.96394 32.0308 10.3844 31.9577 10.8478V10.8478ZM43.2142 7.58753H41.5308C41.4514 7.58765 41.3733 7.60715 41.3031 7.64431C41.233 7.68148 41.173 7.73521 41.1283 7.80082L38.8066 11.2207L37.8225 7.93432C37.7923 7.83409 37.7306 7.74624 37.6466 7.68379C37.5626 7.62133 37.4607 7.58758 37.356 7.58753H35.7018C35.6554 7.5874 35.6096 7.59837 35.5683 7.61952C35.5269 7.64067 35.4912 7.67139 35.4642 7.70911C35.4371 7.74684 35.4194 7.79049 35.4126 7.83642C35.4058 7.88235 35.4101 7.92925 35.4251 7.9732L37.2793 13.4145L35.5361 15.8753C35.5051 15.9189 35.4868 15.9702 35.483 16.0236C35.4792 16.077 35.4902 16.1304 35.5148 16.1779C35.5394 16.2255 35.5765 16.2653 35.6222 16.2931C35.668 16.321 35.7204 16.3357 35.774 16.3356H37.4552C37.5337 16.3357 37.6111 16.3168 37.6807 16.2805C37.7502 16.2441 37.81 16.1914 37.8547 16.1269L43.4535 8.04532C43.4839 8.00159 43.5017 7.9504 43.505 7.89728C43.5083 7.84416 43.4971 7.79114 43.4724 7.74398C43.4477 7.69682 43.4106 7.6573 43.3651 7.62973C43.3196 7.60215 43.2674 7.58755 43.2142 7.58753V7.58753Z" fill="#253B80"/>
<path d="M48.7884 4.35207H45.2898C45.174 4.35212 45.0621 4.39347 44.9742 4.46867C44.8862 4.54387 44.828 4.64799 44.81 4.76229L43.3952 13.7324C43.3886 13.7739 43.3911 13.8164 43.4025 13.8569C43.414 13.8974 43.434 13.9349 43.4613 13.9669C43.4887 13.9989 43.5226 14.0246 43.5608 14.0422C43.599 14.0598 43.6406 14.069 43.6826 14.069H45.478C45.559 14.0688 45.6373 14.0398 45.6988 13.9871C45.7603 13.9344 45.801 13.8615 45.8135 13.7815L46.2151 11.2389C46.233 11.1245 46.2912 11.0202 46.3791 10.9449C46.4671 10.8696 46.579 10.8282 46.6948 10.8281H47.8017C50.1065 10.8281 51.4359 9.71306 51.7837 7.5034C51.9407 6.53667 51.7898 5.7771 51.3372 5.24515C50.8405 4.66102 49.9592 4.35207 48.7884 4.35207V4.35207ZM49.192 7.6282C49.0012 8.88341 48.0421 8.88341 47.1143 8.88341H46.5869L46.9578 6.53923C46.9684 6.47064 47.0032 6.40813 47.0559 6.363C47.1087 6.31788 47.1758 6.29311 47.2452 6.2932H47.4871C48.1183 6.2932 48.7147 6.2932 49.0227 6.65329C49.2063 6.86812 49.262 7.18729 49.192 7.6282V7.6282ZM59.2444 7.58779H57.5703C57.5008 7.5876 57.4336 7.61233 57.3809 7.65748C57.3281 7.70262 57.2933 7.7652 57.2828 7.83382L57.2086 8.30235L57.091 8.13254C56.7283 7.60621 55.9202 7.43025 55.113 7.43025C53.2619 7.43025 51.6814 8.83226 51.3735 10.799C51.2139 11.78 51.4405 12.7181 51.997 13.3723C52.5085 13.9738 53.2379 14.2244 54.1069 14.2244C55.5984 14.2244 56.4255 13.2654 56.4255 13.2654L56.3509 13.7309C56.3442 13.7726 56.3467 13.8152 56.3581 13.8559C56.3695 13.8965 56.3897 13.9342 56.4171 13.9663C56.4445 13.9984 56.4786 14.0242 56.517 14.0418C56.5554 14.0594 56.5971 14.0685 56.6393 14.0684H58.1477C58.2635 14.0684 58.3755 14.027 58.4635 13.9517C58.5514 13.8764 58.6096 13.7721 58.6275 13.6577L59.5334 7.92436C59.5398 7.88271 59.5371 7.84016 59.5256 7.79963C59.514 7.75911 59.4938 7.72157 59.4663 7.68959C59.4389 7.65762 59.4048 7.63196 59.3665 7.61439C59.3282 7.59682 59.2865 7.58775 59.2444 7.58779V7.58779ZM56.9094 10.8481C56.7488 11.8051 55.9882 12.4475 55.0194 12.4475C54.534 12.4475 54.1443 12.2915 53.8947 11.9959C53.6471 11.7023 53.554 11.2844 53.6317 10.8189C53.7837 9.87009 54.555 9.20668 55.5089 9.20668C55.9846 9.20668 56.3713 9.36473 56.626 9.66293C56.8823 9.9642 56.9836 10.3847 56.9094 10.8481V10.8481ZM61.2193 4.5981L59.7835 13.7324C59.7769 13.7739 59.7794 13.8164 59.7908 13.8569C59.8023 13.8974 59.8223 13.9349 59.8497 13.9669C59.877 13.9989 59.9109 14.0246 59.9491 14.0422C59.9873 14.0598 60.0289 14.069 60.071 14.069H61.5144C61.7543 14.069 61.9579 13.895 61.9947 13.6582L63.4105 4.68864C63.4171 4.64706 63.4146 4.60455 63.4032 4.56404C63.3917 4.52352 63.3717 4.48596 63.3444 4.45393C63.3171 4.4219 63.2831 4.39617 63.2449 4.3785C63.2067 4.36083 63.1651 4.35164 63.1231 4.35156H61.5067C61.4373 4.35181 61.3703 4.37675 61.3176 4.42193C61.265 4.4671 61.2301 4.52956 61.2193 4.5981Z" fill="#179BD7"/>
<path d="M3.91699 15.812L4.18451 14.1128L3.58861 14.099H0.743164L2.72061 1.56067C2.72649 1.52236 2.74595 1.48744 2.77543 1.46228C2.80491 1.43711 2.84246 1.42338 2.88122 1.42359H7.67904C9.27184 1.42359 10.371 1.75504 10.9449 2.40924C11.214 2.71614 11.3853 3.03684 11.4682 3.38978C11.5552 3.7601 11.5567 4.20254 11.4718 4.74217L11.4656 4.78155V5.12733L11.7347 5.27975C11.9401 5.38381 12.1247 5.52457 12.2794 5.69509C12.5096 5.95748 12.6585 6.29098 12.7214 6.68636C12.7863 7.093 12.7648 7.57688 12.6585 8.12469C12.5357 8.75485 12.3372 9.30369 12.0692 9.75278C11.8327 10.1551 11.5148 10.5035 11.1357 10.7758C10.7797 11.0284 10.3567 11.2203 9.87847 11.343C9.41506 11.4637 8.88668 11.5246 8.30716 11.5246H7.93377C7.66677 11.5246 7.40744 11.6208 7.20386 11.7931C7.00058 11.9673 6.86572 12.2081 6.82331 12.4724L6.79518 12.6253L6.32256 15.6201L6.30107 15.7301C6.29545 15.7649 6.28573 15.7823 6.27141 15.7941C6.25753 15.8054 6.24022 15.8117 6.2223 15.812H3.91699Z" fill="#253B80"/>
<path d="M11.9898 4.82178C11.9755 4.91334 11.9592 5.00694 11.9407 5.1031C11.308 8.35161 9.14337 9.47383 6.37874 9.47383H4.9711C4.633 9.47383 4.3481 9.71935 4.29542 10.0528L3.57472 14.6236L3.37063 15.9192C3.3625 15.9706 3.36561 16.0231 3.37973 16.0732C3.39386 16.1233 3.41866 16.1697 3.45245 16.2093C3.48624 16.2488 3.52819 16.2806 3.57544 16.3024C3.62268 16.3242 3.67409 16.3355 3.72612 16.3355H6.22273C6.51838 16.3355 6.76952 16.1207 6.81607 15.8292L6.84062 15.7023L7.31068 12.7193L7.34086 12.5556C7.3869 12.263 7.63855 12.0482 7.9342 12.0482H8.30759C10.7265 12.0482 12.62 11.0661 13.1734 8.22425C13.4046 7.03706 13.285 6.04579 12.6732 5.34862C12.4793 5.13295 12.2477 4.95442 11.9898 4.82178V4.82178Z" fill="#179BD7"/>
<path d="M11.3275 4.55736C11.1254 4.49892 10.9199 4.45331 10.7121 4.4208C10.3016 4.3577 9.88663 4.32742 9.47126 4.33026H5.71074C5.56763 4.33015 5.4292 4.38124 5.32047 4.4743C5.21174 4.56736 5.1399 4.69625 5.11792 4.83766L4.31794 9.90454L4.29492 10.0524C4.31984 9.89106 4.40167 9.74401 4.52561 9.63781C4.64954 9.5316 4.80739 9.47327 4.97061 9.47335H6.37824C9.14288 9.47335 11.3075 8.35062 11.9402 5.10262C11.9592 5.00646 11.975 4.91285 11.9893 4.8213C11.8224 4.73374 11.6484 4.66034 11.4692 4.60186C11.4222 4.58627 11.3749 4.57144 11.3275 4.55736V4.55736Z" fill="#222D65"/>
<path d="M5.11767 4.83791C5.13946 4.69645 5.21127 4.5675 5.32005 4.47449C5.42883 4.38148 5.56737 4.33057 5.71049 4.33102H9.47101C9.91652 4.33102 10.3324 4.36017 10.7119 4.42155C10.9687 4.46191 11.222 4.52228 11.4694 4.60211C11.6561 4.664 11.8295 4.73714 11.9896 4.82154C12.1778 3.62106 11.9881 2.80369 11.339 2.06355C10.6234 1.24874 9.33188 0.899902 7.67924 0.899902H2.88141C2.54382 0.899902 2.25585 1.14542 2.20368 1.47943L0.205264 14.1466C0.195956 14.2054 0.199497 14.2656 0.215645 14.3229C0.231793 14.3802 0.260163 14.4333 0.298805 14.4786C0.337447 14.5239 0.385443 14.5603 0.439492 14.5853C0.493541 14.6103 0.55236 14.6233 0.611903 14.6233H3.57397L4.31769 9.90478L5.11767 4.83791V4.83791Z" fill="#253B80"/>
</svg>
