<svg width="30" height="30" viewBox="0 0 30 30" fill="none" xmlns="http://www.w3.org/2000/svg">
<circle cx="15.3864" cy="14.613" r="14.613" fill="#CC2F2F"/>
<path d="M19.068 9.48976C18.2203 8.67497 17.0434 8.23053 15.7677 8.23053C13.8089 8.23053 12.6072 9.02887 11.9406 9.70375C11.1176 10.535 10.6484 11.6379 10.6484 12.7243C10.6484 14.0905 11.2246 15.144 12.1793 15.539C12.2451 15.5637 12.311 15.5802 12.3768 15.5802C12.5826 15.5802 12.7389 15.4485 12.7965 15.2345C12.8212 15.111 12.8953 14.8148 12.9282 14.6831C12.9941 14.4279 12.9447 14.3045 12.7883 14.1234C12.5085 13.7942 12.385 13.4074 12.385 12.9053C12.385 11.4074 13.5043 9.81074 15.5701 9.81074C17.2162 9.81074 18.2368 10.7408 18.2368 12.2469C18.2368 13.1934 18.031 14.074 17.6606 14.7242C17.4055 15.1769 16.9528 15.7119 16.2533 15.7119C15.9487 15.7119 15.6854 15.5884 15.5125 15.3744C15.3479 15.1687 15.2985 14.9053 15.3644 14.6337C15.4385 14.3209 15.5372 14 15.636 13.6872C15.8088 13.1193 15.9817 12.5761 15.9817 12.1481C15.9817 11.4156 15.529 10.9136 14.8541 10.9136C13.9982 10.9136 13.3315 11.786 13.3315 12.8889C13.3315 13.4321 13.4797 13.8436 13.5455 14C13.4385 14.4609 12.7965 17.1768 12.6731 17.6871C12.599 17.9834 12.1793 20.3455 12.8788 20.5348C13.669 20.7488 14.3685 18.4443 14.4426 18.1892C14.5002 17.9752 14.706 17.1768 14.8294 16.6913C15.1998 17.0369 15.8088 17.2838 16.4096 17.2838C17.529 17.2838 18.5413 16.7818 19.2491 15.86C19.9404 14.9711 20.319 13.7284 20.319 12.3704C20.319 11.3087 19.8581 10.2552 19.068 9.48976Z" fill="white"/>
</svg>
