<svg width="22" height="18" viewBox="0 0 22 18" fill="none" xmlns="http://www.w3.org/2000/svg">
<path d="M21 1.88702V7.22175M21 7.22175H15.5455M21 7.22175L16.7818 3.34518C15.8048 2.38912 14.596 1.69071 13.2684 1.31511C11.9407 0.939518 10.5374 0.898983 9.18935 1.19729C7.84133 1.4956 6.59255 2.12302 5.55952 3.02102C4.52648 3.91902 3.74288 5.05833 3.28182 6.33263M1 16.113V10.7782M1 10.7782H6.45455M1 10.7782L5.21818 14.6548C6.19523 15.6109 7.40398 16.3093 8.73165 16.6849C10.0593 17.0605 11.4626 17.101 12.8106 16.8027C14.1587 16.5044 15.4075 15.877 16.4405 14.979C17.4735 14.081 18.2571 12.9417 18.7182 11.6674" stroke="#3AA600" stroke-width="2" stroke-linecap="round" stroke-linejoin="round"/>
</svg>
