<svg width="84" height="50" viewBox="0 0 84 50" fill="none" xmlns="http://www.w3.org/2000/svg">
<path fill-rule="evenodd" clip-rule="evenodd" d="M15.921 36.3058C26.1834 36.3058 26.9866 35.5023 26.9866 25.2357C26.9866 14.9692 26.1834 14.1656 15.921 14.1656C5.65865 14.1656 4.85547 14.9692 4.85547 25.2357C4.85547 35.5023 5.65865 36.3058 15.921 36.3058ZM13.4456 24.3008C13.4456 24.3008 13.8393 23.1883 14.9835 22.7774C15.3933 22.6411 15.6668 22.2128 15.6668 21.7505V19.5778C15.6668 18.9792 15.1887 18.4837 14.5899 18.4837C13.9756 18.4837 13.4972 18.9792 13.4972 19.5778V21.2851L11.0206 18.8084C10.5943 18.3807 9.91059 18.3807 9.48333 18.8084C9.05721 19.2347 9.05721 19.9193 9.48333 20.3474L11.9729 22.8488L10.2522 22.8458C9.5692 22.8458 9.15938 23.3248 9.15938 23.9243C9.15938 24.5226 9.6545 25.0197 10.2522 25.0197H12.4216C12.8828 25.0197 13.2917 24.7115 13.4456 24.3008ZM13.5315 30.9052C13.5138 31.5888 13.993 31.9837 14.5899 31.9837C15.2049 31.9837 15.6839 31.5043 15.6839 30.9052V28.7315C15.6839 28.2521 15.3933 27.8586 14.9655 27.7048C14.9655 27.7048 13.8566 27.3113 13.4636 26.1486C13.3093 25.7374 12.8991 25.4642 12.4381 25.4642H10.2694C9.6545 25.4642 9.17701 25.9605 9.17701 26.56C9.17701 27.1574 9.6545 27.6532 10.2694 27.6532H11.9707L9.50077 30.1359C9.07427 30.546 9.07427 31.2479 9.50077 31.6745C9.91059 32.1034 10.6112 32.1034 11.0377 31.6745L13.5343 29.1705L13.5315 30.9052ZM19.8501 27.6349L21.5741 27.6368C22.2231 27.6368 22.6671 27.1574 22.6671 26.56C22.6671 25.9605 22.1725 25.4642 21.5741 25.4642H19.4048C18.9438 25.4642 18.5336 25.7728 18.3799 26.1827C18.3799 26.1827 17.9871 27.3113 16.8434 27.7048C16.433 27.8416 16.1428 28.2692 16.1428 28.7315V30.9052C16.1428 31.5043 16.6379 32.0008 17.2361 32.0008C17.8336 32.0008 18.3293 31.5563 18.3293 30.9052V29.1937L20.8055 31.6745C21.232 32.1034 21.9161 32.1034 22.3422 31.6745C22.7692 31.2479 22.7692 30.5629 22.3422 30.1359L19.8501 27.6349ZM19.4219 25.0022H21.5913C22.1888 25.0022 22.6839 24.5059 22.6839 23.9069C22.6839 23.3078 22.1888 22.8115 21.5913 22.8115H19.9007L22.3596 20.3474C22.7867 19.9193 22.7867 19.2176 22.3596 18.7911C21.9327 18.3639 21.2494 18.3639 20.8223 18.7911L18.3297 21.3018L18.3293 19.5604C18.3293 18.9282 17.8509 18.4837 17.2536 18.4837C16.6551 18.4837 16.1598 18.9621 16.1598 19.5604V21.733C16.1598 22.2128 16.4675 22.6059 16.8775 22.7601C16.8775 22.7601 18.004 23.1711 18.3973 24.3178C18.5336 24.7284 18.9611 25.0022 19.4219 25.0022Z" fill="#888888"/>
<path fill-rule="evenodd" clip-rule="evenodd" d="M33.9155 17.1013C34.0507 17.0794 34.2498 17.0702 34.4482 17.0702C35.3046 17.0702 35.7226 17.5604 35.7226 18.2394C35.7226 18.8989 35.2207 19.3539 34.4059 19.3539C34.1973 19.3539 34.0093 19.3443 33.9155 19.3337V17.1013ZM33.9155 20.34H34.0306L35.9324 23.3832H37.6151L35.9742 20.9157C35.8063 20.6659 35.6077 20.3701 35.4092 20.1084C36.3914 19.9405 37.1444 19.1509 37.1444 18.1038C37.1444 16.6589 36.1404 15.9605 34.5841 15.9605C33.7679 15.9605 33.1102 15.9707 32.5556 16.0024V23.3832H33.9155V20.34ZM40.3057 22.3466C39.5426 22.3466 39.1459 21.8034 39.1459 20.7344C39.1459 19.6676 39.7316 19.2058 40.3272 19.2058C41.1103 19.2058 41.4765 19.75 41.4765 20.7563C41.4765 21.8132 40.9646 22.3466 40.3057 22.3466ZM40.4205 18.0765C38.8426 18.0765 37.7653 19.2477 37.7653 20.8712C37.7653 22.7232 38.7278 23.4869 40.2005 23.4869C41.7483 23.4869 42.8563 22.3149 42.8563 20.682C42.8563 18.8919 41.905 18.0765 40.4205 18.0765ZM46.2796 23.6768L48.3381 18.1813H46.906L46.2901 19.9504C46.1229 20.4308 45.9027 21.1332 45.7884 21.6036H45.7772C45.6627 21.1332 45.5167 20.6201 45.3701 20.1697L44.6699 18.1813H43.1742L45.0977 23.3832L44.9304 23.8441C44.6484 24.6597 44.1892 24.8691 43.7503 24.8691C43.5303 24.8691 43.2903 24.8276 43.0922 24.7643L42.9351 25.9164C43.1334 25.9586 43.4466 25.9899 43.6666 25.9899C44.8682 25.9899 45.6004 25.4768 46.2796 23.6768ZM51.607 21.0701V21.2071C51.607 21.8346 51.1693 22.4616 50.5208 22.4616C50.1334 22.4616 49.8941 22.1885 49.8941 21.8549C49.8941 21.4055 50.2596 21.0701 51.607 21.0701ZM50.0932 23.487C50.8294 23.487 51.4388 23.1159 51.712 22.5732V23.3832H52.9872C52.9564 22.955 52.9454 22.4616 52.9454 22.0441V19.8975C52.9454 18.7355 52.4653 18.0654 50.8563 18.0654C50.1544 18.0654 49.4128 18.2126 48.8906 18.4223L49.1096 19.4476C49.5692 19.2476 50.2071 19.0916 50.6777 19.0916C51.3676 19.0916 51.607 19.3739 51.607 20.0033V20.1909C49.7889 20.1909 48.6078 20.7662 48.6078 22.0021C48.6078 22.85 49.1525 23.487 50.0932 23.487ZM54.0324 23.3832H55.3706V15.7415H54.0324V23.3832ZM59.9298 20.071C60.0763 20.0611 60.4307 20.0611 60.5256 20.0611C61.4559 20.0611 62.0205 20.4083 62.0205 21.0785C62.0205 21.696 61.5703 22.3053 60.6819 22.3053C60.4307 22.3053 60.097 22.2838 59.9298 22.2732V20.071ZM59.9298 17.1116C60.1487 17.1012 60.4001 17.0904 60.6926 17.0904C61.5182 17.0904 61.832 17.48 61.832 18.0033C61.832 18.6315 61.413 19.0458 60.4832 19.0458C60.2647 19.0458 60.097 19.0458 59.9298 19.0347V17.1116ZM63.4727 21.0365C63.4727 20.2509 62.9608 19.5804 62.2083 19.4225V19.4014C62.887 19.1297 63.2744 18.4855 63.2744 17.784C63.2744 16.6542 62.4276 16.0023 60.9124 16.0023C60.0549 16.0023 59.1671 16.0238 58.5713 16.0539V23.3833C59.4598 23.3833 60.1593 23.4038 60.6304 23.4038C62.6981 23.4038 63.4727 22.1256 63.4727 21.0365ZM67.2529 21.2072C67.2529 21.8345 66.814 22.4617 66.1662 22.4617C65.7794 22.4617 65.539 22.1886 65.539 21.8548C65.539 21.4054 65.9037 21.0702 67.2529 21.0702V21.2072ZM64.2529 22.0022C64.2529 22.8499 64.7966 23.4869 65.7383 23.4869C66.4745 23.4869 67.0844 23.1158 67.3573 22.5724V23.3833H68.6325C68.6008 22.9551 68.5913 22.4617 68.5913 22.044V19.8974C68.5913 18.7355 68.1102 18.0655 66.5005 18.0655C65.8005 18.0655 65.0583 18.2127 64.5345 18.4222L64.7544 19.4474C65.2148 19.2477 65.8518 19.0917 66.3218 19.0917C67.0124 19.0917 67.2529 19.3737 67.2529 20.0034V20.1908C65.4348 20.1908 64.2529 20.766 64.2529 22.0022ZM71.0189 20.8712C71.0189 19.9596 71.5513 19.1961 72.2207 19.1961C72.7225 19.1961 72.8683 19.5206 72.8683 20.0548V23.3831H74.1953V19.7295C74.1953 18.8188 73.8199 18.0765 72.6485 18.0765C71.853 18.0765 71.2731 18.4579 70.9452 19.0084V18.1812H69.6809V23.3831H71.0189V20.8712ZM76.5745 20.9791L78.1838 23.3833H79.8553L77.8012 20.5572L79.7211 18.1812H78.0896L76.5745 20.0921V15.7415H75.2365V23.3833H76.5745V20.9791ZM34.7092 33.5688C33.9463 33.5688 33.5481 33.0233 33.5481 31.957C33.5481 30.8884 34.1338 30.4275 34.73 30.4275C35.514 30.4275 35.8801 30.9719 35.8801 31.9776C35.8801 33.0338 35.3674 33.5688 34.7092 33.5688ZM34.8235 29.2967C33.2458 29.2967 32.1693 30.4697 32.1693 32.0925C32.1693 33.9457 33.1315 34.7092 34.6043 34.7092C36.1508 34.7092 37.2589 33.5364 37.2589 31.9041C37.2589 30.1142 36.3079 29.2967 34.8235 29.2967ZM38.6232 28.9886V29.4168H37.7129V30.4542H38.6232V34.6201H39.95V30.4542H41.1632V29.4168H39.95V28.9774C39.95 28.2872 40.2108 27.9833 40.7968 27.9833C40.9939 27.9833 41.2356 28.0042 41.445 28.0777L41.5386 26.9784C41.2662 26.9159 40.9742 26.8938 40.692 26.8938C39.2709 26.8938 38.6232 27.5855 38.6232 28.9886ZM44.8895 29.2036C44.8895 28.7021 45.255 28.3565 46.0491 28.3565C46.4669 28.3565 46.8748 28.4296 47.2622 28.5547L47.3869 27.3607C46.9902 27.2775 46.4982 27.2265 46.1126 27.2265C44.4082 27.2265 43.4465 28.0945 43.4465 29.3504C43.4465 31.6749 46.4141 31.2552 46.4141 32.6051C46.4141 33.2654 45.8713 33.5271 45.2333 33.5271C44.6695 33.5271 44.1467 33.4108 43.6972 33.2225L43.5515 34.5304C44.0214 34.6571 44.555 34.7198 45.1816 34.7198C46.8122 34.7198 47.9098 33.7458 47.9098 32.4378C47.9098 30.1979 44.8895 30.4601 44.8895 29.2036ZM51.0832 33.5483C50.195 33.5483 49.8719 32.9304 49.8719 32.041C49.8719 31.0766 50.2786 30.4384 51.0729 30.4384C51.4177 30.4384 51.7624 30.5213 52.0448 30.6366L52.2536 29.4859C51.9195 29.3702 51.5114 29.308 51.1148 29.308C49.3172 29.308 48.47 30.5529 48.47 32.1759C48.47 33.9456 49.3697 34.6992 50.8112 34.6992C51.3135 34.6992 51.8674 34.6145 52.2751 34.4587L52.0969 33.3373C51.794 33.4744 51.439 33.5483 51.0832 33.5483ZM55.1108 33.5688C54.3473 33.5688 53.9504 33.0233 53.9504 31.957C53.9504 30.8884 54.5349 30.4275 55.1319 30.4275C55.9155 30.4275 56.2812 30.9719 56.2812 31.9776C56.2812 33.0338 55.7695 33.5688 55.1108 33.5688ZM55.2256 29.2967C53.6479 29.2967 52.5704 30.4697 52.5704 32.0925C52.5704 33.9457 53.5326 34.7092 55.006 34.7092C56.5534 34.7092 57.6614 33.5364 57.6614 31.9041C57.6614 30.1142 56.7094 29.2967 55.2256 29.2967ZM60.9505 33.5787C60.4903 33.5787 60.3348 33.3901 60.3348 32.7198V30.4384H61.599V29.4014H60.3348V27.2223L59.0069 27.5775V29.4014H58.1078V30.4384H59.0069V33.0756C59.0069 34.2904 59.3625 34.7091 60.5116 34.7091C60.8773 34.7091 61.3064 34.647 61.641 34.5623L61.5465 33.5054C61.3689 33.5574 61.1708 33.5787 60.9505 33.5787ZM62.4913 34.6202H63.8283V26.9775H62.4913V34.6202ZM67.6013 32.4401C67.6013 33.0691 67.163 33.6969 66.5157 33.6969C66.1287 33.6969 65.8881 33.4241 65.8881 33.0888C65.8881 32.6395 66.2534 32.304 67.6013 32.304V32.4401ZM68.939 31.1312C68.939 29.97 68.4589 29.3001 66.8486 29.3001C66.1494 29.3001 65.4068 29.4467 64.8845 29.6563L65.1037 30.6813C65.5645 30.4831 66.2009 30.3263 66.6712 30.3263C67.3619 30.3263 67.6013 30.608 67.6013 31.2366V31.425C65.7828 31.425 64.6023 32.0015 64.6023 33.2356C64.6023 34.0844 65.1461 34.7223 66.0857 34.7223C66.8241 34.7223 67.4351 34.3485 67.7061 33.8057V34.6182H68.9817C68.9505 34.1881 68.939 33.6969 68.939 33.2787V31.1312ZM72.8001 29.3123C72.004 29.3123 71.4233 29.6951 71.096 30.2453V29.4169H69.8319V34.6202H71.17V32.1081C71.17 31.1972 71.7027 30.4325 72.3712 30.4325C72.8729 30.4325 73.0195 30.7568 73.0195 31.2904V34.6202H74.3474V30.9665C74.3474 30.0557 73.9711 29.3123 72.8001 29.3123ZM78.528 31.9147C78.528 32.8039 78.1094 33.6209 77.4093 33.6209C76.8032 33.6209 76.5214 33.1176 76.5214 32.1446C76.5214 30.8562 77.0645 30.3756 77.8276 30.3756C78.0571 30.3756 78.2881 30.4069 78.528 30.4595V31.9147ZM78.528 26.9721V29.3602C78.2983 29.3277 78.0895 29.3185 77.8699 29.3185C76.1443 29.3185 75.1203 30.5316 75.1203 32.2914C75.1203 33.7775 75.7479 34.73 77.0126 34.73C77.7705 34.73 78.3259 34.3567 78.6109 33.8217V34.615H79.8555V26.9721H78.528Z" fill="#888888"/>
</svg>
