<svg width="48" height="48" viewBox="0 0 48 48" fill="none" xmlns="http://www.w3.org/2000/svg">
<path d="M18 16.0001L18 42.0001M40 26.0001H8M12 44.0001H36C38.2091 44.0001 40 42.2092 40 40.0001V20.0001C40 17.7909 38.2091 16.0001 36 16.0001H12C9.79086 16.0001 8 17.7909 8 20.0001V40.0001C8 42.2092 9.79086 44.0001 12 44.0001ZM16.5294 8.19756L20.7555 10.9143C22.7319 12.1849 25.2681 12.1849 27.2445 10.9143L31.4706 8.19756C34.2909 6.38451 38 8.4095 38 11.7623C38 14.1028 36.1027 16.0001 33.7622 16.0001H14.2378C11.8973 16.0001 10 14.1028 10 11.7623C10 8.4095 13.7091 6.38451 16.5294 8.19756Z" stroke="#2E2E2E" stroke-width="4" stroke-linecap="round" stroke-linejoin="round"/>
</svg>
