<svg width="48" height="48" viewBox="0 0 48 48" fill="none" xmlns="http://www.w3.org/2000/svg">
<path d="M20.2839 37.7596H28.3007M7 37.7596H10.7641M37.7369 37.7596H38.9895C41.7453 37.7596 44 35.4231 44 32.5673L44 25.5089C44 23.9054 43.5181 22.339 42.617 21.0128L36.4434 11.927C34.9541 9.73521 32.4762 8.4231 29.8264 8.4231H12M6.99997 13.9998H17.4384M2 19.9998H12.4384M4.3338 26.3365H14.7722M20.2837 37.0673C20.2837 39.75 18.196 42 15.5238 42C12.8515 42 10.7639 39.8365 10.7639 37.0673C10.7639 34.3846 12.8515 32.1346 15.5238 32.1346C18.196 32.1346 20.2837 34.3846 20.2837 37.0673ZM37.7369 37.0673C37.7369 39.75 35.6492 42 32.977 42C30.3883 42 28.2171 39.8365 28.2171 37.0673C28.2171 34.3846 30.3047 32.1346 32.977 32.1346C35.6492 32.1346 37.7369 34.3846 37.7369 37.0673Z" stroke="#2E2E2E" stroke-width="4" stroke-linecap="round" stroke-linejoin="round"/>
</svg>
