<svg width="25" height="22" viewBox="0 0 25 22" fill="none" xmlns="http://www.w3.org/2000/svg">
<path d="M21.2491 10.5V18.5C21.2491 19.0304 21.0384 19.5391 20.6633 19.9142C20.2882 20.2893 19.7795 20.5 19.2491 20.5H5.24909C4.71866 20.5 4.20995 20.2893 3.83488 19.9142C3.45981 19.5391 3.24909 19.0304 3.24909 18.5V10.5M6.71662 8.93052C5.04152 9.89795 2.96708 9.90397 1.29198 8.93654C1.26669 8.92193 1.25439 8.89214 1.262 8.86395L3.04955 2.23948C3.1673 1.80313 3.56307 1.5 4.01502 1.5H20.4832C20.9351 1.5 21.3309 1.80313 21.4486 2.23948L23.2362 8.86395C23.2438 8.89214 23.2315 8.92193 23.2062 8.93654C21.5311 9.90397 19.4567 9.89795 17.7816 8.93052C17.7616 8.91896 17.7368 8.91889 17.7167 8.93045C16.0351 9.90165 13.9631 9.90165 12.2814 8.93045C12.2614 8.91889 12.2368 8.91889 12.2167 8.93045C10.5351 9.90165 8.46306 9.90165 6.78145 8.93045C6.76143 8.91889 6.73664 8.91896 6.71662 8.93052Z" stroke="#2E2E2E" stroke-width="2" stroke-linecap="round" stroke-linejoin="round"/>
</svg>
