<svg width="18" height="18" viewBox="0 0 18 18" fill="none" xmlns="http://www.w3.org/2000/svg">
<path d="M7.66193 2.59003C8.04078 1.68128 9.32818 1.68128 9.70702 2.59003L10.7436 5.07648C10.9004 5.45272 11.2512 5.71244 11.6569 5.75264L14.3248 6.01708C15.2774 6.1115 15.6699 7.28799 14.9649 7.93546L12.8948 9.83676C12.6057 10.1023 12.4787 10.5009 12.5609 10.8847L13.1509 13.6401C13.3549 14.5929 12.3182 15.326 11.4879 14.8161L9.26422 13.4506C8.90858 13.2322 8.46038 13.2322 8.10474 13.4506L5.88107 14.8161C5.05077 15.326 4.01403 14.5929 4.21805 13.6401L4.80807 10.8847C4.89025 10.5009 4.76324 10.1023 4.47417 9.83677L2.40401 7.93546C1.69904 7.28799 2.0916 6.1115 3.04412 6.01708L5.71209 5.75264C6.11773 5.71244 6.46852 5.45272 6.62537 5.07648L7.66193 2.59003Z" fill="#DBDBDB"/>
<path fill-rule="evenodd" clip-rule="evenodd" d="M9 1.9527C8.4958 1.80742 7.90046 2.01985 7.66278 2.59001L6.62621 5.07646C6.46936 5.4527 6.11857 5.71241 5.71294 5.75262L3.04496 6.01706C2.09244 6.11147 1.69988 7.28796 2.40485 7.93544L4.47501 9.83674C4.76408 10.1022 4.8911 10.5009 4.80892 10.8846L4.21889 13.6401C4.01487 14.5928 5.05162 15.326 5.88191 14.8161L8.10558 13.4505C8.37722 13.2837 8.70285 13.2443 9 13.3323V1.9527Z" fill="#FFA601"/>
</svg>
