<svg width="16" height="17" viewBox="0 0 16 17" fill="none" xmlns="http://www.w3.org/2000/svg">
<mask id="mask0_6624_7313" style="mask-type:alpha" maskUnits="userSpaceOnUse" x="2" y="2" width="12" height="13">
<path d="M7.07607 3.12554C7.41838 2.29149 8.58162 2.29149 8.92393 3.12554L9.86053 5.40761C10.0023 5.75293 10.3192 5.99129 10.6857 6.02819L13.0964 6.2709C13.9571 6.35755 14.3118 7.43734 13.6748 8.03159L11.8043 9.77661C11.5431 10.0203 11.4283 10.3861 11.5026 10.7384L12.0357 13.2673C12.22 14.1418 11.2833 14.8147 10.533 14.3467L8.52383 13.0934C8.20249 12.8929 7.79751 12.8929 7.47617 13.0934L5.46695 14.3467C4.71673 14.8147 3.77997 14.1418 3.96431 13.2673L4.49743 10.7384C4.57169 10.3861 4.45692 10.0203 4.19573 9.77661L2.32522 8.03159C1.68823 7.43734 2.04294 6.35755 2.9036 6.2709L5.31427 6.02819C5.68079 5.99129 5.99775 5.75293 6.13947 5.40761L7.07607 3.12554Z" fill="#3AA600"/>
</mask>
<g mask="url(#mask0_6624_7313)">
<path d="M7.07607 3.12554C7.41838 2.29149 8.58162 2.29149 8.92393 3.12554L9.86053 5.40761C10.0023 5.75293 10.3192 5.99129 10.6857 6.02819L13.0964 6.2709C13.9571 6.35755 14.3118 7.43734 13.6748 8.03159L11.8043 9.77661C11.5431 10.0203 11.4283 10.3861 11.5026 10.7384L12.0357 13.2673C12.22 14.1418 11.2833 14.8147 10.533 14.3467L8.52383 13.0934C8.20249 12.8929 7.79751 12.8929 7.47617 13.0934L5.46695 14.3467C4.71673 14.8147 3.77997 14.1418 3.96431 13.2673L4.49743 10.7384C4.57169 10.3861 4.45692 10.0203 4.19573 9.77661L2.32522 8.03159C1.68823 7.43734 2.04294 6.35755 2.9036 6.2709L5.31427 6.02819C5.68079 5.99129 5.99775 5.75293 6.13947 5.40761L7.07607 3.12554Z" fill="#F0F0F0"/>
<rect x="2" y="2.5" width="4" height="12" fill="#3AA600"/>
<rect x="6" y="2.5" width="4" height="12" fill="#3AA600"/>
<rect x="10" y="2.5" width="4" height="12" fill="#3AA600"/>
</g>
</svg>
