<svg width="30" height="30" viewBox="0 0 30 30" fill="none" xmlns="http://www.w3.org/2000/svg">
<circle cx="15.1598" cy="14.613" r="14.613" fill="#00A1DF"/>
<path d="M8.82719 14.3692L11.3439 15.3434L12.3181 18.5095C12.4804 18.6719 12.724 18.7531 12.8863 18.5907L14.2665 17.4541C14.4288 17.373 14.5912 17.2918 14.7536 17.4541L17.2702 19.3214C17.4326 19.4837 17.6761 19.3214 17.7573 19.159L19.6245 10.1477C19.7057 9.90412 19.4622 9.74175 19.2186 9.82294L8.82719 13.8009C8.58364 13.8821 8.58364 14.2068 8.82719 14.3692ZM12.2369 14.7751L17.189 11.6901C17.2702 11.609 17.3514 11.7713 17.2702 11.8525L13.2111 15.6681C13.0487 15.8305 12.9675 15.9928 12.9675 16.1552L12.8052 17.2106C12.8052 17.373 12.5616 17.373 12.5616 17.2106L11.9933 15.3434C11.9121 15.0998 11.9933 14.9375 12.2369 14.7751Z" fill="white"/>
</svg>
