<svg width="30" height="30" viewBox="0 0 30 30" fill="none" xmlns="http://www.w3.org/2000/svg">
<circle cx="14.9372" cy="14.613" r="14.613" fill="#55D0FF"/>
<path d="M21.999 10.2292C21.5119 10.4727 20.9436 10.6351 20.3753 10.6351C20.9436 10.3103 21.4307 9.74207 21.5931 9.0926C21.0248 9.41734 20.4565 9.66088 19.807 9.74207C19.3199 9.25497 18.5893 8.93024 17.7775 8.93024C16.3162 8.93024 15.0172 10.148 15.0172 11.6905C15.0172 11.934 15.0172 12.0964 15.0984 12.3399C12.8253 12.2587 10.7145 11.1222 9.4156 9.41734C9.17205 9.82325 9.00969 10.3103 9.00969 10.7974C9.00969 11.7716 9.49679 12.5835 10.2274 13.0706C9.82152 13.1518 9.33442 12.9894 9.00969 12.827C9.00969 14.2071 9.98388 15.2625 11.2016 15.5872C10.9581 15.5872 10.7145 15.6684 10.471 15.6684C10.3086 15.6684 10.1463 15.6684 9.98388 15.5872C10.3086 16.7238 11.364 17.5356 12.5817 17.5356C11.6075 18.2663 10.471 18.7534 9.09087 18.7534C8.84732 18.7534 8.68496 18.7534 8.44141 18.7534C9.65915 19.5652 11.1204 19.9711 12.6629 19.9711C17.7775 19.9711 20.5377 15.7496 20.5377 12.0964V11.7716C21.106 11.2845 21.5931 10.7974 21.999 10.2292Z" fill="white"/>
</svg>
