<svg width="51" height="15" viewBox="0 0 51 15" fill="none" xmlns="http://www.w3.org/2000/svg">
<path d="M24.9233 0.646918L21.5733 14.7214H17.5118L20.8914 0.646918H24.9233ZM41.9993 9.71951L44.1338 4.42495L45.3492 9.71951H41.9993ZM46.5351 14.7214H50.3001L47.0094 0.646918H43.5408C42.77 0.646918 42.1178 1.04601 41.8214 1.68455L35.744 14.7214H40.013L40.8431 12.6195H46.0311L46.5351 14.7214ZM35.9515 10.1186C35.9812 6.39378 30.2299 6.20754 30.2595 4.53137C30.2595 4.02586 30.7931 3.49374 31.979 3.36071C32.5719 3.2809 34.1728 3.22768 35.9812 3.99925L36.6927 1.0194C35.7143 0.673524 34.4692 0.380859 32.898 0.380859C28.8958 0.380859 26.0795 2.29648 26.0498 5.03688C26.0202 7.05893 28.0657 8.20298 29.6073 8.86812C31.1785 9.55987 31.7122 10.0122 31.7122 10.6241C31.7122 11.5819 30.4374 11.981 29.2812 12.0076C27.2356 12.0342 26.0498 11.5021 25.1011 11.1296L24.36 14.2159C25.3087 14.615 27.0578 14.9343 28.8662 14.9609C33.1352 14.9343 35.9219 13.0452 35.9515 10.1186ZM19.1423 0.646918L12.561 14.7214H8.29197L5.03093 3.46714C4.82341 2.77539 4.67518 2.53593 4.08226 2.24327C3.10395 1.76436 1.50308 1.31206 0.0800781 1.04601L0.169016 0.646918H7.07649C7.96586 0.646918 8.73666 1.17903 8.94418 2.08363L10.6636 10.225L14.8733 0.646918H19.1423Z" fill="#2A2A6C"/>
</svg>
