<svg width="76" height="25" viewBox="0 0 76 25" fill="none" xmlns="http://www.w3.org/2000/svg">
<path d="M49.7256 0.25C44.4005 0.25 39.6415 3.01051 39.6415 8.10961C39.6415 13.958 48.0815 14.3619 48.0815 17.3003C48.0815 18.5375 46.664 19.6449 44.2421 19.6449C40.8059 19.6449 38.2376 18.0976 38.2376 18.0976L37.1385 23.244C37.1385 23.244 40.0972 24.5511 44.0252 24.5511C49.8472 24.5511 54.4291 21.6554 54.4291 16.4685C54.4291 10.2883 45.9538 9.8964 45.9538 7.16967C45.9538 6.20045 47.1175 5.13889 49.5319 5.13889C52.2564 5.13889 54.4786 6.26426 54.4786 6.26426L55.5544 1.29429C55.5544 1.29429 53.1355 0.25 49.7248 0.25H49.7256ZM1.00413 0.625375L0.875 1.37538C0.875 1.37538 3.11524 1.78529 5.13326 2.6036C7.73161 3.54129 7.91629 4.08784 8.35398 5.78303L13.122 24.1637H19.5139L29.3607 0.625375H22.9839L16.6565 16.6291L14.0747 3.06306C13.8382 1.51051 12.6385 0.624625 11.1708 0.624625H1.00488L1.00413 0.625375ZM31.9253 0.625375L26.923 24.1637H33.0041L37.9884 0.625375H31.9253ZM65.8412 0.625375C64.375 0.625375 63.598 1.41066 63.0282 2.78228L54.119 24.1637H60.4959L61.7294 20.5998H69.4981L70.2481 24.1637H75.875L70.9666 0.625375H65.8412ZM66.6708 6.98498L68.5612 15.8176H63.4974L66.6715 6.98498H66.6708Z" fill="#888888"/>
</svg>
