<svg width="31" height="30" viewBox="0 0 31 30" fill="none" xmlns="http://www.w3.org/2000/svg">
<circle cx="15.484" cy="14.613" r="14.613" fill="#6F95D8"/>
<path d="M22.6619 17.8473C22.622 17.787 22.3794 17.3021 21.2122 16.3061C19.988 15.2629 20.1535 15.4333 21.626 13.6274C22.525 12.5292 22.8817 11.8582 22.7704 11.5699C22.6648 11.2973 22.0027 11.3681 22.0027 11.3681L19.8082 11.3786C19.8082 11.3786 19.6455 11.3576 19.5228 11.4257C19.4058 11.4913 19.3288 11.6433 19.3288 11.6433C19.3288 11.6433 18.9806 12.4925 18.5183 13.2159C17.5395 14.7413 17.1485 14.8226 16.9887 14.7282C16.6177 14.5081 16.709 13.8397 16.709 13.3679C16.709 11.8897 16.9516 11.2737 16.2324 11.1138C15.9927 11.0614 15.8187 11.0247 15.2079 11.0195C14.4232 11.0116 13.7611 11.0221 13.3844 11.1898C13.1333 11.3026 12.9421 11.5542 13.0591 11.5673C13.2046 11.5856 13.5328 11.6485 13.7069 11.8661C13.9323 12.1465 13.9238 12.7782 13.9238 12.7782C13.9238 12.7782 14.0522 14.5186 13.6213 14.7361C13.3245 14.8855 12.9192 14.5815 12.046 13.1976C11.6008 12.4899 11.2612 11.7036 11.2612 11.7036C11.2612 11.7036 11.1956 11.5568 11.0814 11.4808C10.9416 11.3864 10.7447 11.355 10.7447 11.355L8.65574 11.3655C8.65574 11.3655 8.34183 11.3733 8.22768 11.4991C8.12494 11.6118 8.21912 11.8399 8.21912 11.8399C8.21912 11.8399 9.85431 15.352 11.7035 17.1212C13.4015 18.7437 15.3278 18.6388 15.3278 18.6388H16.2011C16.2011 18.6388 16.4636 18.6126 16.6006 18.4789C16.7261 18.3558 16.7204 18.1277 16.7204 18.1277C16.7204 18.1277 16.7033 17.0505 17.2484 16.8932C17.7849 16.736 18.4726 17.9338 19.2032 18.3924C19.754 18.741 20.1735 18.665 20.1735 18.665L22.1254 18.6388C22.1254 18.6441 23.1471 18.5864 22.6619 17.8473Z" fill="white"/>
</svg>
