<svg width="53" height="38" viewBox="0 0 53 38" fill="none" xmlns="http://www.w3.org/2000/svg">
<path d="M0.29006 24.061C0.29006 23.8298 0.349246 23.5757 0.276908 23.3673C0.138807 22.9569 0.487347 22.5042 0.138807 22.1231C0.11579 22.0971 0.125655 22.0221 0.138807 21.9798C0.349246 21.3675 0.592567 20.7617 0.770125 20.1396C1.11209 18.9508 1.51653 17.7913 2.11825 16.7002C2.26622 16.4331 2.31225 16.1106 2.43391 15.824C2.51283 15.6384 2.52269 15.3583 2.85808 15.4104C2.88438 15.4136 2.9633 15.3094 2.95343 15.2638C2.89096 14.899 3.19347 14.7166 3.33814 14.4496C3.76231 13.6711 4.38705 13.0458 4.97563 12.4074C5.88315 11.4238 6.85643 10.4955 7.84944 9.59332C8.6912 8.82792 9.55597 8.06578 10.4898 7.41763C11.8412 6.48286 13.2387 5.59695 14.6723 4.79246C15.6817 4.22574 16.78 3.81536 17.8453 3.35611C18.6378 3.01413 19.4269 2.65911 20.2456 2.39855C21.4031 2.02725 22.5901 1.74063 23.7639 1.40841C26.7956 0.551814 29.8897 0.219597 33.0265 0.252167C34.8909 0.271709 36.752 0.408504 38.5769 0.828661C39.685 1.08271 40.7898 1.36607 41.8782 1.69503C42.7594 1.96211 43.6274 2.28781 44.4264 2.76659C45.232 3.25189 46.0968 3.64599 46.8498 4.19969C47.6817 4.80875 48.4577 5.51227 49.1811 6.2451C50.3122 7.39157 51.2065 8.71067 51.8017 10.2089C52.433 11.7983 52.7421 13.4464 52.5843 15.1596C52.5185 15.8696 52.5349 16.5959 52.3738 17.2832C52.0549 18.6446 51.7294 20.0126 50.9599 21.2242C50.4404 22.0449 49.9768 22.8983 49.4836 23.7353C49.4244 23.8331 49.352 23.9242 49.2797 24.0122C48.7405 24.6701 48.2078 25.3345 47.6554 25.9827C47.4055 26.2758 47.126 26.5396 46.8531 26.81C46.1856 27.4679 45.5214 28.1291 44.844 28.774C44.6731 28.9368 44.4429 29.0443 44.2522 29.1909C43.9234 29.4417 43.6044 29.7022 43.2855 29.9628C42.9665 30.2201 42.6706 30.5132 42.3319 30.7347C41.7302 31.1288 41.0989 31.4708 40.4906 31.8551C40.0467 32.1352 39.6422 32.4805 39.1885 32.7378C38.5341 33.1091 37.8535 33.4478 37.1729 33.7702C36.41 34.1318 35.6439 34.4966 34.8547 34.7995C33.8683 35.1773 32.8621 35.5095 31.856 35.8254C30.9452 36.112 30.0212 36.3563 29.1005 36.6104C27.5453 37.0403 25.9538 37.265 24.3558 37.493C22.2744 37.7927 20.1897 37.7894 18.1117 37.6884C16.9049 37.6298 15.6982 37.366 14.5112 37.1087C13.4392 36.8774 12.387 36.5485 11.3348 36.2326C10.0327 35.8385 8.72737 35.4281 7.62914 34.604C7.12277 34.2262 6.55392 33.9819 6.02125 33.666C5.86999 33.5748 5.7582 33.4185 5.62339 33.298C4.94603 32.6824 4.19634 32.1254 3.60448 31.4415C2.64106 30.3276 1.73026 29.1583 1.37843 27.6666C1.191 26.8751 0.914803 26.1065 0.694499 25.3248C0.641889 25.1391 0.67477 24.9339 0.625448 24.7483C0.559686 24.5007 0.44789 24.2662 0.359111 24.0285C0.336094 24.0382 0.316365 24.048 0.293348 24.0578L0.29006 24.061ZM16.586 5.23216C16.244 5.3657 15.902 5.46015 15.5962 5.62626C14.8663 6.02362 14.1462 6.43401 13.4425 6.87371C12.2818 7.59677 11.0192 8.17977 10.0623 9.19922C9.98014 9.28716 9.80587 9.28391 9.72038 9.36859C9.4376 9.63892 9.22387 10.0493 8.89506 10.1828C8.33608 10.4076 8.08947 10.9157 7.69161 11.2707C7.21483 11.6941 6.88273 12.2739 6.47501 12.7754C6.33033 12.9513 6.12647 13.0816 5.98508 13.2607C5.71216 13.6092 5.46556 13.9773 5.21237 14.3421C5.01837 14.6222 4.84081 14.9121 4.64681 15.1922C4.57776 15.2931 4.49227 15.3811 4.40349 15.469C4.32787 15.5407 4.19634 15.5863 4.16675 15.6709C4.07468 15.938 4.2358 16.3321 3.77218 16.4103C3.74916 16.4135 3.73601 16.4754 3.71957 16.5113C3.53872 16.9379 3.36116 17.3646 3.17703 17.7913C2.44378 19.4979 2.05578 21.273 2.05578 23.1328C2.05578 23.7093 1.97029 24.2923 2.01961 24.8655C2.11168 25.9501 2.56215 26.9403 2.96659 27.9402C3.04879 28.1421 3.08825 28.3668 3.19676 28.5492C3.49269 29.041 3.81163 29.5166 4.124 29.9953C4.318 30.2917 4.4857 30.6142 4.73231 30.865C4.99864 31.1386 5.4524 31.2851 5.6201 31.5978C5.84369 32.0114 6.22511 32.1906 6.53748 32.4642C6.82355 32.715 7.18524 32.8843 7.51405 33.0895C7.93164 33.3533 8.32622 33.6628 8.77011 33.8712C9.6579 34.2946 10.5654 34.6855 11.4795 35.0437C12.2095 35.3304 12.9526 35.6007 13.7122 35.7896C15.8889 36.3368 18.1248 36.4019 20.3509 36.5159C21.094 36.555 21.8437 36.4508 22.5934 36.4345C24.4413 36.3889 26.9731 35.9818 28.8638 35.5095C31.1688 34.9363 33.4178 34.1969 35.588 33.2328C36.2686 32.9299 36.9328 32.5847 37.6102 32.2753C37.8206 32.1776 38.0771 32.171 38.2711 32.0505C38.932 31.6401 39.5831 31.2102 40.2209 30.7607C41.1778 30.0898 42.1412 29.4221 43.0619 28.7056C44.0878 27.9043 45.0282 27.0152 45.9127 26.0543C46.6262 25.2792 47.3233 24.504 47.8724 23.6148C48.0335 23.351 48.2308 23.1198 48.3853 22.8625C48.6846 22.3609 48.8818 21.8007 49.2041 21.3154C50.0162 20.0842 50.4503 18.7032 50.7824 17.306C51.1769 15.6416 51.223 13.948 50.8251 12.2478C50.4536 10.6584 49.8913 9.16991 48.8259 7.90944C48.0631 7.0105 47.3825 6.03014 46.3303 5.40153C45.7647 5.0628 45.2715 4.60356 44.6928 4.2974C43.8444 3.84793 42.9632 3.45383 42.0722 3.09555C40.4281 2.43112 38.7183 1.96211 36.9624 1.74389C35.6274 1.57778 34.2727 1.51915 32.9246 1.49309C30.8235 1.45075 28.7191 1.47355 26.6542 1.90999C25.237 2.20964 23.8363 2.59071 22.4322 2.9555C21.9555 3.07927 21.4951 3.26492 21.0249 3.418C20.3048 3.6525 19.5782 3.87073 18.8613 4.115C18.3846 4.27785 17.9111 4.45699 17.4442 4.65241C17.1186 4.78921 16.8096 4.96509 16.4939 5.12142C16.4873 5.11491 16.5235 5.15725 16.586 5.23542V5.23216Z" fill="#888888"/>
<path d="M27.4631 11.6192C27.9004 11.6453 28.2884 11.6876 28.6797 11.6876C30.11 11.6876 31.5403 11.6713 32.9706 11.6615C33.2107 11.6615 33.2764 11.5541 33.3554 11.313C33.6414 10.4467 34.013 9.60635 34.3221 8.7465C34.4799 8.30028 34.5588 7.82801 34.6969 7.37529C34.8942 6.73365 35.1342 6.10505 35.3184 5.46015C35.4269 5.08234 35.4663 4.68173 35.5189 4.29088C35.5255 4.23551 35.4236 4.16386 35.3677 4.10523C35.2164 3.94564 35.0323 3.80884 34.9205 3.62645C34.7397 3.33006 34.9271 2.93922 35.2658 2.92944C36.7717 2.8871 38.2744 2.87082 39.7803 2.85128C39.8888 2.85128 39.9974 2.90665 40.1355 2.94247C39.9184 3.78604 39.0701 3.88375 38.6394 4.35277C37.5411 6.70434 36.8243 9.15362 35.999 11.6583H49.0035C48.8818 12.212 48.7898 12.6777 48.6747 13.137C48.4445 14.0783 48.2144 15.0228 47.948 15.9576C47.9086 16.1009 47.6751 16.1921 47.5304 16.3028C47.5206 16.3093 47.5041 16.3061 47.491 16.3061C46.4026 16.2995 46.4322 16.3549 46.3927 15.3224C46.3599 14.4854 46.2974 13.6158 45.5017 13.0588C44.9887 12.7005 44.41 12.6354 43.8149 12.7885C43.6998 12.8178 43.5288 12.9643 43.5288 13.0555C43.5419 13.5278 43.2723 13.9024 43.1276 14.3128C42.6509 15.6644 42.1083 16.9965 41.625 18.3482C41.2238 19.4719 40.8819 20.6151 40.4906 21.742C40.3229 22.2273 40.0664 22.6866 39.8921 23.1719C39.5206 24.2174 39.1786 25.2759 38.8169 26.3247C38.6262 26.8816 38.373 27.4223 38.2251 27.9923C38.0738 28.572 37.7713 29.0964 37.7516 29.7315C37.7384 30.1973 37.9423 30.4904 38.1922 30.7803C38.4289 31.0539 38.3862 31.4219 38.0245 31.5196C37.7746 31.588 37.5083 31.6206 37.2485 31.6239C35.9891 31.6304 34.7298 31.6239 33.4704 31.6141C33.1942 31.6141 32.8983 31.6141 32.8556 31.2298C32.8293 31.0115 32.895 30.8813 33.1285 30.7901C33.5231 30.6337 33.9374 30.4774 34.2629 30.2233C34.4832 30.0507 34.5884 29.7152 34.7068 29.4351C35.0257 28.686 35.3315 27.9304 35.6274 27.1715C35.9431 26.3638 36.3837 25.569 36.5185 24.7287C36.7487 23.3054 37.5181 22.1036 37.939 20.7649C38.1494 20.1005 38.4092 19.4491 38.6262 18.7847C38.8136 18.2082 38.9484 17.6121 39.149 17.0389C39.4022 16.3061 39.7014 15.5895 39.9776 14.8632C40.2078 14.2509 40.438 13.6418 40.655 13.0262C40.6846 12.9383 40.6451 12.8276 40.6287 12.6452C39.9316 12.7233 39.2477 12.7461 38.59 12.8862C37.8272 13.0458 37.186 13.4366 36.8013 14.1564C36.7158 14.3193 36.512 14.4235 36.4363 14.5896C36.2423 15.013 35.9497 15.3876 35.8872 15.8826C35.8576 16.1204 35.7031 16.3745 35.3184 16.2898C34.8942 16.1953 34.4799 16.2409 34.2464 16.6936C34.2168 16.749 34.1478 16.7979 34.1445 16.8565C34.0689 17.8727 33.4606 18.713 33.2238 19.6706C33.1088 20.1363 33.0561 20.6184 33.0233 21.0971C33.0134 21.2144 33.1614 21.387 33.283 21.4619C33.5559 21.6248 33.5921 21.8853 33.5822 22.1394C33.579 22.2664 33.4507 22.4781 33.3488 22.4977C32.9575 22.5726 32.5531 22.5986 32.1519 22.6182C31.8231 22.6345 31.491 22.6117 31.1622 22.6117C30.3007 22.6117 29.4425 22.6117 28.558 22.6117C28.3739 22.0124 28.4429 21.856 29.0709 21.6183C29.4293 21.4815 29.7121 21.2828 29.8798 20.9245C29.9489 20.778 30.0903 20.664 30.1955 20.5304C30.2514 20.462 30.3204 20.3969 30.3467 20.3187C30.715 19.2439 31.0866 18.1691 31.4417 17.091C31.8067 15.9836 32.1552 14.8665 32.5103 13.7558C32.5662 13.5832 32.6188 13.4106 32.6747 13.2379C32.7964 12.8634 32.724 12.7396 32.3262 12.7136C31.856 12.6842 31.3825 12.6712 30.909 12.668C29.8206 12.6582 28.729 12.6614 27.6406 12.6582C26.9896 12.6582 27.0224 12.6745 26.8219 13.3128C26.5391 14.202 26.1675 15.0586 25.8683 15.9413C25.6579 16.5666 25.5231 17.2148 25.3192 17.8434C25.1252 18.4362 24.8786 19.0094 24.6747 19.5989C24.5794 19.879 24.5333 20.1754 24.4577 20.4653C24.3262 20.9701 24.415 21.3935 24.8293 21.7616C25.1416 22.0417 24.9805 22.5009 24.5564 22.54C23.7869 22.6084 23.0109 22.6279 22.2382 22.654C22.1495 22.654 22.0607 22.5726 21.9686 22.527C21.7746 22.781 21.3669 22.7745 20.9756 22.4228C21.2781 23.8396 21.7878 25.1652 21.1959 26.5592C21.4096 26.7611 21.357 27.0184 21.0644 27.3897C21.0151 27.5754 20.9953 27.7741 20.9098 27.9402C20.7389 28.2724 20.5679 28.6176 20.3246 28.8977C20.0352 29.2299 19.8807 29.6924 19.4269 29.8781C19.3907 29.8911 19.3809 29.9563 19.3513 29.9888C19.223 30.1289 19.0915 30.2657 18.9172 30.3634C18.9238 30.6305 18.7693 30.738 18.4898 30.8259C18.2826 30.891 18.1445 31.1548 17.9374 31.2363C17.4902 31.4122 17.0266 31.6173 16.5564 31.6532C15.0011 31.7737 13.4425 31.8453 11.884 31.8909C10.6575 31.9268 9.43102 31.8909 8.20127 31.8909C7.86917 31.8909 7.53378 31.9268 7.20168 31.917C7.07673 31.9137 6.90575 31.8486 6.84985 31.7541C6.80711 31.6857 6.90904 31.5229 6.95836 31.4089C7.12277 31.0148 7.46144 30.8747 7.84286 30.7249C8.13551 30.6109 8.35252 30.308 8.66818 30.0344C8.51035 30.0768 8.42815 30.0996 8.34266 30.1191C8.33608 30.0898 8.31964 30.054 8.32951 30.0475C8.99371 29.4189 9.19428 28.5557 9.5198 27.7545C9.73682 27.2171 9.95712 26.6797 10.1577 26.1358C10.2366 25.9208 10.2399 25.6798 10.3155 25.4616C10.6772 24.4617 10.8712 23.3999 11.4368 22.4684C11.6143 22.1752 11.6505 21.8007 11.7689 21.4717C11.9168 21.0613 12.0878 20.6574 12.2325 20.2471C12.3607 19.8855 12.4495 19.5077 12.5843 19.1494C13.1532 17.6447 13.7286 16.1399 14.3172 14.6385C14.5046 14.1629 14.498 13.7004 14.3172 13.2347C14.2777 13.137 14.1856 13.023 14.0936 12.9904C13.7483 12.8634 13.7089 12.5735 13.7911 12.3195C13.8437 12.1599 14.0771 11.984 14.2514 11.9514C14.6591 11.8798 15.0833 11.8732 15.5042 11.87C16.9312 11.857 18.3615 11.8146 19.7886 11.87C20.5514 11.8993 21.3307 12.0231 22.0541 12.2478C22.4454 12.3716 22.7709 12.7722 23.0668 13.0979C23.3463 13.4073 23.5436 13.7819 23.7902 14.1466C23.8593 13.9773 23.9513 13.7753 24.0237 13.5636C24.4314 12.4139 24.8391 11.2609 25.237 10.1079C25.3948 9.65195 25.5165 9.18945 25.671 8.73347C25.9867 7.80196 26.3615 6.88673 26.6246 5.93894C26.7791 5.37547 26.7758 4.76641 26.8186 4.17689C26.8252 4.10197 26.6542 4.02706 26.6049 3.93261C26.4799 3.69485 26.2728 3.43754 26.2859 3.19978C26.3023 2.88385 26.6377 2.8415 26.9304 2.83825C28.3739 2.83173 29.8173 2.82196 31.2608 2.81219C31.297 2.81219 31.3332 2.83173 31.3825 2.84476C31.4022 2.98481 31.4252 3.12161 31.4417 3.26166C31.468 3.49291 31.4219 3.61668 31.1293 3.67205C30.4815 3.79581 30.0409 4.23551 29.8173 4.83155C29.1597 6.59034 28.5284 8.35891 27.8938 10.1242C27.759 10.4988 27.6505 10.8864 27.5321 11.2674C27.4992 11.3749 27.4861 11.4857 27.4598 11.6355L27.4631 11.6192ZM14.3369 22.4162C13.3209 25.2531 12.3377 27.989 11.3283 30.8031C12.775 30.8063 14.1034 30.992 15.3957 30.4416C16.0105 30.181 16.5005 29.7902 16.8786 29.2821C17.26 28.7707 17.6349 28.2561 17.8946 27.6405C18.332 26.608 18.5884 25.569 18.4964 24.4682C18.4668 24.1197 18.2761 23.7288 18.036 23.4683C17.4705 22.8625 16.7569 22.4586 15.8955 22.4162C15.3628 22.3902 14.8301 22.413 14.3369 22.413V22.4162ZM20.1338 13.2705C20.0516 13.2477 19.9168 13.2217 19.782 13.1761C19.5782 13.1077 19.3809 12.9969 19.1737 12.9611C18.8153 12.896 18.4503 12.8634 18.0886 12.8406C18.0064 12.8341 17.8716 12.9057 17.8453 12.9741C17.6908 13.3487 17.5592 13.7363 17.4179 14.1336C17.0956 14.1532 17.2304 14.3812 17.1778 14.6091C17.0331 15.2247 16.7339 15.8045 16.5202 16.407C16.3722 16.8174 16.2736 17.2473 16.1322 17.661C15.9842 18.1007 15.8133 18.5371 15.6554 18.9736C15.4581 19.5207 15.2576 20.0679 15.0701 20.6184C15.011 20.7942 14.9847 20.9832 14.9419 21.1623C15.251 21.1623 15.4713 21.1623 15.6949 21.1623C16.7339 21.146 17.7401 21.019 18.5555 20.2894C18.5917 20.2568 18.6575 20.2568 18.6936 20.2243C18.9633 19.9963 19.2724 19.7976 19.4762 19.524C19.6439 19.3025 19.6834 18.9833 19.7853 18.6967C19.8807 18.7391 19.9398 18.7651 20.0023 18.7912C20.0253 18.6316 20.0122 18.4785 20.0714 18.3645C20.604 17.3385 20.9296 16.2572 20.8539 15.1042C20.8243 14.645 20.6238 14.189 20.4692 13.7428C20.41 13.5767 20.2621 13.4399 20.1404 13.2705H20.1338ZM21.3504 20.6021C20.9098 20.905 20.2719 20.8626 19.9563 21.4131C19.9267 21.3577 19.8774 21.2665 19.7853 21.0971C19.611 21.2828 19.4696 21.4294 19.2526 21.6574C19.5551 21.7551 19.9103 21.8984 19.9234 21.8723C20.1503 21.4359 20.706 21.5759 21.0151 21.2209C21.1795 21.032 21.3077 20.8757 21.3472 20.6021H21.3504Z" fill="#888888"/>
</svg>
