<svg width="29" height="29" viewBox="0 0 29 29" fill="none" xmlns="http://www.w3.org/2000/svg">
<path d="M24.7504 4.71149C22.1775 2.06284 18.6207 0.625 14.9883 0.625C7.26936 0.625 1.06396 6.90608 1.13963 14.5493C1.13963 16.9709 1.82071 19.3169 2.95585 21.4358L0.988281 28.625L8.32882 26.7331C10.3721 27.8682 12.6423 28.398 14.9126 28.398C22.5558 28.398 28.7613 22.1169 28.7613 14.4736C28.7613 10.7655 27.3234 7.28446 24.7504 4.71149ZM14.9883 26.052C12.945 26.052 10.9018 25.5223 9.16125 24.4628L8.7072 24.2358L4.31801 25.3709L5.45315 21.0574L5.15044 20.6034C1.82071 15.2304 3.4099 8.11689 8.85855 4.78716C14.3072 1.45743 21.345 3.04662 24.6748 8.49527C28.0045 13.9439 26.4153 20.9818 20.9667 24.3115C19.2261 25.4466 17.1072 26.052 14.9883 26.052ZM21.6477 17.652L20.8153 17.2736C20.8153 17.2736 19.6045 16.7439 18.8477 16.3655C18.7721 16.3655 18.6964 16.2899 18.6207 16.2899C18.3937 16.2899 18.2423 16.3655 18.091 16.4412C18.091 16.4412 18.0153 16.5169 16.9558 17.7277C16.8802 17.8791 16.7288 17.9547 16.5775 17.9547H16.5018C16.4261 17.9547 16.2748 17.8791 16.1991 17.8034L15.8207 17.652C14.9883 17.2736 14.2315 16.8196 13.6261 16.2142C13.4748 16.0628 13.2477 15.9115 13.0964 15.7601C12.5667 15.2304 12.0369 14.625 11.6586 13.9439L11.5829 13.7926C11.5072 13.7169 11.5072 13.6412 11.4315 13.4899C11.4315 13.3385 11.4315 13.1872 11.5072 13.1115C11.5072 13.1115 11.8099 12.7331 12.0369 12.5061C12.1883 12.3547 12.264 12.1277 12.4153 11.9764C12.5667 11.7493 12.6423 11.4466 12.5667 11.2196C12.491 10.8412 11.5829 8.79797 11.3558 8.34392C11.2045 8.11689 11.0531 8.04122 10.8261 7.96554H10.5991C10.4477 7.96554 10.2207 7.96554 9.99369 7.96554C9.84234 7.96554 9.69098 8.04122 9.53963 8.04122L9.46396 8.11689C9.31261 8.19257 9.16125 8.34392 9.0099 8.4196C8.85855 8.57095 8.78288 8.7223 8.63153 8.87365C8.1018 9.55473 7.79909 10.3872 7.79909 11.2196C7.79909 11.825 7.95044 12.4304 8.17747 12.9601L8.25315 13.1872C8.93423 14.625 9.84234 15.9115 11.0531 17.0466L11.3558 17.3493C11.5829 17.5764 11.8099 17.7277 11.9613 17.9547C13.5504 19.3169 15.3667 20.3007 17.4099 20.8304C17.6369 20.9061 17.9396 20.9061 18.1667 20.9818C18.3937 20.9818 18.6964 20.9818 18.9234 20.9818C19.3018 20.9818 19.7558 20.8304 20.0586 20.6791C20.2856 20.5277 20.4369 20.5277 20.5883 20.3764L20.7396 20.225C20.891 20.0736 21.0423 19.998 21.1937 19.8466C21.345 19.6953 21.4964 19.5439 21.5721 19.3926C21.7234 19.0899 21.7991 18.7115 21.8748 18.3331C21.8748 18.1818 21.8748 17.9547 21.8748 17.8034C21.8748 17.8034 21.7991 17.7277 21.6477 17.652Z" fill="white"/>
</svg>
