<svg width="31" height="30" viewBox="0 0 31 30" fill="none" xmlns="http://www.w3.org/2000/svg">
<path d="M0.0644531 15.0005C0.0644531 6.71599 6.77845 0.000488281 15.0645 0.000488281C23.3475 0.000488281 30.0645 6.71599 30.0645 15.0005C30.0645 23.285 23.3475 30.0005 15.0645 30.0005C6.77845 30.0005 0.0644531 23.285 0.0644531 15.0005Z" fill="#FC3F1D"/>
<path d="M16.9872 8.49982H15.6012C13.0602 8.49982 11.7237 9.78682 11.7237 11.6843C11.7237 13.8293 12.6477 14.8343 14.5452 16.1228L16.1127 17.1788L11.6082 23.9093H8.24219L12.2847 17.8883C9.95969 16.2218 8.65469 14.6033 8.65469 11.8658C8.65469 8.43382 11.0472 6.09082 15.5847 6.09082H20.0892V23.8928H16.9872V8.49982Z" fill="white"/>
</svg>
